<?xml version="1.0" encoding="utf-8"?>
<svg version="1.1" xmlns:xlink="http://www.w3.org/1999/xlink" width="267px" height="10px" preserveAspectRatio="xMinYMid meet" viewBox="376 182  267 8" xmlns="http://www.w3.org/2000/svg">
  <defs>
    <mask fill="white" id="clip490">
      <path d="M 432 172  L 544 172  L 544 200  L 432 200  Z M 364 144  L 648 144  L 648 278  L 364 278  Z " fill-rule="evenodd" />
    </mask>
  </defs>
  <path d="M 638 160  L 638 181  A 5 5 0 0 1 633 186 L 386 186  A 5 5 0 0 0 381 191 L 381 249  " stroke-width="2" stroke="#0033ff" fill="none" mask="url(#clip490)" />
  <path d="M 638 154  A 3.5 3.5 0 0 0 634.5 157.5 A 3.5 3.5 0 0 0 638 161 A 3.5 3.5 0 0 0 641.5 157.5 A 3.5 3.5 0 0 0 638 154 Z M 638 156  A 1.5 1.5 0 0 1 639.5 157.5 A 1.5 1.5 0 0 1 638 159 A 1.5 1.5 0 0 1 636.5 157.5 A 1.5 1.5 0 0 1 638 156 Z M 371.5 247  L 381 261  L 390.5 247  L 371.5 247  Z " fill-rule="nonzero" fill="#0033ff" stroke="none" mask="url(#clip490)" />
</svg>