<?xml version="1.0" encoding="utf-8"?>
<svg version="1.1" xmlns:xlink="http://www.w3.org/1999/xlink" width="20px" height="21px" preserveAspectRatio="xMidYMin meet" viewBox="372 313  18 21" xmlns="http://www.w3.org/2000/svg">
  <path d="M 381 326  L 381 392  " stroke-width="2" stroke="#0033ff" fill="none" />
  <path d="M 381 320  A 3.5 3.5 0 0 0 377.5 323.5 A 3.5 3.5 0 0 0 381 327 A 3.5 3.5 0 0 0 384.5 323.5 A 3.5 3.5 0 0 0 381 320 Z M 381 322  A 1.5 1.5 0 0 1 382.5 323.5 A 1.5 1.5 0 0 1 381 325 A 1.5 1.5 0 0 1 379.5 323.5 A 1.5 1.5 0 0 1 381 322 Z M 371.5 390  L 381 404  L 390.5 390  L 371.5 390  Z " fill-rule="nonzero" fill="#0033ff" stroke="none" />
</svg>