<?xml version="1.0" encoding="utf-8"?>
<svg version="1.1" xmlns:xlink="http://www.w3.org/1999/xlink" width="10px" height="38px" preserveAspectRatio="xMidYMin meet" viewBox="634 154  8 38" xmlns="http://www.w3.org/2000/svg">
  <defs>
    <mask fill="white" id="clip949">
      <path d="M 731 173  L 843 173  L 843 201  L 731 201  Z M 628 144  L 912 144  L 912 278  L 628 278  Z " fill-rule="evenodd" />
    </mask>
  </defs>
  <path d="M 638 160  L 638 182  A 5 5 0 0 0 643 187 L 890 187  A 5 5 0 0 1 895 192 L 895 249  " stroke-width="2" stroke="#0033ff" fill="none" mask="url(#clip949)" />
  <path d="M 638 154  A 3.5 3.5 0 0 0 634.5 157.5 A 3.5 3.5 0 0 0 638 161 A 3.5 3.5 0 0 0 641.5 157.5 A 3.5 3.5 0 0 0 638 154 Z M 638 156  A 1.5 1.5 0 0 1 639.5 157.5 A 1.5 1.5 0 0 1 638 159 A 1.5 1.5 0 0 1 636.5 157.5 A 1.5 1.5 0 0 1 638 156 Z M 885.5 247  L 895 261  L 904.5 247  L 885.5 247  Z " fill-rule="nonzero" fill="#0033ff" stroke="none" mask="url(#clip949)" />
</svg>