<?xml version="1.0" encoding="utf-8"?>
<svg version="1.1" xmlns:xlink="http://www.w3.org/1999/xlink" width="10px" height="89px" preserveAspectRatio="xMidYMin meet" viewBox="891 320  8 89" xmlns="http://www.w3.org/2000/svg">
  <path d="M 895 326  L 895 392  " stroke-width="2" stroke="#0033ff" fill="none" />
  <path d="M 895 320  A 3.5 3.5 0 0 0 891.5 323.5 A 3.5 3.5 0 0 0 895 327 A 3.5 3.5 0 0 0 898.5 323.5 A 3.5 3.5 0 0 0 895 320 Z M 895 322  A 1.5 1.5 0 0 1 896.5 323.5 A 1.5 1.5 0 0 1 895 325 A 1.5 1.5 0 0 1 893.5 323.5 A 1.5 1.5 0 0 1 895 322 Z M 885.5 390  L 895 404  L 904.5 390  L 885.5 390  Z " fill-rule="nonzero" fill="#0033ff" stroke="none" />
</svg>