<?xml version="1.0" encoding="utf-8"?>
<svg version="1.1" xmlns:xlink="http://www.w3.org/1999/xlink" width="375px" height="100px" xmlns="http://www.w3.org/2000/svg">
  <g transform="matrix(1 0 0 1 -1864 -224 )">
    <path d="M 1865 228  A 3 3 0 0 1 1868 225 L 2235 225  A 3 3 0 0 1 2238 228 L 2238 320  A 3 3 0 0 1 2235 323 L 1868 323  A 3 3 0 0 1 1865 320 L 1865 228  Z " fill-rule="nonzero" fill="#ff3399" stroke="none" fill-opacity="0.0980392156862745" />
    <path d="M 1864.5 228  A 3.5 3.5 0 0 1 1868 224.5 L 2235 224.5  A 3.5 3.5 0 0 1 2238.5 228 L 2238.5 320  A 3.5 3.5 0 0 1 2235 323.5 L 1868 323.5  A 3.5 3.5 0 0 1 1864.5 320 L 1864.5 228  Z " stroke-width="1" stroke-dasharray="9,4" stroke="#ff3399" fill="none" stroke-dashoffset="0.5" />
  </g>
</svg>