<?xml version="1.0" encoding="utf-8"?>
<svg version="1.1" xmlns:xlink="http://www.w3.org/1999/xlink" width="375px" height="67px" xmlns="http://www.w3.org/2000/svg">
  <g transform="matrix(1 0 0 1 -1864 -331 )">
    <path d="M 1865 335  A 3 3 0 0 1 1868 332 L 2235 332  A 3 3 0 0 1 2238 335 L 2238 394  A 3 3 0 0 1 2235 397 L 1868 397  A 3 3 0 0 1 1865 394 L 1865 335  Z " fill-rule="nonzero" fill="#ff3399" stroke="none" fill-opacity="0.0980392156862745" />
    <path d="M 1864.5 335  A 3.5 3.5 0 0 1 1868 331.5 L 2235 331.5  A 3.5 3.5 0 0 1 2238.5 335 L 2238.5 394  A 3.5 3.5 0 0 1 2235 397.5 L 1868 397.5  A 3.5 3.5 0 0 1 1864.5 394 L 1864.5 335  Z " stroke-width="1" stroke-dasharray="9,4" stroke="#ff3399" fill="none" stroke-dashoffset="0.5" />
  </g>
</svg>