<?xml version="1.0" encoding="utf-8"?>
<svg version="1.1" xmlns:xlink="http://www.w3.org/1999/xlink" width="583px" height="48px" xmlns="http://www.w3.org/2000/svg">
  <g transform="matrix(1 0 0 1 -122 -145 )">
    <path d="M 123 149  A 3 3 0 0 1 126 146 L 701 146  A 3 3 0 0 1 704 149 L 704 189  A 3 3 0 0 1 701 192 L 126 192  A 3 3 0 0 1 123 189 L 123 149  Z " fill-rule="nonzero" fill="#ff3399" stroke="none" fill-opacity="0.0980392156862745" />
    <path d="M 122.5 149  A 3.5 3.5 0 0 1 126 145.5 L 701 145.5  A 3.5 3.5 0 0 1 704.5 149 L 704.5 189  A 3.5 3.5 0 0 1 701 192.5 L 126 192.5  A 3.5 3.5 0 0 1 122.5 189 L 122.5 149  Z " stroke-width="1" stroke-dasharray="9,4" stroke="#ff3399" fill="none" stroke-dashoffset="0.5" />
  </g>
</svg>