<?xml version="1.0" encoding="utf-8"?>
<svg version="1.1" xmlns:xlink="http://www.w3.org/1999/xlink" width="45px" height="44px" xmlns="http://www.w3.org/2000/svg">
  <g transform="matrix(1 0 0 1 -133 -380 )">
    <path d="M 133 380  L 178 380  L 178 424  L 133 424  L 133 380  " fill-rule="nonzero" fill="#cccccc" stroke="none" />
    <path d="M 136 383  L 175 383  L 175 421  L 136 421  L 136 383  " fill-rule="nonzero" fill="#ffffff" stroke="none" />
    <path d="M 159.7 393.2  C 157.852 393.2  156.4 391.748  156.4 389.9  C 156.4 388.052  157.852 386.6  159.7 386.6  C 161.548 386.6  163 388.052  163 389.9  C 163 391.748  161.548 393.2  159.7 393.2  " fill-rule="nonzero" fill="#cccccc" stroke="none" />
    <path d="M 137 420  L 137 400.2  L 146.25 391.2  L 159.2 398.88  L 166.6 396.6  L 174 398.88  L 174 420  L 137 420  " fill-rule="nonzero" fill="#169bd5" stroke="none" />
  </g>
</svg>