<?xml version="1.0" encoding="utf-8"?>
<svg version="1.1" xmlns:xlink="http://www.w3.org/1999/xlink" width="605px" height="48px" xmlns="http://www.w3.org/2000/svg">
  <g transform="matrix(1 0 0 1 -114 -145 )">
    <path d="M 115 149  A 3 3 0 0 1 118 146 L 715 146  A 3 3 0 0 1 718 149 L 718 189  A 3 3 0 0 1 715 192 L 118 192  A 3 3 0 0 1 115 189 L 115 149  Z " fill-rule="nonzero" fill="#ff3399" stroke="none" fill-opacity="0.0980392156862745" />
    <path d="M 114.5 149  A 3.5 3.5 0 0 1 118 145.5 L 715 145.5  A 3.5 3.5 0 0 1 718.5 149 L 718.5 189  A 3.5 3.5 0 0 1 715 192.5 L 118 192.5  A 3.5 3.5 0 0 1 114.5 189 L 114.5 149  Z " stroke-width="1" stroke-dasharray="9,4" stroke="#ff3399" fill="none" stroke-dashoffset="0.5" />
  </g>
</svg>