<?xml version="1.0" encoding="utf-8"?>
<svg version="1.1" xmlns:xlink="http://www.w3.org/1999/xlink" width="16px" height="10px" preserveAspectRatio="xMinYMid meet" viewBox="1384 40  16 8" xmlns="http://www.w3.org/2000/svg">
  <path d="M 1845 106.5  L 1841 106.5  A 5 5 0 0 1 1836.5 101.5 L 1836.5 28  A 5 5 0 0 0 1831.5 23.5 L 1394 23.5  A 5 5 0 0 0 1389.5 28.5 L 1389.5 41  A 3 3 0 0 0 1392.5 44.5 A 3 3 0 0 1 1395.5 47.5 L 1395.5 52  " stroke-width="1" stroke="#ff3399" fill="none" />
  <path d="M 1843 103.5  A 3 3 0 0 0 1840 106.5 A 3 3 0 0 0 1843 109.5 A 3 3 0 0 0 1846 106.5 A 3 3 0 0 0 1843 103.5 Z " fill-rule="nonzero" fill="#ff3399" stroke="none" />
</svg>