<?xml version="1.0" encoding="utf-8"?>
<svg version="1.1" xmlns:xlink="http://www.w3.org/1999/xlink" width="375px" height="37px" xmlns="http://www.w3.org/2000/svg">
  <g transform="matrix(1 0 0 1 -1870 -167 )">
    <path d="M 1871 171  A 3 3 0 0 1 1874 168 L 2241 168  A 3 3 0 0 1 2244 171 L 2244 200  A 3 3 0 0 1 2241 203 L 1874 203  A 3 3 0 0 1 1871 200 L 1871 171  Z " fill-rule="nonzero" fill="#ff3399" stroke="none" fill-opacity="0.0980392156862745" />
    <path d="M 1870.5 171  A 3.5 3.5 0 0 1 1874 167.5 L 2241 167.5  A 3.5 3.5 0 0 1 2244.5 171 L 2244.5 200  A 3.5 3.5 0 0 1 2241 203.5 L 1874 203.5  A 3.5 3.5 0 0 1 1870.5 200 L 1870.5 171  Z " stroke-width="1" stroke-dasharray="9,4" stroke="#ff3399" fill="none" stroke-dashoffset="0.5" />
  </g>
</svg>