<?xml version="1.0" encoding="utf-8"?>
<svg version="1.1" xmlns:xlink="http://www.w3.org/1999/xlink" width="399px" height="37px" xmlns="http://www.w3.org/2000/svg">
  <g transform="matrix(1 0 0 1 -1846 -87 )">
    <path d="M 1847 91  A 3 3 0 0 1 1850 88 L 2241 88  A 3 3 0 0 1 2244 91 L 2244 120  A 3 3 0 0 1 2241 123 L 1850 123  A 3 3 0 0 1 1847 120 L 1847 91  Z " fill-rule="nonzero" fill="#ff3399" stroke="none" fill-opacity="0.0980392156862745" />
    <path d="M 1846.5 91  A 3.5 3.5 0 0 1 1850 87.5 L 2241 87.5  A 3.5 3.5 0 0 1 2244.5 91 L 2244.5 120  A 3.5 3.5 0 0 1 2241 123.5 L 1850 123.5  A 3.5 3.5 0 0 1 1846.5 120 L 1846.5 91  Z " stroke-width="1" stroke-dasharray="9,4" stroke="#ff3399" fill="none" stroke-dashoffset="0.5" />
  </g>
</svg>