<?xml version="1.0" encoding="utf-8"?>
<svg version="1.1" xmlns:xlink="http://www.w3.org/1999/xlink" width="32px" height="28px" xmlns="http://www.w3.org/2000/svg">
  <g transform="matrix(1 0 0 1 -1883 -856 )">
    <path d="M 1883 856  L 1915 856  L 1915 884  L 1883 884  L 1883 856  " fill-rule="nonzero" fill="#cccccc" stroke="none" />
    <path d="M 1885 858  L 1913 858  L 1913 882  L 1885 882  L 1885 858  " fill-rule="nonzero" fill="#ffffff" stroke="none" />
    <path d="M 1901.74 864.4  C 1900.564 864.4  1899.64 863.476  1899.64 862.3  C 1899.64 861.124  1900.564 860.2  1901.74 860.2  C 1902.916 860.2  1903.84 861.124  1903.84 862.3  C 1903.84 863.476  1902.916 864.4  1901.74 864.4  " fill-rule="nonzero" fill="#cccccc" stroke="none" />
    <path d="M 1886 882  L 1886 869.35  L 1892.75 863.6  L 1902.2 869.925  L 1907.6 867.05  L 1913 869.925  L 1913 882  L 1886 882  " fill-rule="nonzero" fill="#169bd5" stroke="none" />
  </g>
</svg>