<?xml version="1.0" encoding="utf-8"?>
<svg version="1.1" xmlns:xlink="http://www.w3.org/1999/xlink" width="375px" height="68px" xmlns="http://www.w3.org/2000/svg">
  <g transform="matrix(1 0 0 1 -1870 -834 )">
    <path d="M 1871 838  A 3 3 0 0 1 1874 835 L 2241 835  A 3 3 0 0 1 2244 838 L 2244 898  A 3 3 0 0 1 2241 901 L 1874 901  A 3 3 0 0 1 1871 898 L 1871 838  Z " fill-rule="nonzero" fill="#ff3399" stroke="none" fill-opacity="0.0980392156862745" />
    <path d="M 1870.5 838  A 3.5 3.5 0 0 1 1874 834.5 L 2241 834.5  A 3.5 3.5 0 0 1 2244.5 838 L 2244.5 898  A 3.5 3.5 0 0 1 2241 901.5 L 1874 901.5  A 3.5 3.5 0 0 1 1870.5 898 L 1870.5 838  Z " stroke-width="1" stroke-dasharray="9,4" stroke="#ff3399" fill="none" stroke-dashoffset="0.5" />
  </g>
</svg>