<?xml version="1.0" encoding="utf-8"?>
<svg version="1.1" xmlns:xlink="http://www.w3.org/1999/xlink" width="375px" height="100px" xmlns="http://www.w3.org/2000/svg">
  <g transform="matrix(1 0 0 1 -1870 -219 )">
    <path d="M 1871 223  A 3 3 0 0 1 1874 220 L 2241 220  A 3 3 0 0 1 2244 223 L 2244 315  A 3 3 0 0 1 2241 318 L 1874 318  A 3 3 0 0 1 1871 315 L 1871 223  Z " fill-rule="nonzero" fill="#ff3399" stroke="none" fill-opacity="0.0980392156862745" />
    <path d="M 1870.5 223  A 3.5 3.5 0 0 1 1874 219.5 L 2241 219.5  A 3.5 3.5 0 0 1 2244.5 223 L 2244.5 315  A 3.5 3.5 0 0 1 2241 318.5 L 1874 318.5  A 3.5 3.5 0 0 1 1870.5 315 L 1870.5 223  Z " stroke-width="1" stroke-dasharray="9,4" stroke="#ff3399" fill="none" stroke-dashoffset="0.5" />
  </g>
</svg>