<?xml version="1.0" encoding="utf-8"?>
<svg version="1.1" xmlns:xlink="http://www.w3.org/1999/xlink" width="183px" height="44px" xmlns="http://www.w3.org/2000/svg">
  <g transform="matrix(1 0 0 1 -645 -329 )">
    <path d="M 646 333  A 3 3 0 0 1 649 330 L 824 330  A 3 3 0 0 1 827 333 L 827 369  A 3 3 0 0 1 824 372 L 649 372  A 3 3 0 0 1 646 369 L 646 333  Z " fill-rule="nonzero" fill="#ff3399" stroke="none" fill-opacity="0" />
    <path d="M 645.5 333  A 3.5 3.5 0 0 1 649 329.5 L 824 329.5  A 3.5 3.5 0 0 1 827.5 333 L 827.5 369  A 3.5 3.5 0 0 1 824 372.5 L 649 372.5  A 3.5 3.5 0 0 1 645.5 369 L 645.5 333  Z " stroke-width="1" stroke-dasharray="9,4" stroke="#ff3399" fill="none" stroke-dashoffset="0.5" />
  </g>
</svg>