<?xml version="1.0" encoding="utf-8"?>
<svg version="1.1" xmlns:xlink="http://www.w3.org/1999/xlink" width="51px" height="62px" xmlns="http://www.w3.org/2000/svg">
  <g transform="matrix(1 0 0 1 -449 -493 )">
    <path d="M 449 493  L 500 493  L 500 555  L 449 555  L 449 493  " fill-rule="nonzero" fill="#cccccc" stroke="none" />
    <path d="M 453 497  L 496 497  L 496 551  L 453 551  L 453 497  " fill-rule="nonzero" fill="#ffffff" stroke="none" />
    <path d="M 479.345 509.95  C 477.203 509.95  475.52 508.267  475.52 506.125  C 475.52 503.983  477.203 502.3  479.345 502.3  C 481.487 502.3  483.17 503.983  483.17 506.125  C 483.17 508.267  481.487 509.95  479.345 509.95  " fill-rule="nonzero" fill="#cccccc" stroke="none" />
    <path d="M 455 550  L 455 521.95  L 465 509.2  L 479 519.4  L 487 516.85  L 495 519.4  L 495 550  L 455 550  " fill-rule="nonzero" fill="#169bd5" stroke="none" />
  </g>
</svg>