<?xml version="1.0" encoding="utf-8"?>
<svg version="1.1" xmlns:xlink="http://www.w3.org/1999/xlink" width="18px" height="18px" preserveAspectRatio="xMinYMid meet" viewBox="264 607  18 16" xmlns="http://www.w3.org/2000/svg">
  <path d="M 275 615.5  L 265 615.5  A 5 5 0 0 0 260.5 620.5 L 260.5 705  A 5 5 0 0 0 265.5 710.5 L 363 710.5  A 5 5 0 0 1 368.5 715.5 L 368.5 726  " stroke-width="1" stroke="#ff3399" fill="none" />
  <path d="M 273 612.5  A 3 3 0 0 0 270 615.5 A 3 3 0 0 0 273 618.5 A 3 3 0 0 0 276 615.5 A 3 3 0 0 0 273 612.5 Z " fill-rule="nonzero" fill="#ff3399" stroke="none" />
</svg>