<?xml version="1.0" encoding="utf-8"?>
<svg version="1.1" xmlns:xlink="http://www.w3.org/1999/xlink" width="160px" height="10px" preserveAspectRatio="xMinYMid meet" viewBox="959 456  160 8" xmlns="http://www.w3.org/2000/svg">
  <path d="M 955 461.5  L 963.5 461.5  A 0.5 0.5 0 0 0 964.5 461 A 0.5 0.5 0 0 1 965 460.5 L 1109 460.5  A 5 5 0 0 1 1114.5 465.5 L 1114.5 476  " stroke-width="1" stroke="#ff3399" fill="none" />
  <path d="M 957 458.5  A 3 3 0 0 0 954 461.5 A 3 3 0 0 0 957 464.5 A 3 3 0 0 0 960 461.5 A 3 3 0 0 0 957 458.5 Z " fill-rule="nonzero" fill="#ff3399" stroke="none" />
</svg>