<?xml version="1.0" encoding="utf-8"?>
<svg version="1.1" xmlns:xlink="http://www.w3.org/1999/xlink" width="81px" height="29px" xmlns="http://www.w3.org/2000/svg">
  <g transform="matrix(1 0 0 1 -833 -446 )">
    <path d="M 834 452  A 5 5 0 0 1 839 447 L 908 447  A 5 5 0 0 1 913 452 L 913 469  A 5 5 0 0 1 908 474 L 839 474  A 5 5 0 0 1 834 469 L 834 452  Z " fill-rule="nonzero" fill="#ffffff" stroke="none" />
    <path d="M 833.5 452  A 5.5 5.5 0 0 1 839 446.5 L 908 446.5  A 5.5 5.5 0 0 1 913.5 452 L 913.5 469  A 5.5 5.5 0 0 1 908 474.5 L 839 474.5  A 5.5 5.5 0 0 1 833.5 469 L 833.5 452  Z " stroke-width="1" stroke="#797979" fill="none" stroke-opacity="0.388235294117647" />
  </g>
</svg>