<?xml version="1.0" encoding="utf-8"?>
<svg version="1.1" xmlns:xlink="http://www.w3.org/1999/xlink" width="16px" height="16px" xmlns="http://www.w3.org/2000/svg">
  <g transform="matrix(1 0 0 1 -68 -291 )">
    <path d="M 8.61538461538461 7.20192307692308  L 8.61538461538461 14.4326923076923  L 14.7692307692308 11.0769230769231  L 14.7692307692308 4.96153846153846  L 8.61538461538461 7.20192307692308  Z M 1.28846153846154 3.67307692307692  L 8 6.11538461538461  L 14.7115384615385 3.67307692307692  L 8 1.23076923076923  L 1.28846153846154 3.67307692307692  Z M 15.7788461538462 2.99038461538461  C 15.9262820512821 3.20192307692308  16 3.43589743589743  16 3.69230769230769  L 16 11.0769230769231  C 16 11.3012820512821  15.9423076923077 11.5096153846154  15.8269230769231 11.7019230769231  C 15.7115384615385 11.8942307692308  15.5544871794872 12.0448717948718  15.3557692307692 12.1538461538462  L 8.58653846153846 15.8461538461538  C 8.40705128205128 15.9487179487179  8.21153846153846 16  8 16  C 7.78846153846154 16  7.59294871794872 15.9487179487179  7.41346153846154 15.8461538461538  L 0.644230769230769 12.1538461538462  C 0.445512820512821 12.0448717948718  0.288461538461538 11.8942307692308  0.173076923076923 11.7019230769231  C 0.0576923076923077 11.5096153846154  0 11.3012820512821  0 11.0769230769231  L 0 3.69230769230769  C 0 3.43589743589743  0.0737179487179487 3.20192307692308  0.221153846153846 2.99038461538461  C 0.368589743589744 2.77884615384615  0.564102564102564 2.62820512820513  0.807692307692308 2.53846153846154  L 7.57692307692308 0.0769230769230766  C 7.71794871794872 0.0256410256410238  7.85897435897436 0  8 0  C 8.14102564102564 0  8.28205128205128 0.0256410256410238  8.42307692307692 0.0769230769230766  L 15.1923076923077 2.53846153846154  C 15.4358974358974 2.62820512820513  15.6314102564103 2.77884615384615  15.7788461538462 2.99038461538461  Z " fill-rule="nonzero" fill="#ffffff" stroke="none" transform="matrix(1 0 0 1 68 291 )" />
  </g>
</svg>