<?xml version="1.0" encoding="utf-8"?>
<svg version="1.1" xmlns:xlink="http://www.w3.org/1999/xlink" width="1600px" height="142px" xmlns="http://www.w3.org/2000/svg">
  <g transform="matrix(1 0 0 1 -380 -448 )">
    <path d="M 381 452  A 3 3 0 0 1 384 449 L 1976 449  A 3 3 0 0 1 1979 452 L 1979 586  A 3 3 0 0 1 1976 589 L 384 589  A 3 3 0 0 1 381 586 L 381 452  Z " fill-rule="nonzero" fill="#ff3399" stroke="none" fill-opacity="0.0980392156862745" />
    <path d="M 380.5 452  A 3.5 3.5 0 0 1 384 448.5 L 1976 448.5  A 3.5 3.5 0 0 1 1979.5 452 L 1979.5 586  A 3.5 3.5 0 0 1 1976 589.5 L 384 589.5  A 3.5 3.5 0 0 1 380.5 586 L 380.5 452  Z " stroke-width="1" stroke-dasharray="9,4" stroke="#ff3399" fill="none" stroke-dashoffset="0.5" />
  </g>
</svg>