<?xml version="1.0" encoding="utf-8"?>
<svg version="1.1" xmlns:xlink="http://www.w3.org/1999/xlink" width="1600px" height="95px" xmlns="http://www.w3.org/2000/svg">
  <g transform="matrix(1 0 0 1 -380 -304 )">
    <path d="M 381 308  A 3 3 0 0 1 384 305 L 1976 305  A 3 3 0 0 1 1979 308 L 1979 395  A 3 3 0 0 1 1976 398 L 384 398  A 3 3 0 0 1 381 395 L 381 308  Z " fill-rule="nonzero" fill="#ff3399" stroke="none" fill-opacity="0.0980392156862745" />
    <path d="M 380.5 308  A 3.5 3.5 0 0 1 384 304.5 L 1976 304.5  A 3.5 3.5 0 0 1 1979.5 308 L 1979.5 395  A 3.5 3.5 0 0 1 1976 398.5 L 384 398.5  A 3.5 3.5 0 0 1 380.5 395 L 380.5 308  Z " stroke-width="1" stroke-dasharray="9,4" stroke="#ff3399" fill="none" stroke-dashoffset="0.5" />
  </g>
</svg>