<?xml version="1.0" encoding="utf-8"?>
<svg version="1.1" xmlns:xlink="http://www.w3.org/1999/xlink" width="1600px" height="142px" xmlns="http://www.w3.org/2000/svg">
  <g transform="matrix(1 0 0 1 -380 -419 )">
    <path d="M 381 423  A 3 3 0 0 1 384 420 L 1976 420  A 3 3 0 0 1 1979 423 L 1979 557  A 3 3 0 0 1 1976 560 L 384 560  A 3 3 0 0 1 381 557 L 381 423  Z " fill-rule="nonzero" fill="#ff3399" stroke="none" fill-opacity="0.0980392156862745" />
    <path d="M 380.5 423  A 3.5 3.5 0 0 1 384 419.5 L 1976 419.5  A 3.5 3.5 0 0 1 1979.5 423 L 1979.5 557  A 3.5 3.5 0 0 1 1976 560.5 L 384 560.5  A 3.5 3.5 0 0 1 380.5 557 L 380.5 423  Z " stroke-width="1" stroke-dasharray="9,4" stroke="#ff3399" fill="none" stroke-dashoffset="0.5" />
  </g>
</svg>