<?xml version="1.0" encoding="utf-8"?>
<svg version="1.1" xmlns:xlink="http://www.w3.org/1999/xlink" width="10px" height="22px" preserveAspectRatio="xMidYMin meet" viewBox="418 665  8 22" xmlns="http://www.w3.org/2000/svg">
  <path d="M 379 352.5  L 359 352.5  A 5 5 0 0 0 354.5 357.5 L 354.5 665  A 5 5 0 0 0 359.5 670.5 L 417 670.5  A 5 5 0 0 1 422.5 675.5 L 422.5 687  " stroke-width="1" stroke="#ff3399" fill="none" />
  <path d="M 377 349.5  A 3 3 0 0 0 374 352.5 A 3 3 0 0 0 377 355.5 A 3 3 0 0 0 380 352.5 A 3 3 0 0 0 377 349.5 Z " fill-rule="nonzero" fill="#ff3399" stroke="none" />
</svg>