<?xml version="1.0" encoding="utf-8"?>
<svg version="1.1" xmlns:xlink="http://www.w3.org/1999/xlink" width="112px" height="10px" preserveAspectRatio="xMinYMid meet" viewBox="365 976  112 8" xmlns="http://www.w3.org/2000/svg">
  <path d="M 379 490.5  L 375 490.5  A 5 5 0 0 0 370.5 495 L 370.5 667  A 3 3 0 0 1 373.5 670 A 3 3 0 0 1 370.5 673 L 370.5 975  A 5 5 0 0 0 375.5 980.5 L 467 980.5  A 5 5 0 0 1 472.5 985.5 L 472.5 999  " stroke-width="1" stroke="#ff3399" fill="none" />
  <path d="M 377 487.5  A 3 3 0 0 0 374 490.5 A 3 3 0 0 0 377 493.5 A 3 3 0 0 0 380 490.5 A 3 3 0 0 0 377 487.5 Z " fill-rule="nonzero" fill="#ff3399" stroke="none" />
</svg>