<?xml version="1.0" encoding="utf-8"?>
<svg version="1.1" xmlns:xlink="http://www.w3.org/1999/xlink" width="361px" height="198px" xmlns="http://www.w3.org/2000/svg">
  <g transform="matrix(1 0 0 1 -145 -212 )">
    <path d="M 146 216  A 3 3 0 0 1 149 213 L 502 213  A 3 3 0 0 1 505 216 L 505 406  A 3 3 0 0 1 502 409 L 149 409  A 3 3 0 0 1 146 406 L 146 216  Z " fill-rule="nonzero" fill="#ff3399" stroke="none" fill-opacity="0.0980392156862745" />
    <path d="M 145.5 216  A 3.5 3.5 0 0 1 149 212.5 L 502 212.5  A 3.5 3.5 0 0 1 505.5 216 L 505.5 406  A 3.5 3.5 0 0 1 502 409.5 L 149 409.5  A 3.5 3.5 0 0 1 145.5 406 L 145.5 216  Z " stroke-width="1" stroke-dasharray="9,4" stroke="#ff3399" fill="none" stroke-dashoffset="0.5" />
  </g>
</svg>