<?xml version="1.0" encoding="utf-8"?>
<svg version="1.1" xmlns:xlink="http://www.w3.org/1999/xlink" width="82px" height="66px" xmlns="http://www.w3.org/2000/svg">
  <g transform="matrix(1 0 0 1 -144 -474 )">
    <path d="M 144 474  L 226 474  L 226 540  L 144 540  L 144 474  " fill-rule="nonzero" fill="#cccccc" stroke="none" />
    <path d="M 149 479  L 221 479  L 221 535  L 149 535  L 149 479  " fill-rule="nonzero" fill="#ffffff" stroke="none" />
    <path d="M 191.59 493.8  C 188.818 493.8  186.64 491.622  186.64 488.85  C 186.64 486.078  188.818 483.9  191.59 483.9  C 194.362 483.9  196.54 486.078  196.54 488.85  C 196.54 491.622  194.362 493.8  191.59 493.8  " fill-rule="nonzero" fill="#cccccc" stroke="none" />
    <path d="M 151 534  L 151 504.85  L 168.25 491.6  L 192.4 508.40487804878  L 206.2 499.55  L 220 508.40487804878  L 220 534  L 151 534  " fill-rule="nonzero" fill="#169bd5" stroke="none" />
  </g>
</svg>