<?xml version="1.0" encoding="utf-8"?>
<svg version="1.1" xmlns:xlink="http://www.w3.org/1999/xlink" width="337px" height="27px" xmlns="http://www.w3.org/2000/svg">
  <g transform="matrix(1 0 0 1 -149 -161 )">
    <path d="M 150 165  A 3 3 0 0 1 153 162 L 482 162  A 3 3 0 0 1 485 165 L 485 184  A 3 3 0 0 1 482 187 L 153 187  A 3 3 0 0 1 150 184 L 150 165  Z " fill-rule="nonzero" fill="#ff3399" stroke="none" fill-opacity="0.0980392156862745" />
    <path d="M 149.5 165  A 3.5 3.5 0 0 1 153 161.5 L 482 161.5  A 3.5 3.5 0 0 1 485.5 165 L 485.5 184  A 3.5 3.5 0 0 1 482 187.5 L 153 187.5  A 3.5 3.5 0 0 1 149.5 184 L 149.5 165  Z " stroke-width="1" stroke-dasharray="9,4" stroke="#ff3399" fill="none" stroke-dashoffset="0.5" />
  </g>
</svg>