<?xml version="1.0" encoding="utf-8"?>
<svg version="1.1" xmlns:xlink="http://www.w3.org/1999/xlink" width="18px" height="18px" preserveAspectRatio="xMinYMid meet" viewBox="546 177  18 16" xmlns="http://www.w3.org/2000/svg">
  <path d="M 553 185.5  L 577.5 185.5  A 2.5 2.5 0 0 0 580.5 183 A 2.5 2.5 0 0 1 583 180.5 L 620 180.5  A 5 5 0 0 1 625.5 185.5 L 625.5 191  " stroke-width="1" stroke="#ff3399" fill="none" />
  <path d="M 555 182.5  A 3 3 0 0 0 552 185.5 A 3 3 0 0 0 555 188.5 A 3 3 0 0 0 558 185.5 A 3 3 0 0 0 555 182.5 Z " fill-rule="nonzero" fill="#ff3399" stroke="none" />
</svg>