<?xml version="1.0" encoding="utf-8"?>
<svg version="1.1" xmlns:xlink="http://www.w3.org/1999/xlink" width="353px" height="120px" xmlns="http://www.w3.org/2000/svg">
  <g transform="matrix(1 0 0 1 -145 -256 )">
    <path d="M 145 256  L 498 256  L 498 376  L 145 376  L 145 256  " fill-rule="nonzero" fill="#cccccc" stroke="none" />
    <path d="M 153 264  L 490 264  L 490 368  L 153 368  L 153 264  " fill-rule="nonzero" fill="#ffffff" stroke="none" />
    <path d="M 337.56 292  C 332.52 292  328.56 288.04  328.56 283  C 328.56 277.96  332.52 274  337.56 274  C 342.6 274  346.56 277.96  346.56 283  C 346.56 288.04  342.6 292  337.56 292  " fill-rule="nonzero" fill="#cccccc" stroke="none" />
    <path d="M 156 365  L 156 311.1  L 238.75 286.6  L 354.6 345.011331444759  L 420.8 301.3  L 487 345.011331444759  L 487 365  L 156 365  " fill-rule="nonzero" fill="#169bd5" stroke="none" />
  </g>
</svg>