<?xml version="1.0" encoding="utf-8"?>
<svg version="1.1" xmlns:xlink="http://www.w3.org/1999/xlink" width="92px" height="75px" xmlns="http://www.w3.org/2000/svg">
  <g transform="matrix(1 0 0 1 -289 -264 )">
    <path d="M 289 264  L 381 264  L 381 339  L 289 339  L 289 264  " fill-rule="nonzero" fill="#cccccc" stroke="none" />
    <path d="M 294 269  L 376 269  L 376 334  L 294 334  L 294 269  " fill-rule="nonzero" fill="#ffffff" stroke="none" />
    <path d="M 342.465 286.5  C 339.315 286.5  336.84 284.025  336.84 280.875  C 336.84 277.725  339.315 275.25  342.465 275.25  C 345.615 275.25  348.09 277.725  348.09 280.875  C 348.09 284.025  345.615 286.5  342.465 286.5  " fill-rule="nonzero" fill="#cccccc" stroke="none" />
    <path d="M 296 332  L 296 298.45  L 315.5 283.2  L 342.8 302.163043478261  L 358.4 292.35  L 374 302.163043478261  L 374 332  L 296 332  " fill-rule="nonzero" fill="#169bd5" stroke="none" />
  </g>
</svg>