<?xml version="1.0" encoding="utf-8"?>
<svg version="1.1" xmlns:xlink="http://www.w3.org/1999/xlink" width="27px" height="27px" xmlns="http://www.w3.org/2000/svg">
  <g transform="matrix(1 0 0 1 -516 -1033 )">
    <path d="M 529.5 1033  C 537.06 1033  543 1038.94  543 1046.5  C 543 1054.06  537.06 1060  529.5 1060  C 521.94 1060  516 1054.06  516 1046.5  C 516 1038.94  521.94 1033  529.5 1033  Z " fill-rule="nonzero" fill="#e8e8e8" stroke="none" />
    <path d="M 529.5 1033.5  C 536.78 1033.5  542.5 1039.22  542.5 1046.5  C 542.5 1053.78  536.78 1059.5  529.5 1059.5  C 522.22 1059.5  516.5 1053.78  516.5 1046.5  C 516.5 1039.22  522.22 1033.5  529.5 1033.5  Z " stroke-width="1" stroke="#797979" fill="none" />
  </g>
</svg>