<?xml version="1.0" encoding="utf-8"?>
<svg version="1.1" xmlns:xlink="http://www.w3.org/1999/xlink" width="27px" height="27px" xmlns="http://www.w3.org/2000/svg">
  <g transform="matrix(1 0 0 1 -525 -1956 )">
    <path d="M 538.5 1956  C 546.06 1956  552 1961.94  552 1969.5  C 552 1977.06  546.06 1983  538.5 1983  C 530.94 1983  525 1977.06  525 1969.5  C 525 1961.94  530.94 1956  538.5 1956  Z " fill-rule="nonzero" fill="#e8e8e8" stroke="none" />
    <path d="M 538.5 1956.5  C 545.78 1956.5  551.5 1962.22  551.5 1969.5  C 551.5 1976.78  545.78 1982.5  538.5 1982.5  C 531.22 1982.5  525.5 1976.78  525.5 1969.5  C 525.5 1962.22  531.22 1956.5  538.5 1956.5  Z " stroke-width="1" stroke="#797979" fill="none" />
  </g>
</svg>