<?xml version="1.0" encoding="utf-8"?>
<svg version="1.1" xmlns:xlink="http://www.w3.org/1999/xlink" width="13px" height="13px" xmlns="http://www.w3.org/2000/svg">
  <g transform="matrix(1 0 0 1 -359 -271 )">
    <path d="M 365.5 271  C 369.14 271  372 273.86  372 277.5  C 372 281.14  369.14 284  365.5 284  C 361.86 284  359 281.14  359 277.5  C 359 273.86  361.86 271  365.5 271  Z " fill-rule="nonzero" fill="#e8e8e8" stroke="none" />
    <path d="M 365.5 271.5  C 368.86 271.5  371.5 274.14  371.5 277.5  C 371.5 280.86  368.86 283.5  365.5 283.5  C 362.14 283.5  359.5 280.86  359.5 277.5  C 359.5 274.14  362.14 271.5  365.5 271.5  Z " stroke-width="1" stroke="#797979" fill="none" />
  </g>
</svg>