<?xml version="1.0" encoding="utf-8"?>
<svg version="1.1" xmlns:xlink="http://www.w3.org/1999/xlink" width="368px" height="684px" xmlns="http://www.w3.org/2000/svg">
  <g transform="matrix(1 0 0 1 -198 -1054 )">
    <path d="M 198 1054  L 566 1054  L 566 1738  L 198 1738  L 198 1054  " fill-rule="nonzero" fill="#cccccc" stroke="none" />
    <path d="M 224 1080  L 540 1080  L 540 1712  L 224 1712  L 224 1080  " fill-rule="nonzero" fill="#ffffff" stroke="none" />
    <path d="M 416.96 1211.8  C 401.504 1211.8  389.36 1199.656  389.36 1184.2  C 389.36 1168.744  401.504 1156.6  416.96 1156.6  C 432.416 1156.6  444.56 1168.744  444.56 1184.2  C 444.56 1199.656  432.416 1211.8  416.96 1211.8  " fill-rule="nonzero" fill="#cccccc" stroke="none" />
    <path d="M 233 1703  L 233 1365.3  L 307.5 1211.8  L 411.8 1334.6  L 471.4 1303.9  L 531 1334.6  L 531 1703  L 233 1703  " fill-rule="nonzero" fill="#169bd5" stroke="none" />
  </g>
</svg>