<?xml version="1.0" encoding="utf-8"?>
<svg version="1.1" xmlns:xlink="http://www.w3.org/1999/xlink" width="368px" height="684px" xmlns="http://www.w3.org/2000/svg">
  <g transform="matrix(1 0 0 1 -208 -1973 )">
    <path d="M 208 1973  L 576 1973  L 576 2657  L 208 2657  L 208 1973  " fill-rule="nonzero" fill="#cccccc" stroke="none" />
    <path d="M 234 1999  L 550 1999  L 550 2631  L 234 2631  L 234 1999  " fill-rule="nonzero" fill="#ffffff" stroke="none" />
    <path d="M 426.96 2130.8  C 411.504 2130.8  399.36 2118.656  399.36 2103.2  C 399.36 2087.744  411.504 2075.6  426.96 2075.6  C 442.416 2075.6  454.56 2087.744  454.56 2103.2  C 454.56 2118.656  442.416 2130.8  426.96 2130.8  " fill-rule="nonzero" fill="#cccccc" stroke="none" />
    <path d="M 243 2622  L 243 2284.3  L 317.5 2130.8  L 421.8 2253.6  L 481.4 2222.9  L 541 2253.6  L 541 2622  L 243 2622  " fill-rule="nonzero" fill="#169bd5" stroke="none" />
  </g>
</svg>