<?xml version="1.0" encoding="utf-8"?>
<svg version="1.1" xmlns:xlink="http://www.w3.org/1999/xlink" width="13px" height="13px" xmlns="http://www.w3.org/2000/svg">
  <g transform="matrix(1 0 0 1 -369 -1164 )">
    <path d="M 375.5 1164  C 379.14 1164  382 1166.86  382 1170.5  C 382 1174.14  379.14 1177  375.5 1177  C 371.86 1177  369 1174.14  369 1170.5  C 369 1166.86  371.86 1164  375.5 1164  Z " fill-rule="nonzero" fill="#7b6cff" stroke="none" />
    <path d="M 375.5 1164.5  C 378.86 1164.5  381.5 1167.14  381.5 1170.5  C 381.5 1173.86  378.86 1176.5  375.5 1176.5  C 372.14 1176.5  369.5 1173.86  369.5 1170.5  C 369.5 1167.14  372.14 1164.5  375.5 1164.5  Z " stroke-width="1" stroke="#ffffff" fill="none" />
  </g>
</svg>