<?xml version="1.0" encoding="utf-8"?>
<svg version="1.1" xmlns:xlink="http://www.w3.org/1999/xlink" width="18px" height="18px" preserveAspectRatio="xMinYMid meet" viewBox="740 317  18 16" xmlns="http://www.w3.org/2000/svg">
  <path d="M 747 325.5  L 757.5 325.5  A 2.5 2.5 0 0 0 760.5 323 A 2.5 2.5 0 0 1 763 320.5 L 792 320.5  A 5 5 0 0 1 797.5 325.5 L 797.5 331  " stroke-width="1" stroke="#ff3399" fill="none" />
  <path d="M 749 322.5  A 3 3 0 0 0 746 325.5 A 3 3 0 0 0 749 328.5 A 3 3 0 0 0 752 325.5 A 3 3 0 0 0 749 322.5 Z " fill-rule="nonzero" fill="#ff3399" stroke="none" />
</svg>