<?xml version="1.0" encoding="utf-8"?>
<svg version="1.1" xmlns:xlink="http://www.w3.org/1999/xlink" width="103px" height="79px" xmlns="http://www.w3.org/2000/svg">
  <g transform="matrix(1 0 0 1 -131 -944 )">
    <path d="M 131 944  L 234 944  L 234 1023  L 131 1023  L 131 944  " fill-rule="nonzero" fill="#cccccc" stroke="none" />
    <path d="M 137 950  L 228 950  L 228 1017  L 137 1017  L 137 950  " fill-rule="nonzero" fill="#ffffff" stroke="none" />
    <path d="M 190.485 967.7  C 187.167 967.7  184.56 965.093  184.56 961.775  C 184.56 958.457  187.167 955.85  190.485 955.85  C 193.803 955.85  196.41 958.457  196.41 961.775  C 196.41 965.093  193.803 967.7  190.485 967.7  " fill-rule="nonzero" fill="#cccccc" stroke="none" />
    <path d="M 139 1015  L 139 980.35  L 160.75 964.6  L 191.2 986.007766990291  L 208.6 974.05  L 226 986.007766990291  L 226 1015  L 139 1015  " fill-rule="nonzero" fill="#169bd5" stroke="none" />
  </g>
</svg>