<?xml version="1.0" encoding="utf-8"?>
<svg version="1.1" xmlns:xlink="http://www.w3.org/1999/xlink" width="8px" height="5px" xmlns="http://www.w3.org/2000/svg">
  <g transform="matrix(1 0 0 1 -260 -12 )">
    <path d="M 7.91983967935872 0.46506300114548  C 7.97327989311957 0.516736667939415  8 0.576161384752446  8 0.643337151584573  C 8 0.7105129184167  7.97327989311957 0.769937635229731  7.91983967935872 0.821611302023679  L 4.18436873747495 4.43360061092021  C 4.1309285237141 4.48527427771416  4.06947227788911 4.51111111111112  4 4.51111111111112  C 3.93052772211089 4.51111111111112  3.8690714762859 4.48527427771416  3.81563126252505 4.43360061092021  L 0.0801603206412795 0.821611302023679  C 0.0267201068804265 0.769937635229731  0 0.7105129184167  0 0.643337151584573  C 0 0.576161384752446  0.0267201068804265 0.516736667939415  0.0801603206412795 0.46506300114548  L 0.480961923847693 0.0775105001909093  C 0.534402137608546 0.0258368333969737  0.595858383433535 0  0.665330661322644 0  C 0.734802939211753 0  0.796259185036742 0.0258368333969737  0.849699398797595 0.0775105001909093  L 4 3.12367315769378  L 7.1503006012024 0.0775105001909093  C 7.20374081496326 0.0258368333969737  7.26519706078825 0  7.33466933867736 0  C 7.40414161656646 0  7.46559786239145 0.0258368333969737  7.51903807615231 0.0775105001909093  L 7.91983967935872 0.46506300114548  Z " fill-rule="nonzero" fill="#dcdfe6" stroke="none" transform="matrix(1 0 0 1 260 12 )" />
  </g>
</svg>