<?xml version="1.0" encoding="utf-8"?>
<svg version="1.1" xmlns:xlink="http://www.w3.org/1999/xlink" width="39px" height="39px" xmlns="http://www.w3.org/2000/svg">
  <g transform="matrix(1 0 0 1 -651 -2204 )">
    <path d="M 670.5 2204  C 681.42 2204  690 2212.58  690 2223.5  C 690 2234.42  681.42 2243  670.5 2243  C 659.58 2243  651 2234.42  651 2223.5  C 651 2212.58  659.58 2204  670.5 2204  Z " fill-rule="nonzero" fill="#ffffff" stroke="none" fill-opacity="0" />
    <path d="M 670.5 2204.5  C 681.14 2204.5  689.5 2212.86  689.5 2223.5  C 689.5 2234.14  681.14 2242.5  670.5 2242.5  C 659.86 2242.5  651.5 2234.14  651.5 2223.5  C 651.5 2212.86  659.86 2204.5  670.5 2204.5  Z " stroke-width="1" stroke="#797979" fill="none" />
  </g>
</svg>