<?xml version="1.0" encoding="utf-8"?>
<svg version="1.1" xmlns:xlink="http://www.w3.org/1999/xlink" width="76px" height="52px" xmlns="http://www.w3.org/2000/svg">
  <g transform="matrix(1 0 0 1 -144 -1093 )">
    <path d="M 144 1093  L 220 1093  L 220 1145  L 144 1145  L 144 1093  " fill-rule="nonzero" fill="#cccccc" stroke="none" />
    <path d="M 148 1097  L 216 1097  L 216 1141  L 148 1141  L 148 1097  " fill-rule="nonzero" fill="#ffffff" stroke="none" />
    <path d="M 187.42 1108.6  C 185.236 1108.6  183.52 1106.884  183.52 1104.7  C 183.52 1102.516  185.236 1100.8  187.42 1100.8  C 189.604 1100.8  191.32 1102.516  191.32 1104.7  C 191.32 1106.884  189.604 1108.6  187.42 1108.6  " fill-rule="nonzero" fill="#cccccc" stroke="none" />
    <path d="M 150 1140  L 150 1117.45  L 166.25 1107.2  L 189 1123.16842105263  L 202 1113.35  L 215 1123.16842105263  L 215 1140  L 150 1140  " fill-rule="nonzero" fill="#169bd5" stroke="none" />
  </g>
</svg>