<?xml version="1.0" encoding="utf-8"?>
<svg version="1.1" xmlns:xlink="http://www.w3.org/1999/xlink" width="169px" height="205px" xmlns="http://www.w3.org/2000/svg">
  <defs>
    <filter x="407px" y="1533px" width="169px" height="205px" filterUnits="userSpaceOnUse" id="filter305">
      <feOffset dx="-1" dy="0" in="SourceAlpha" result="shadowOffsetInner" />
      <feGaussianBlur stdDeviation="4.5" in="shadowOffsetInner" result="shadowGaussian" />
      <feComposite in2="shadowGaussian" operator="atop" in="SourceAlpha" result="shadowComposite" />
      <feColorMatrix type="matrix" values="0 0 0 0 0  0 0 0 0 0  0 0 0 0 0  0 0 0 0.101960784313725 0  " in="shadowComposite" />
    </filter>
    <g id="widget306">
      <path d="M 417 1542  L 568 1542  L 568 1729  L 417 1729  L 417 1542  " fill-rule="nonzero" fill="#cccccc" stroke="none" />
      <path d="M 428 1553  L 557 1553  L 557 1718  L 428 1718  L 428 1553  " fill-rule="nonzero" fill="#ffffff" stroke="none" />
      <path d="M 506.845 1592.7  C 500.503 1592.7  495.52 1587.717  495.52 1581.375  C 495.52 1575.033  500.503 1570.05  506.845 1570.05  C 513.187 1570.05  518.17 1575.033  518.17 1581.375  C 518.17 1587.717  513.187 1592.7  506.845 1592.7  " fill-rule="nonzero" fill="#cccccc" stroke="none" />
      <path d="M 432 1714  L 432 1627.65  L 462.25 1588.4  L 504.6 1619.8  L 528.8 1611.95  L 553 1619.8  L 553 1714  L 432 1714  " fill-rule="nonzero" fill="#169bd5" stroke="none" />
    </g>
  </defs>
  <g transform="matrix(1 0 0 1 -407 -1533 )">
    <use xlink:href="#widget306" filter="url(#filter305)" />
    <use xlink:href="#widget306" />
  </g>
</svg>