<?xml version="1.0" encoding="utf-8"?>
<svg version="1.1" xmlns:xlink="http://www.w3.org/1999/xlink" width="39px" height="39px" xmlns="http://www.w3.org/2000/svg">
  <g transform="matrix(1 0 0 1 -651 -2244 )">
    <path d="M 670.5 2244  C 681.42 2244  690 2252.58  690 2263.5  C 690 2274.42  681.42 2283  670.5 2283  C 659.58 2283  651 2274.42  651 2263.5  C 651 2252.58  659.58 2244  670.5 2244  Z " fill-rule="nonzero" fill="#ffffff" stroke="none" fill-opacity="0" />
    <path d="M 670.5 2244.5  C 681.14 2244.5  689.5 2252.86  689.5 2263.5  C 689.5 2274.14  681.14 2282.5  670.5 2282.5  C 659.86 2282.5  651.5 2274.14  651.5 2263.5  C 651.5 2252.86  659.86 2244.5  670.5 2244.5  Z " stroke-width="1" stroke="#797979" fill="none" />
  </g>
</svg>