<?xml version="1.0" encoding="utf-8"?>
<svg version="1.1" xmlns:xlink="http://www.w3.org/1999/xlink" width="18px" height="18px" preserveAspectRatio="xMinYMid meet" viewBox="984 711  18 16" xmlns="http://www.w3.org/2000/svg">
  <path d="M 991 719.5  L 1035 719.5  A 5 5 0 0 0 1040.5 714.5 L 1040.5 685  A 5 5 0 0 1 1045.5 680.5 L 1088 680.5  A 5 5 0 0 1 1093.5 685.5 L 1093.5 693  " stroke-width="1" stroke="#ff3399" fill="none" />
  <path d="M 993 716.5  A 3 3 0 0 0 990 719.5 A 3 3 0 0 0 993 722.5 A 3 3 0 0 0 996 719.5 A 3 3 0 0 0 993 716.5 Z " fill-rule="nonzero" fill="#ff3399" stroke="none" />
</svg>