<?xml version="1.0" encoding="utf-8"?>
<svg version="1.1" xmlns:xlink="http://www.w3.org/1999/xlink" width="77px" height="349px" xmlns="http://www.w3.org/2000/svg">
  <g transform="matrix(1 0 0 1 -911 -490 )">
    <path d="M 912 494  A 3 3 0 0 1 915 491 L 984 491  A 3 3 0 0 1 987 494 L 987 835  A 3 3 0 0 1 984 838 L 915 838  A 3 3 0 0 1 912 835 L 912 494  Z " fill-rule="nonzero" fill="#ff3399" stroke="none" fill-opacity="0.0980392156862745" />
    <path d="M 911.5 494  A 3.5 3.5 0 0 1 915 490.5 L 984 490.5  A 3.5 3.5 0 0 1 987.5 494 L 987.5 835  A 3.5 3.5 0 0 1 984 838.5 L 915 838.5  A 3.5 3.5 0 0 1 911.5 835 L 911.5 494  Z " stroke-width="1" stroke-dasharray="9,4" stroke="#ff3399" fill="none" stroke-dashoffset="0.5" />
  </g>
</svg>