<?xml version="1.0" encoding="utf-8"?>
<svg version="1.1" xmlns:xlink="http://www.w3.org/1999/xlink" width="132px" height="188px" xmlns="http://www.w3.org/2000/svg">
  <defs>
    <filter x="323px" y="1550px" width="132px" height="188px" filterUnits="userSpaceOnUse" id="filter302">
      <feOffset dx="-1" dy="0" in="SourceAlpha" result="shadowOffsetInner" />
      <feGaussianBlur stdDeviation="4.5" in="shadowOffsetInner" result="shadowGaussian" />
      <feComposite in2="shadowGaussian" operator="atop" in="SourceAlpha" result="shadowComposite" />
      <feColorMatrix type="matrix" values="0 0 0 0 0  0 0 0 0 0  0 0 0 0 0  0 0 0 0.101960784313725 0  " in="shadowComposite" />
    </filter>
    <g id="widget303">
      <path d="M 333 1559  L 447 1559  L 447 1729  L 333 1729  L 333 1559  " fill-rule="nonzero" fill="#cccccc" stroke="none" />
      <path d="M 341 1567  L 439 1567  L 439 1721  L 341 1721  L 341 1567  " fill-rule="nonzero" fill="#ffffff" stroke="none" />
      <path d="M 400.83 1601.6  C 396.042 1601.6  392.28 1597.838  392.28 1593.05  C 392.28 1588.262  396.042 1584.5  400.83 1584.5  C 405.618 1584.5  409.38 1588.262  409.38 1593.05  C 409.38 1597.838  405.618 1601.6  400.83 1601.6  " fill-rule="nonzero" fill="#cccccc" stroke="none" />
      <path d="M 344 1718  L 344 1636.6  L 367 1599.6  L 399.2 1629.2  L 417.6 1621.8  L 436 1629.2  L 436 1718  L 344 1718  " fill-rule="nonzero" fill="#169bd5" stroke="none" />
    </g>
  </defs>
  <g transform="matrix(1 0 0 1 -323 -1550 )">
    <use xlink:href="#widget303" filter="url(#filter302)" />
    <use xlink:href="#widget303" />
  </g>
</svg>