<?xml version="1.0" encoding="utf-8"?>
<svg version="1.1" xmlns:xlink="http://www.w3.org/1999/xlink" width="89px" height="32px" xmlns="http://www.w3.org/2000/svg">
  <g transform="matrix(1 0 0 1 -1826 -138 )">
    <path d="M 1827 142  A 3 3 0 0 1 1830 139 L 1911 139  A 3 3 0 0 1 1914 142 L 1914 166  A 3 3 0 0 1 1911 169 L 1830 169  A 3 3 0 0 1 1827 166 L 1827 142  Z " fill-rule="nonzero" fill="#ffffff" stroke="none" />
    <path d="M 1826.5 142  A 3.5 3.5 0 0 1 1830 138.5 L 1911 138.5  A 3.5 3.5 0 0 1 1914.5 142 L 1914.5 166  A 3.5 3.5 0 0 1 1911 169.5 L 1830 169.5  A 3.5 3.5 0 0 1 1826.5 166 L 1826.5 142  Z " stroke-width="1" stroke-dasharray="3,1" stroke="#d9d9d9" fill="none" stroke-dashoffset="0.5" />
  </g>
</svg>