<?xml version="1.0" encoding="utf-8"?>
<svg version="1.1" xmlns:xlink="http://www.w3.org/1999/xlink" width="480px" height="32px" xmlns="http://www.w3.org/2000/svg">
  <g transform="matrix(1 0 0 1 -1628 -186 )">
    <path d="M 1629 190  A 3 3 0 0 1 1632 187 L 2104 187  A 3 3 0 0 1 2107 190 L 2107 214  A 3 3 0 0 1 2104 217 L 1632 217  A 3 3 0 0 1 1629 214 L 1629 190  Z " fill-rule="nonzero" fill="#ffffff" stroke="none" />
    <path d="M 1628.5 190  A 3.5 3.5 0 0 1 1632 186.5 L 2104 186.5  A 3.5 3.5 0 0 1 2107.5 190 L 2107.5 214  A 3.5 3.5 0 0 1 2104 217.5 L 1632 217.5  A 3.5 3.5 0 0 1 1628.5 214 L 1628.5 190  Z " stroke-width="1" stroke-dasharray="9,4" stroke="#d9d9d9" fill="none" stroke-dashoffset="0.5" />
  </g>
</svg>