<?xml version="1.0" encoding="utf-8"?>
<svg version="1.1" xmlns:xlink="http://www.w3.org/1999/xlink" width="200px" height="42px" xmlns="http://www.w3.org/2000/svg">
  <g transform="matrix(1 0 0 1 -82 -1359 )">
    <path d="M 83 1363  A 3 3 0 0 1 86 1360 L 278 1360  A 3 3 0 0 1 281 1363 L 281 1397  A 3 3 0 0 1 278 1400 L 86 1400  A 3 3 0 0 1 83 1397 L 83 1363  Z " fill-rule="nonzero" fill="#ff3399" stroke="none" fill-opacity="0.0980392156862745" />
    <path d="M 82.5 1363  A 3.5 3.5 0 0 1 86 1359.5 L 278 1359.5  A 3.5 3.5 0 0 1 281.5 1363 L 281.5 1397  A 3.5 3.5 0 0 1 278 1400.5 L 86 1400.5  A 3.5 3.5 0 0 1 82.5 1397 L 82.5 1363  Z " stroke-width="1" stroke-dasharray="9,4" stroke="#ff3399" fill="none" stroke-dashoffset="0.5" />
  </g>
</svg>