<?xml version="1.0" encoding="utf-8"?>
<svg version="1.1" xmlns:xlink="http://www.w3.org/1999/xlink" width="534px" height="42px" xmlns="http://www.w3.org/2000/svg">
  <g transform="matrix(1 0 0 1 -88 -1469 )">
    <path d="M 89 1473  A 3 3 0 0 1 92 1470 L 618 1470  A 3 3 0 0 1 621 1473 L 621 1507  A 3 3 0 0 1 618 1510 L 92 1510  A 3 3 0 0 1 89 1507 L 89 1473  Z " fill-rule="nonzero" fill="#ff3399" stroke="none" fill-opacity="0.0980392156862745" />
    <path d="M 88.5 1473  A 3.5 3.5 0 0 1 92 1469.5 L 618 1469.5  A 3.5 3.5 0 0 1 621.5 1473 L 621.5 1507  A 3.5 3.5 0 0 1 618 1510.5 L 92 1510.5  A 3.5 3.5 0 0 1 88.5 1507 L 88.5 1473  Z " stroke-width="1" stroke-dasharray="9,4" stroke="#ff3399" fill="none" stroke-dashoffset="0.5" />
  </g>
</svg>