<?xml version="1.0" encoding="utf-8"?>
<svg version="1.1" xmlns:xlink="http://www.w3.org/1999/xlink" width="18px" height="18px" preserveAspectRatio="xMinYMid meet" viewBox="694 1360  18 16" xmlns="http://www.w3.org/2000/svg">
  <path d="M 701 1368.5  L 746 1368.5  A 4 4 0 0 0 750.5 1364.5 A 4 4 0 0 1 754.5 1360.5 L 787 1360.5  A 5 5 0 0 1 792.5 1365.5 L 792.5 1374  " stroke-width="1" stroke="#ff3399" fill="none" />
  <path d="M 703 1365.5  A 3 3 0 0 0 700 1368.5 A 3 3 0 0 0 703 1371.5 A 3 3 0 0 0 706 1368.5 A 3 3 0 0 0 703 1365.5 Z " fill-rule="nonzero" fill="#ff3399" stroke="none" />
</svg>