<?xml version="1.0" encoding="utf-8"?>
<svg version="1.1" xmlns:xlink="http://www.w3.org/1999/xlink" width="256px" height="42px" xmlns="http://www.w3.org/2000/svg">
  <g transform="matrix(1 0 0 1 -82 -1559 )">
    <path d="M 83 1563  A 3 3 0 0 1 86 1560 L 334 1560  A 3 3 0 0 1 337 1563 L 337 1597  A 3 3 0 0 1 334 1600 L 86 1600  A 3 3 0 0 1 83 1597 L 83 1563  Z " fill-rule="nonzero" fill="#ff3399" stroke="none" fill-opacity="0.0980392156862745" />
    <path d="M 82.5 1563  A 3.5 3.5 0 0 1 86 1559.5 L 334 1559.5  A 3.5 3.5 0 0 1 337.5 1563 L 337.5 1597  A 3.5 3.5 0 0 1 334 1600.5 L 86 1600.5  A 3.5 3.5 0 0 1 82.5 1597 L 82.5 1563  Z " stroke-width="1" stroke-dasharray="9,4" stroke="#ff3399" fill="none" stroke-dashoffset="0.5" />
  </g>
</svg>