<?xml version="1.0" encoding="utf-8"?>
<svg version="1.1" xmlns:xlink="http://www.w3.org/1999/xlink" width="37px" height="37px" xmlns="http://www.w3.org/2000/svg">
  <g transform="matrix(1 0 0 1 -217 -322 )">
    <path d="M 235.5 322  C 245.86 322  254 330.14  254 340.5  C 254 350.86  245.86 359  235.5 359  C 225.14 359  217 350.86  217 340.5  C 217 330.14  225.14 322  235.5 322  Z " fill-rule="nonzero" fill="#eeeeee" stroke="none" />
    <path d="M 235.5 322.5  C 245.58 322.5  253.5 330.42  253.5 340.5  C 253.5 350.58  245.58 358.5  235.5 358.5  C 225.42 358.5  217.5 350.58  217.5 340.5  C 217.5 330.42  225.42 322.5  235.5 322.5  Z " stroke-width="1" stroke="#f2f2f2" fill="none" />
  </g>
</svg>