<?xml version="1.0" encoding="utf-8"?>
<svg version="1.1" xmlns:xlink="http://www.w3.org/1999/xlink" width="37px" height="37px" xmlns="http://www.w3.org/2000/svg">
  <g transform="matrix(1 0 0 1 -201 -290 )">
    <path d="M 219.5 290  C 229.86 290  238 298.14  238 308.5  C 238 318.86  229.86 327  219.5 327  C 209.14 327  201 318.86  201 308.5  C 201 298.14  209.14 290  219.5 290  Z " fill-rule="nonzero" fill="#eeeeee" stroke="none" />
    <path d="M 219.5 290.5  C 229.58 290.5  237.5 298.42  237.5 308.5  C 237.5 318.58  229.58 326.5  219.5 326.5  C 209.42 326.5  201.5 318.58  201.5 308.5  C 201.5 298.42  209.42 290.5  219.5 290.5  Z " stroke-width="1" stroke="#f2f2f2" fill="none" />
  </g>
</svg>