<?xml version="1.0" encoding="utf-8"?>
<svg version="1.1" xmlns:xlink="http://www.w3.org/1999/xlink" width="38px" height="38px" xmlns="http://www.w3.org/2000/svg">
  <g transform="matrix(1 0 0 1 -1143 -591 )">
    <path d="M 1162 591  C 1172.64 591  1181 599.36  1181 610  C 1181 620.64  1172.64 629  1162 629  C 1151.36 629  1143 620.64  1143 610  C 1143 599.36  1151.36 591  1162 591  Z " fill-rule="nonzero" fill="#ffffff" stroke="none" />
    <path d="M 1162 591.5  C 1172.36 591.5  1180.5 599.64  1180.5 610  C 1180.5 620.36  1172.36 628.5  1162 628.5  C 1151.64 628.5  1143.5 620.36  1143.5 610  C 1143.5 599.64  1151.64 591.5  1162 591.5  Z " stroke-width="1" stroke="#797979" fill="none" />
  </g>
</svg>