<?xml version="1.0" encoding="utf-8"?>
<svg version="1.1" xmlns:xlink="http://www.w3.org/1999/xlink" width="38px" height="38px" xmlns="http://www.w3.org/2000/svg">
  <g transform="matrix(1 0 0 1 -50 -2019 )">
    <path d="M 69 2019  C 79.64 2019  88 2027.36  88 2038  C 88 2048.64  79.64 2057  69 2057  C 58.36 2057  50 2048.64  50 2038  C 50 2027.36  58.36 2019  69 2019  Z " fill-rule="nonzero" fill="#ffffff" stroke="none" />
    <path d="M 69 2019.5  C 79.36 2019.5  87.5 2027.64  87.5 2038  C 87.5 2048.36  79.36 2056.5  69 2056.5  C 58.64 2056.5  50.5 2048.36  50.5 2038  C 50.5 2027.64  58.64 2019.5  69 2019.5  Z " stroke-width="1" stroke="#797979" fill="none" />
  </g>
</svg>