<?xml version="1.0" encoding="utf-8"?>
<svg version="1.1" xmlns:xlink="http://www.w3.org/1999/xlink" width="80px" height="28px" xmlns="http://www.w3.org/2000/svg">
  <g transform="matrix(1 0 0 1 -794 -485 )">
    <path d="M 795 491  A 5 5 0 0 1 800 486 L 868 486  A 5 5 0 0 1 873 491 L 873 507  A 5 5 0 0 1 868 512 L 800 512  A 5 5 0 0 1 795 507 L 795 491  Z " fill-rule="nonzero" fill="#ffffff" stroke="none" />
    <path d="M 794.5 491  A 5.5 5.5 0 0 1 800 485.5 L 868 485.5  A 5.5 5.5 0 0 1 873.5 491 L 873.5 507  A 5.5 5.5 0 0 1 868 512.5 L 800 512.5  A 5.5 5.5 0 0 1 794.5 507 L 794.5 491  Z " stroke-width="1" stroke="#797979" fill="none" stroke-opacity="0.388235294117647" />
  </g>
</svg>