<?xml version="1.0" encoding="utf-8"?>
<svg version="1.1" xmlns:xlink="http://www.w3.org/1999/xlink" width="87px" height="28px" xmlns="http://www.w3.org/2000/svg">
  <g transform="matrix(1 0 0 1 -817 -2394 )">
    <path d="M 818 2400  A 5 5 0 0 1 823 2395 L 898 2395  A 5 5 0 0 1 903 2400 L 903 2416  A 5 5 0 0 1 898 2421 L 823 2421  A 5 5 0 0 1 818 2416 L 818 2400  Z " fill-rule="nonzero" fill="#ffffff" stroke="none" />
    <path d="M 817.5 2400  A 5.5 5.5 0 0 1 823 2394.5 L 898 2394.5  A 5.5 5.5 0 0 1 903.5 2400 L 903.5 2416  A 5.5 5.5 0 0 1 898 2421.5 L 823 2421.5  A 5.5 5.5 0 0 1 817.5 2416 L 817.5 2400  Z " stroke-width="1" stroke="#797979" fill="none" stroke-opacity="0.388235294117647" />
  </g>
</svg>