<?xml version="1.0" encoding="utf-8"?>
<svg version="1.1" xmlns:xlink="http://www.w3.org/1999/xlink" width="38px" height="38px" xmlns="http://www.w3.org/2000/svg">
  <g transform="matrix(1 0 0 1 -90 -2057 )">
    <path d="M 109 2057  C 119.64 2057  128 2065.36  128 2076  C 128 2086.64  119.64 2095  109 2095  C 98.36 2095  90 2086.64  90 2076  C 90 2065.36  98.36 2057  109 2057  Z " fill-rule="nonzero" fill="#ffffff" stroke="none" />
    <path d="M 109 2057.5  C 119.36 2057.5  127.5 2065.64  127.5 2076  C 127.5 2086.36  119.36 2094.5  109 2094.5  C 98.64 2094.5  90.5 2086.36  90.5 2076  C 90.5 2065.64  98.64 2057.5  109 2057.5  Z " stroke-width="1" stroke="#797979" fill="none" />
  </g>
</svg>