<?xml version="1.0" encoding="utf-8"?>
<svg version="1.1" xmlns:xlink="http://www.w3.org/1999/xlink" width="951px" height="63px" xmlns="http://www.w3.org/2000/svg">
  <g transform="matrix(1 0 0 1 -317 -375 )">
    <path d="M 318 379  A 3 3 0 0 1 321 376 L 1264 376  A 3 3 0 0 1 1267 379 L 1267 434  A 3 3 0 0 1 1264 437 L 321 437  A 3 3 0 0 1 318 434 L 318 379  Z " fill-rule="nonzero" fill="#ff3399" stroke="none" fill-opacity="0" />
    <path d="M 317.5 379  A 3.5 3.5 0 0 1 321 375.5 L 1264 375.5  A 3.5 3.5 0 0 1 1267.5 379 L 1267.5 434  A 3.5 3.5 0 0 1 1264 437.5 L 321 437.5  A 3.5 3.5 0 0 1 317.5 434 L 317.5 379  Z " stroke-width="1" stroke-dasharray="9,4" stroke="#ff3399" fill="none" stroke-dashoffset="0.5" />
  </g>
</svg>