<?xml version="1.0" encoding="utf-8"?>
<svg version="1.1" xmlns:xlink="http://www.w3.org/1999/xlink" width="914px" height="110px" xmlns="http://www.w3.org/2000/svg">
  <g transform="matrix(1 0 0 1 -325 -207 )">
    <path d="M 326 211  A 3 3 0 0 1 329 208 L 1235 208  A 3 3 0 0 1 1238 211 L 1238 313  A 3 3 0 0 1 1235 316 L 329 316  A 3 3 0 0 1 326 313 L 326 211  Z " fill-rule="nonzero" fill="#ff3399" stroke="none" fill-opacity="0" />
    <path d="M 325.5 211  A 3.5 3.5 0 0 1 329 207.5 L 1235 207.5  A 3.5 3.5 0 0 1 1238.5 211 L 1238.5 313  A 3.5 3.5 0 0 1 1235 316.5 L 329 316.5  A 3.5 3.5 0 0 1 325.5 313 L 325.5 211  Z " stroke-width="1" stroke-dasharray="9,4" stroke="#ff3399" fill="none" stroke-dashoffset="0.5" />
  </g>
</svg>