<?xml version="1.0" encoding="utf-8"?>
<svg version="1.1" xmlns:xlink="http://www.w3.org/1999/xlink" width="908px" height="55px" xmlns="http://www.w3.org/2000/svg">
  <g transform="matrix(1 0 0 1 -586 -135 )">
    <path d="M 587 139  A 3 3 0 0 1 590 136 L 1490 136  A 3 3 0 0 1 1493 139 L 1493 186  A 3 3 0 0 1 1490 189 L 590 189  A 3 3 0 0 1 587 186 L 587 139  Z " fill-rule="nonzero" fill="#ff3399" stroke="none" fill-opacity="0.0980392156862745" />
    <path d="M 586.5 139  A 3.5 3.5 0 0 1 590 135.5 L 1490 135.5  A 3.5 3.5 0 0 1 1493.5 139 L 1493.5 186  A 3.5 3.5 0 0 1 1490 189.5 L 590 189.5  A 3.5 3.5 0 0 1 586.5 186 L 586.5 139  Z " stroke-width="1" stroke-dasharray="9,4" stroke="#ff3399" fill="none" stroke-dashoffset="0.5" />
  </g>
</svg>