<?xml version="1.0" encoding="utf-8"?>
<svg version="1.1" xmlns:xlink="http://www.w3.org/1999/xlink" width="940px" height="56px" xmlns="http://www.w3.org/2000/svg">
  <g transform="matrix(1 0 0 1 -589 -394 )">
    <path d="M 590 398  A 3 3 0 0 1 593 395 L 1525 395  A 3 3 0 0 1 1528 398 L 1528 446  A 3 3 0 0 1 1525 449 L 593 449  A 3 3 0 0 1 590 446 L 590 398  Z " fill-rule="nonzero" fill="#ff3399" stroke="none" fill-opacity="0.0980392156862745" />
    <path d="M 589.5 398  A 3.5 3.5 0 0 1 593 394.5 L 1525 394.5  A 3.5 3.5 0 0 1 1528.5 398 L 1528.5 446  A 3.5 3.5 0 0 1 1525 449.5 L 593 449.5  A 3.5 3.5 0 0 1 589.5 446 L 589.5 398  Z " stroke-width="1" stroke-dasharray="9,4" stroke="#ff3399" fill="none" stroke-dashoffset="0.5" />
  </g>
</svg>