<?xml version="1.0" encoding="utf-8"?>
<svg version="1.1" xmlns:xlink="http://www.w3.org/1999/xlink" width="14px" height="14px" xmlns="http://www.w3.org/2000/svg">
  <g transform="matrix(1 0 0 1 -1710 -295 )">
    <path d="M 1717 299  C 1718.68 299  1720 300.32  1720 302  C 1720 303.68  1718.68 305  1717 305  C 1715.32 305  1714 303.68  1714 302  C 1714 300.32  1715.32 299  1717 299  Z " fill-rule="nonzero" fill="#ffffff" stroke="none" />
    <path d="M 1717 297.5  C 1719.52 297.5  1721.5 299.48  1721.5 302  C 1721.5 304.52  1719.52 306.5  1717 306.5  C 1714.48 306.5  1712.5 304.52  1712.5 302  C 1712.5 299.48  1714.48 297.5  1717 297.5  Z " stroke-width="5" stroke="#409eff" fill="none" />
  </g>
</svg>