<?xml version="1.0" encoding="utf-8"?>
<svg version="1.1" xmlns:xlink="http://www.w3.org/1999/xlink" width="438px" height="192px" xmlns="http://www.w3.org/2000/svg">
  <g transform="matrix(1 0 0 1 -383 -1795 )">
    <path d="M 384 1801  A 5 5 0 0 1 389 1796 L 815 1796  A 5 5 0 0 1 820 1801 L 820 1981  A 5 5 0 0 1 815 1986 L 389 1986  A 5 5 0 0 1 384 1981 L 384 1801  Z " fill-rule="nonzero" fill="#000000" stroke="none" fill-opacity="0.0196078431372549" />
    <path d="M 383.5 1801  A 5.5 5.5 0 0 1 389 1795.5 L 815 1795.5  A 5.5 5.5 0 0 1 820.5 1801 L 820.5 1981  A 5.5 5.5 0 0 1 815 1986.5 L 389 1986.5  A 5.5 5.5 0 0 1 383.5 1981 L 383.5 1801  Z " stroke-width="1" stroke-dasharray="9,4" stroke="#108ee9" fill="none" stroke-dashoffset="0.5" />
  </g>
</svg>