<?xml version="1.0" encoding="utf-8"?>
<svg version="1.1" xmlns:xlink="http://www.w3.org/1999/xlink" width="20px" height="21px" preserveAspectRatio="xMidYMin meet" viewBox="429 427  18 21" xmlns="http://www.w3.org/2000/svg">
  <defs>
    <mask fill="white" id="clip675">
      <path d="M 388.5 469  L 487.5 469  L 487.5 497  L 388.5 497  Z M 388.5 424  L 487.5 424  L 487.5 550  L 388.5 550  Z " fill-rule="evenodd" />
    </mask>
  </defs>
  <path d="M 438 469  L 438 440  M 438 497  L 438 521  " stroke-width="2" stroke="#0033ff" fill="none" />
  <path d="M 438 434  A 3.5 3.5 0 0 0 434.5 437.5 A 3.5 3.5 0 0 0 438 441 A 3.5 3.5 0 0 0 441.5 437.5 A 3.5 3.5 0 0 0 438 434 Z M 438 436  A 1.5 1.5 0 0 1 439.5 437.5 A 1.5 1.5 0 0 1 438 439 A 1.5 1.5 0 0 1 436.5 437.5 A 1.5 1.5 0 0 1 438 436 Z M 428.5 519  L 438 533  L 447.5 519  L 428.5 519  Z " fill-rule="nonzero" fill="#0033ff" stroke="none" mask="url(#clip675)" />
</svg>