<?xml version="1.0" encoding="utf-8"?>
<svg version="1.1" xmlns:xlink="http://www.w3.org/1999/xlink" width="10px" height="38px" preserveAspectRatio="xMidYMin meet" viewBox="948 204  8 38" xmlns="http://www.w3.org/2000/svg">
  <path d="M 668 183  L 668 204  A 5 5 0 0 0 673 209 L 947 209  A 5 5 0 0 1 952 214 L 952 230  " stroke-width="2" stroke="#0033ff" fill="none" />
  <path d="M 668 177  A 3.5 3.5 0 0 0 664.5 180.5 A 3.5 3.5 0 0 0 668 184 A 3.5 3.5 0 0 0 671.5 180.5 A 3.5 3.5 0 0 0 668 177 Z M 668 179  A 1.5 1.5 0 0 1 669.5 180.5 A 1.5 1.5 0 0 1 668 182 A 1.5 1.5 0 0 1 666.5 180.5 A 1.5 1.5 0 0 1 668 179 Z M 942.5 228  L 952 242  L 961.5 228  L 942.5 228  Z " fill-rule="nonzero" fill="#0033ff" stroke="none" />
</svg>