<?xml version="1.0" encoding="utf-8"?>
<svg version="1.1" xmlns:xlink="http://www.w3.org/1999/xlink" width="34px" height="34px" preserveAspectRatio="xMinYMid meet" viewBox="935 511  34 32" xmlns="http://www.w3.org/2000/svg">
  <defs>
    <mask fill="white" id="clip355">
      <path d="M 902.5 465  L 1001.5 465  L 1001.5 493  L 902.5 493  Z M 902.5 414  L 1001.5 414  L 1001.5 550  L 902.5 550  Z " fill-rule="evenodd" />
    </mask>
  </defs>
  <path d="M 952 465  L 952 430  M 952 493  L 952 521  " stroke-width="2" stroke="#0033ff" fill="none" />
  <path d="M 952 424  A 3.5 3.5 0 0 0 948.5 427.5 A 3.5 3.5 0 0 0 952 431 A 3.5 3.5 0 0 0 955.5 427.5 A 3.5 3.5 0 0 0 952 424 Z M 952 426  A 1.5 1.5 0 0 1 953.5 427.5 A 1.5 1.5 0 0 1 952 429 A 1.5 1.5 0 0 1 950.5 427.5 A 1.5 1.5 0 0 1 952 426 Z M 942.5 519  L 952 533  L 961.5 519  L 942.5 519  Z " fill-rule="nonzero" fill="#0033ff" stroke="none" mask="url(#clip355)" />
</svg>