<?xml version="1.0" encoding="utf-8"?>
<svg version="1.1" xmlns:xlink="http://www.w3.org/1999/xlink" width="34px" height="34px" preserveAspectRatio="xMinYMid meet" viewBox="421 732  34 32" xmlns="http://www.w3.org/2000/svg">
  <path d="M 438 707  L 438 743  " stroke-width="2" stroke-dasharray="18,8" stroke="#0033ff" fill="none" />
  <path d="M 438 701  A 3.5 3.5 0 0 0 434.5 704.5 A 3.5 3.5 0 0 0 438 708 A 3.5 3.5 0 0 0 441.5 704.5 A 3.5 3.5 0 0 0 438 701 Z M 438 703  A 1.5 1.5 0 0 1 439.5 704.5 A 1.5 1.5 0 0 1 438 706 A 1.5 1.5 0 0 1 436.5 704.5 A 1.5 1.5 0 0 1 438 703 Z M 428.5 741  L 438 755  L 447.5 741  L 428.5 741  Z " fill-rule="nonzero" fill="#0033ff" stroke="none" />
</svg>