<?xml version="1.0" encoding="utf-8"?>
<svg version="1.1" xmlns:xlink="http://www.w3.org/1999/xlink" width="34px" height="34px" preserveAspectRatio="xMinYMid meet" viewBox="421 353  34 32" xmlns="http://www.w3.org/2000/svg">
  <path d="M 438 307  L 438 363  " stroke-width="2" stroke="#0033ff" fill="none" />
  <path d="M 438 301  A 3.5 3.5 0 0 0 434.5 304.5 A 3.5 3.5 0 0 0 438 308 A 3.5 3.5 0 0 0 441.5 304.5 A 3.5 3.5 0 0 0 438 301 Z M 438 303  A 1.5 1.5 0 0 1 439.5 304.5 A 1.5 1.5 0 0 1 438 306 A 1.5 1.5 0 0 1 436.5 304.5 A 1.5 1.5 0 0 1 438 303 Z M 428.5 361  L 438 375  L 447.5 361  L 428.5 361  Z " fill-rule="nonzero" fill="#0033ff" stroke="none" />
</svg>