<?xml version="1.0" encoding="utf-8"?>
<svg version="1.1" xmlns:xlink="http://www.w3.org/1999/xlink" width="34px" height="34px" preserveAspectRatio="xMinYMid meet" viewBox="935 732  34 32" xmlns="http://www.w3.org/2000/svg">
  <path d="M 952 707  L 952 742  " stroke-width="2" stroke="#0033ff" fill="none" />
  <path d="M 952 701  A 3.5 3.5 0 0 0 948.5 704.5 A 3.5 3.5 0 0 0 952 708 A 3.5 3.5 0 0 0 955.5 704.5 A 3.5 3.5 0 0 0 952 701 Z M 952 703  A 1.5 1.5 0 0 1 953.5 704.5 A 1.5 1.5 0 0 1 952 706 A 1.5 1.5 0 0 1 950.5 704.5 A 1.5 1.5 0 0 1 952 703 Z M 942.5 740  L 952 754  L 961.5 740  L 942.5 740  Z " fill-rule="nonzero" fill="#0033ff" stroke="none" />
</svg>