<?xml version="1.0" encoding="utf-8"?>
<svg version="1.1" xmlns:xlink="http://www.w3.org/1999/xlink" width="20px" height="21px" preserveAspectRatio="xMidYMin meet" viewBox="659 170  18 21" xmlns="http://www.w3.org/2000/svg">
  <path d="M 668 183  L 668 204  A 5 5 0 0 1 663 209 L 443 209  A 5 5 0 0 0 438 214 L 438 230  " stroke-width="2" stroke="#0033ff" fill="none" />
  <path d="M 668 177  A 3.5 3.5 0 0 0 664.5 180.5 A 3.5 3.5 0 0 0 668 184 A 3.5 3.5 0 0 0 671.5 180.5 A 3.5 3.5 0 0 0 668 177 Z M 668 179  A 1.5 1.5 0 0 1 669.5 180.5 A 1.5 1.5 0 0 1 668 182 A 1.5 1.5 0 0 1 666.5 180.5 A 1.5 1.5 0 0 1 668 179 Z M 428.5 228  L 438 242  L 447.5 228  L 428.5 228  Z " fill-rule="nonzero" fill="#0033ff" stroke="none" />
</svg>