<?xml version="1.0" encoding="utf-8"?>
<svg version="1.1" xmlns:xlink="http://www.w3.org/1999/xlink" width="20px" height="21px" preserveAspectRatio="xMidYMin meet" viewBox="429 585  18 21" xmlns="http://www.w3.org/2000/svg">
  <path d="M 438 598  L 438 630  " stroke-width="2" stroke-dasharray="18,8" stroke="#0033ff" fill="none" />
  <path d="M 438 592  A 3.5 3.5 0 0 0 434.5 595.5 A 3.5 3.5 0 0 0 438 599 A 3.5 3.5 0 0 0 441.5 595.5 A 3.5 3.5 0 0 0 438 592 Z M 438 594  A 1.5 1.5 0 0 1 439.5 595.5 A 1.5 1.5 0 0 1 438 597 A 1.5 1.5 0 0 1 436.5 595.5 A 1.5 1.5 0 0 1 438 594 Z M 428.5 628  L 438 642  L 447.5 628  L 428.5 628  Z " fill-rule="nonzero" fill="#0033ff" stroke="none" />
</svg>