<?xml version="1.0" encoding="utf-8"?>
<svg version="1.1" xmlns:xlink="http://www.w3.org/1999/xlink" width="34px" height="34px" preserveAspectRatio="xMinYMid meet" viewBox="935 619  34 32" xmlns="http://www.w3.org/2000/svg">
  <path d="M 952 598  L 952 629  " stroke-width="2" stroke="#0033ff" fill="none" />
  <path d="M 952 592  A 3.5 3.5 0 0 0 948.5 595.5 A 3.5 3.5 0 0 0 952 599 A 3.5 3.5 0 0 0 955.5 595.5 A 3.5 3.5 0 0 0 952 592 Z M 952 594  A 1.5 1.5 0 0 1 953.5 595.5 A 1.5 1.5 0 0 1 952 597 A 1.5 1.5 0 0 1 950.5 595.5 A 1.5 1.5 0 0 1 952 594 Z M 942.5 627  L 952 641  L 961.5 627  L 942.5 627  Z " fill-rule="nonzero" fill="#0033ff" stroke="none" />
</svg>