<?xml version="1.0" encoding="utf-8"?>
<svg version="1.1" xmlns:xlink="http://www.w3.org/1999/xlink" width="118px" height="81px" xmlns="http://www.w3.org/2000/svg">
  <g transform="matrix(1 0 0 1 -605 -455 )">
    <path d="M 605 455  L 723 455  L 723 536  L 605 536  L 605 455  " fill-rule="nonzero" fill="#cccccc" stroke="none" />
    <path d="M 611 461  L 717 461  L 717 530  L 611 530  L 611 461  " fill-rule="nonzero" fill="#ffffff" stroke="none" />
    <path d="M 672.435 479.3  C 669.033 479.3  666.36 476.627  666.36 473.225  C 666.36 469.823  669.033 467.15  672.435 467.15  C 675.837 467.15  678.51 469.823  678.51 473.225  C 678.51 476.627  675.837 479.3  672.435 479.3  " fill-rule="nonzero" fill="#cccccc" stroke="none" />
    <path d="M 613 528  L 613 492.25  L 638.5 476  L 674.2 501.228813559322  L 694.6 485.75  L 715 501.228813559322  L 715 528  L 613 528  " fill-rule="nonzero" fill="#169bd5" stroke="none" />
  </g>
</svg>