<?xml version="1.0" encoding="utf-8"?>
<svg version="1.1" xmlns:xlink="http://www.w3.org/1999/xlink" width="49px" height="32px" xmlns="http://www.w3.org/2000/svg">
  <g transform="matrix(1 0 0 1 -356 -502 )">
    <path d="M 356.5 506  A 3.5 3.5 0 0 1 360 502.5 L 401 502.5  A 3.5 3.5 0 0 1 404.5 506 L 404.5 530  A 3.5 3.5 0 0 1 401 533.5 L 360 533.5  A 3.5 3.5 0 0 1 356.5 530 L 356.5 506  Z " fill-rule="nonzero" fill="#0099ff" stroke="none" fill-opacity="0.0980392156862745" />
    <path d="M 356.5 506  A 3.5 3.5 0 0 1 360 502.5 L 401 502.5  A 3.5 3.5 0 0 1 404.5 506 L 404.5 530  A 3.5 3.5 0 0 1 401 533.5 L 360 533.5  A 3.5 3.5 0 0 1 356.5 530 L 356.5 506  Z " stroke-width="1" stroke="#a7d2f9" fill="none" />
  </g>
</svg>