<?xml version="1.0" encoding="utf-8"?>
<svg version="1.1" xmlns:xlink="http://www.w3.org/1999/xlink" width="49px" height="32px" xmlns="http://www.w3.org/2000/svg">
  <g transform="matrix(1 0 0 1 -147 -17 )">
    <path d="M 148 21  A 3 3 0 0 1 151 18 L 192 18  A 3 3 0 0 1 195 21 L 195 45  A 3 3 0 0 1 192 48 L 151 48  A 3 3 0 0 1 148 45 L 148 21  Z " fill-rule="nonzero" fill="#67c23a" stroke="none" fill-opacity="0.0980392156862745" />
    <path d="M 147.5 21  A 3.5 3.5 0 0 1 151 17.5 L 192 17.5  A 3.5 3.5 0 0 1 195.5 21 L 195.5 45  A 3.5 3.5 0 0 1 192 48.5 L 151 48.5  A 3.5 3.5 0 0 1 147.5 45 L 147.5 21  Z " stroke-width="1" stroke="#67c23a" fill="none" stroke-opacity="0.2" />
  </g>
</svg>