<?xml version="1.0" encoding="utf-8"?>
<svg version="1.1" xmlns:xlink="http://www.w3.org/1999/xlink" width="49px" height="32px" xmlns="http://www.w3.org/2000/svg">
  <g transform="matrix(1 0 0 1 -147 3 )">
    <path d="M 148 1  A 3 3 0 0 1 151 -2 L 192 -2  A 3 3 0 0 1 195 1 L 195 25  A 3 3 0 0 1 192 28 L 151 28  A 3 3 0 0 1 148 25 L 148 1  Z " fill-rule="nonzero" fill="#67c23a" stroke="none" fill-opacity="0.0980392156862745" />
    <path d="M 147.5 1  A 3.5 3.5 0 0 1 151 -2.5 L 192 -2.5  A 3.5 3.5 0 0 1 195.5 1 L 195.5 25  A 3.5 3.5 0 0 1 192 28.5 L 151 28.5  A 3.5 3.5 0 0 1 147.5 25 L 147.5 1  Z " stroke-width="1" stroke="#67c23a" fill="none" stroke-opacity="0.2" />
  </g>
</svg>