<?xml version="1.0" encoding="utf-8"?>
<svg version="1.1" xmlns:xlink="http://www.w3.org/1999/xlink" width="49px" height="32px" xmlns="http://www.w3.org/2000/svg">
  <g transform="matrix(1 0 0 1 -356 -502 )">
    <path d="M 357 506  A 3 3 0 0 1 360 503 L 401 503  A 3 3 0 0 1 404 506 L 404 530  A 3 3 0 0 1 401 533 L 360 533  A 3 3 0 0 1 357 530 L 357 506  Z " fill-rule="nonzero" fill="#f56c6c" stroke="none" fill-opacity="0.0980392156862745" />
    <path d="M 356.5 506  A 3.5 3.5 0 0 1 360 502.5 L 401 502.5  A 3.5 3.5 0 0 1 404.5 506 L 404.5 530  A 3.5 3.5 0 0 1 401 533.5 L 360 533.5  A 3.5 3.5 0 0 1 356.5 530 L 356.5 506  Z " stroke-width="1" stroke="#f56c6c" fill="none" stroke-opacity="0.2" />
  </g>
</svg>