<?xml version="1.0" encoding="utf-8"?>
<svg version="1.1" xmlns:xlink="http://www.w3.org/1999/xlink" width="28px" height="28px" xmlns="http://www.w3.org/2000/svg">
  <g transform="matrix(1 0 0 1 -3837 -7564 )">
    <path d="M 3851 7565  C 3858.28 7565  3864 7570.72  3864 7578  C 3864 7585.28  3858.28 7591  3851 7591  C 3843.72 7591  3838 7585.28  3838 7578  C 3838 7570.72  3843.72 7565  3851 7565  Z " fill-rule="nonzero" fill="#ffffff" stroke="none" fill-opacity="0" />
    <path d="M 3851 7565  C 3858.28 7565  3864 7570.72  3864 7578  C 3864 7585.28  3858.28 7591  3851 7591  C 3843.72 7591  3838 7585.28  3838 7578  C 3838 7570.72  3843.72 7565  3851 7565  Z " stroke-width="2" stroke="#cccccc" fill="none" />
  </g>
</svg>