<?xml version="1.0" encoding="utf-8"?>
<svg version="1.1" xmlns:xlink="http://www.w3.org/1999/xlink" width="28px" height="28px" xmlns="http://www.w3.org/2000/svg">
  <g transform="matrix(1 0 0 1 -3837 -7248 )">
    <path d="M 3851 7249  C 3858.28 7249  3864 7254.72  3864 7262  C 3864 7269.28  3858.28 7275  3851 7275  C 3843.72 7275  3838 7269.28  3838 7262  C 3838 7254.72  3843.72 7249  3851 7249  Z " fill-rule="nonzero" fill="#1890ff" stroke="none" />
    <path d="M 3851 7249  C 3858.28 7249  3864 7254.72  3864 7262  C 3864 7269.28  3858.28 7275  3851 7275  C 3843.72 7275  3838 7269.28  3838 7262  C 3838 7254.72  3843.72 7249  3851 7249  Z " stroke-width="2" stroke="#108ee9" fill="none" />
  </g>
</svg>