<?xml version="1.0" encoding="utf-8"?>
<svg version="1.1" xmlns:xlink="http://www.w3.org/1999/xlink" width="28px" height="28px" xmlns="http://www.w3.org/2000/svg">
  <g transform="matrix(1 0 0 1 -3837 -7131 )">
    <path d="M 3851 7132  C 3858.28 7132  3864 7137.72  3864 7145  C 3864 7152.28  3858.28 7158  3851 7158  C 3843.72 7158  3838 7152.28  3838 7145  C 3838 7137.72  3843.72 7132  3851 7132  Z " fill-rule="nonzero" fill="#ffffff" stroke="none" />
    <path d="M 3851 7132  C 3858.28 7132  3864 7137.72  3864 7145  C 3864 7152.28  3858.28 7158  3851 7158  C 3843.72 7158  3838 7152.28  3838 7145  C 3838 7137.72  3843.72 7132  3851 7132  Z " stroke-width="2" stroke="#1890ff" fill="none" />
  </g>
</svg>