<?xml version="1.0" encoding="utf-8"?>
<svg version="1.1" xmlns:xlink="http://www.w3.org/1999/xlink" width="440px" height="32px" xmlns="http://www.w3.org/2000/svg">
  <g transform="matrix(1 0 0 1 -3947 -5641 )">
    <path d="M 3948 5645  A 3 3 0 0 1 3951 5642 L 4383 5642  A 3 3 0 0 1 4386 5645 L 4386 5669  A 3 3 0 0 1 4383 5672 L 3951 5672  A 3 3 0 0 1 3948 5669 L 3948 5645  Z " fill-rule="nonzero" fill="#ffffff" stroke="none" />
    <path d="M 3947.5 5645  A 3.5 3.5 0 0 1 3951 5641.5 L 4383 5641.5  A 3.5 3.5 0 0 1 4386.5 5645 L 4386.5 5669  A 3.5 3.5 0 0 1 4383 5672.5 L 3951 5672.5  A 3.5 3.5 0 0 1 3947.5 5669 L 3947.5 5645  Z " stroke-width="1" stroke-dasharray="9,4" stroke="#d9d9d9" fill="none" stroke-dashoffset="0.5" />
  </g>
</svg>