<?xml version="1.0" encoding="utf-8"?>
<svg version="1.1" xmlns:xlink="http://www.w3.org/1999/xlink" width="1073px" height="291px" xmlns="http://www.w3.org/2000/svg">
  <g transform="matrix(1 0 0 1 -3812 -6587 )">
    <path d="M 0.5 0  L 0.5 288.659476117103  C 0 289.410169491525  0.665587958607716 290  1.51269990592662 290.5  L 535.201604514534 290.5  L 1070.48730009407 290  C 1071.33441204139 290  1072 289.410169491525  1072.5 288.659476117103  L 1072.5 0  L 0.5 0  Z " fill-rule="nonzero" fill="#ffffff" stroke="none" transform="matrix(1 0 0 1 3812 6587 )" />
    <path d="M 0.5 0  L 0.5 288.659476117103  C 0 289.410169491525  0.665587958607716 290  1.51269990592662 290.5  L 535.201604514534 290.5  L 1070.48730009407 290  C 1071.33441204139 290  1072 289.410169491525  1072.5 288.659476117103  L 1072.5 0  " stroke-width="1" stroke="#e9e9e9" fill="none" transform="matrix(1 0 0 1 3812 6587 )" />
  </g>
</svg>