<?xml version="1.0" encoding="utf-8"?>
<svg version="1.1" xmlns:xlink="http://www.w3.org/1999/xlink" width="24px" height="24px" xmlns="http://www.w3.org/2000/svg">
  <g transform="matrix(1 0 0 1 -3278 -2705 )">
    <path d="M 3290 2705  C 3296.72 2705  3302 2710.28  3302 2717  C 3302 2723.72  3296.72 2729  3290 2729  C 3283.28 2729  3278 2723.72  3278 2717  C 3278 2710.28  3283.28 2705  3290 2705  Z " fill-rule="nonzero" fill="#ffffff" stroke="none" />
    <path d="M 3290 2705.5  C 3296.44 2705.5  3301.5 2710.56  3301.5 2717  C 3301.5 2723.44  3296.44 2728.5  3290 2728.5  C 3283.56 2728.5  3278.5 2723.44  3278.5 2717  C 3278.5 2710.56  3283.56 2705.5  3290 2705.5  Z " stroke-width="1" stroke="#cccccc" fill="none" />
  </g>
</svg>