<?xml version="1.0" encoding="utf-8"?>
<svg version="1.1" xmlns:xlink="http://www.w3.org/1999/xlink" width="24px" height="24px" xmlns="http://www.w3.org/2000/svg">
  <g transform="matrix(1 0 0 1 -2680 -2704 )">
    <path d="M 2692 2704  C 2698.72 2704  2704 2709.28  2704 2716  C 2704 2722.72  2698.72 2728  2692 2728  C 2685.28 2728  2680 2722.72  2680 2716  C 2680 2709.28  2685.28 2704  2692 2704  Z " fill-rule="nonzero" fill="#ffffff" stroke="none" />
    <path d="M 2692 2704.5  C 2698.44 2704.5  2703.5 2709.56  2703.5 2716  C 2703.5 2722.44  2698.44 2727.5  2692 2727.5  C 2685.56 2727.5  2680.5 2722.44  2680.5 2716  C 2680.5 2709.56  2685.56 2704.5  2692 2704.5  Z " stroke-width="1" stroke="#1890ff" fill="none" />
  </g>
</svg>