<?xml version="1.0" encoding="utf-8"?>
<svg version="1.1" xmlns:xlink="http://www.w3.org/1999/xlink" width="32px" height="32px" xmlns="http://www.w3.org/2000/svg">
  <g transform="matrix(1 0 0 1 -2680 -2788 )">
    <path d="M 2696 2788  C 2704.96 2788  2712 2795.04  2712 2804  C 2712 2812.96  2704.96 2820  2696 2820  C 2687.04 2820  2680 2812.96  2680 2804  C 2680 2795.04  2687.04 2788  2696 2788  Z " fill-rule="nonzero" fill="#ffffff" stroke="none" />
    <path d="M 2696 2788.5  C 2704.68 2788.5  2711.5 2795.32  2711.5 2804  C 2711.5 2812.68  2704.68 2819.5  2696 2819.5  C 2687.32 2819.5  2680.5 2812.68  2680.5 2804  C 2680.5 2795.32  2687.32 2788.5  2696 2788.5  Z " stroke-width="1" stroke="#1890ff" fill="none" />
  </g>
</svg>