<?xml version="1.0" encoding="utf-8"?>
<svg version="1.1" xmlns:xlink="http://www.w3.org/1999/xlink" width="32px" height="32px" xmlns="http://www.w3.org/2000/svg">
  <g transform="matrix(1 0 0 1 -3422 -2582 )">
    <path d="M 3438 2582  C 3446.96 2582  3454 2589.04  3454 2598  C 3454 2606.96  3446.96 2614  3438 2614  C 3429.04 2614  3422 2606.96  3422 2598  C 3422 2589.04  3429.04 2582  3438 2582  Z " fill-rule="nonzero" fill="#ffffff" stroke="none" />
    <path d="M 3438 2582.5  C 3446.68 2582.5  3453.5 2589.32  3453.5 2598  C 3453.5 2606.68  3446.68 2613.5  3438 2613.5  C 3429.32 2613.5  3422.5 2606.68  3422.5 2598  C 3422.5 2589.32  3429.32 2582.5  3438 2582.5  Z " stroke-width="1" stroke="#cccccc" fill="none" />
  </g>
</svg>