<?xml version="1.0" encoding="utf-8"?>
<svg version="1.1" xmlns:xlink="http://www.w3.org/1999/xlink" width="32px" height="32px" xmlns="http://www.w3.org/2000/svg">
  <g transform="matrix(1 0 0 1 -2680 -2944 )">
    <path d="M 2696 2944  C 2704.96 2944  2712 2951.04  2712 2960  C 2712 2968.96  2704.96 2976  2696 2976  C 2687.04 2976  2680 2968.96  2680 2960  C 2680 2951.04  2687.04 2944  2696 2944  Z " fill-rule="nonzero" fill="#ffffff" stroke="none" fill-opacity="0" />
    <path d="M 2696 2944.5  C 2704.68 2944.5  2711.5 2951.32  2711.5 2960  C 2711.5 2968.68  2704.68 2975.5  2696 2975.5  C 2687.32 2975.5  2680.5 2968.68  2680.5 2960  C 2680.5 2951.32  2687.32 2944.5  2696 2944.5  Z " stroke-width="1" stroke="#cccccc" fill="none" />
  </g>
</svg>