<?xml version="1.0" encoding="utf-8"?>
<svg version="1.1" xmlns:xlink="http://www.w3.org/1999/xlink" width="1073px" height="108px" xmlns="http://www.w3.org/2000/svg">
  <g transform="matrix(1 0 0 1 -3813 -6949 )">
    <path d="M 0.5 0  L 0.5 106.505392912173  C 0 106.782372881356  0.66558795860771 107  1.51269990592662 107.5  L 1070.48730009407 107.5  C 1071.33441204139 107  1072 106.782372881356  1072.5 106.505392912173  L 1072.5 0  L 0.5 0  Z " fill-rule="nonzero" fill="#ffffff" stroke="none" transform="matrix(1 0 0 1 3813 6949 )" />
    <path d="M 0.5 0  L 0.5 106.505392912173  C 0 106.782372881356  0.66558795860771 107  1.51269990592662 107.5  L 1070.48730009407 107.5  C 1071.33441204139 107  1072 106.782372881356  1072.5 106.505392912173  L 1072.5 0  " stroke-width="1" stroke="#e9e9e9" fill="none" transform="matrix(1 0 0 1 3813 6949 )" />
  </g>
</svg>