<?xml version="1.0" encoding="utf-8"?>
<svg version="1.1" xmlns:xlink="http://www.w3.org/1999/xlink" width="10px" height="10px" xmlns="http://www.w3.org/2000/svg">
  <g transform="matrix(1 0 0 1 -2703 -3036 )">
    <path d="M 2708 3037  C 2710.24 3037  2712 3038.76  2712 3041  C 2712 3043.24  2710.24 3045  2708 3045  C 2705.76 3045  2704 3043.24  2704 3041  C 2704 3038.76  2705.76 3037  2708 3037  Z " fill-rule="nonzero" fill="#1890ff" stroke="none" />
    <path d="M 2708 3037  C 2710.24 3037  2712 3038.76  2712 3041  C 2712 3043.24  2710.24 3045  2708 3045  C 2705.76 3045  2704 3043.24  2704 3041  C 2704 3038.76  2705.76 3037  2708 3037  Z " stroke-width="2" stroke="#ffffff" fill="none" />
  </g>
</svg>