<?xml version="1.0" encoding="utf-8"?>
<svg version="1.1" xmlns:xlink="http://www.w3.org/1999/xlink" width="22px" height="22px" xmlns="http://www.w3.org/2000/svg">
  <defs>
    <filter x="3024px" y="3029px" width="22px" height="22px" filterUnits="userSpaceOnUse" id="filter127">
      <feOffset dx="0" dy="0" in="SourceAlpha" result="shadowOffsetInner" />
      <feGaussianBlur stdDeviation="2" in="shadowOffsetInner" result="shadowGaussian" />
      <feComposite in2="shadowGaussian" operator="atop" in="SourceAlpha" result="shadowComposite" />
      <feColorMatrix type="matrix" values="0 0 0 0 0  0 0 0 0 0  0 0 0 0 0  0 0 0 0.149019607843137 0  " in="shadowComposite" />
    </filter>
    <g id="widget128">
      <path d="M 3035 3034  C 3038.36 3034  3041 3036.64  3041 3040  C 3041 3043.36  3038.36 3046  3035 3046  C 3031.64 3046  3029 3043.36  3029 3040  C 3029 3036.64  3031.64 3034  3035 3034  Z " fill-rule="nonzero" fill="#1890ff" stroke="none" />
      <path d="M 3035 3034  C 3038.36 3034  3041 3036.64  3041 3040  C 3041 3043.36  3038.36 3046  3035 3046  C 3031.64 3046  3029 3043.36  3029 3040  C 3029 3036.64  3031.64 3034  3035 3034  Z " stroke-width="2" stroke="#ffffff" fill="none" />
    </g>
  </defs>
  <g transform="matrix(1 0 0 1 -3024 -3029 )">
    <use xlink:href="#widget128" filter="url(#filter127)" />
    <use xlink:href="#widget128" />
  </g>
</svg>