<?xml version="1.0" encoding="utf-8"?>
<svg version="1.1" xmlns:xlink="http://www.w3.org/1999/xlink" width="10px" height="19px" preserveAspectRatio="xMidYMin meet" viewBox="1788 2775  8 19" xmlns="http://www.w3.org/2000/svg">
  <path d="M 1720 2788.5  L 1746 2788.5  A 4 4 0 0 0 1750.5 2784.5 A 4 4 0 0 1 1754.5 2780.5 L 1787 2780.5  A 5 5 0 0 1 1792.5 2785.5 L 1792.5 2794  " stroke-width="1" stroke="#ff3399" fill="none" />
  <path d="M 1722 2785.5  A 3 3 0 0 0 1719 2788.5 A 3 3 0 0 0 1722 2791.5 A 3 3 0 0 0 1725 2788.5 A 3 3 0 0 0 1722 2785.5 Z " fill-rule="nonzero" fill="#ff3399" stroke="none" />
</svg>