<?xml version="1.0" encoding="utf-8"?>
<svg version="1.1" xmlns:xlink="http://www.w3.org/1999/xlink" width="36px" height="10px" preserveAspectRatio="xMinYMid meet" viewBox="1559 1730  36 8" xmlns="http://www.w3.org/2000/svg">
  <path d="M 1560 1734.5  L 1588 1734.5  A 2 2 0 0 0 1590.5 1732.5 A 2 2 0 0 1 1592.5 1730.5 L 1627 1730.5  A 5 5 0 0 1 1632.5 1735.5 L 1632.5 1740  " stroke-width="1" stroke="#ff3399" fill="none" />
  <path d="M 1562 1731.5  A 3 3 0 0 0 1559 1734.5 A 3 3 0 0 0 1562 1737.5 A 3 3 0 0 0 1565 1734.5 A 3 3 0 0 0 1562 1731.5 Z " fill-rule="nonzero" fill="#ff3399" stroke="none" />
</svg>