<?xml version="1.0" encoding="utf-8"?>
<svg version="1.1" xmlns:xlink="http://www.w3.org/1999/xlink" width="18px" height="18px" preserveAspectRatio="xMinYMid meet" viewBox="1553 2780  18 16" xmlns="http://www.w3.org/2000/svg">
  <path d="M 1560 2788.5  L 1586 2788.5  A 4 4 0 0 0 1590.5 2784.5 A 4 4 0 0 1 1594.5 2780.5 L 1627 2780.5  A 5 5 0 0 1 1632.5 2785.5 L 1632.5 2794  " stroke-width="1" stroke="#ff3399" fill="none" />
  <path d="M 1562 2785.5  A 3 3 0 0 0 1559 2788.5 A 3 3 0 0 0 1562 2791.5 A 3 3 0 0 0 1565 2788.5 A 3 3 0 0 0 1562 2785.5 Z " fill-rule="nonzero" fill="#ff3399" stroke="none" />
</svg>