<?xml version="1.0" encoding="utf-8"?>
<svg version="1.1" xmlns:xlink="http://www.w3.org/1999/xlink" width="10px" height="569px" preserveAspectRatio="xMidYMin meet" viewBox="316 426  8 569" xmlns="http://www.w3.org/2000/svg">
  <path d="M 347 431.5  L 325 431.5  A 5 5 0 0 0 320.5 436.5 L 320.5 985  A 5 5 0 0 0 325.5 990.5 L 361 990.5  A 5 5 0 0 1 366.5 995.5 L 366.5 1005  " stroke-width="1" stroke="#ff3399" fill="none" />
  <path d="M 345 428.5  A 3 3 0 0 0 342 431.5 A 3 3 0 0 0 345 434.5 A 3 3 0 0 0 348 431.5 A 3 3 0 0 0 345 428.5 Z " fill-rule="nonzero" fill="#ff3399" stroke="none" />
</svg>