<?xml version="1.0" encoding="utf-8"?>
<svg version="1.1" xmlns:xlink="http://www.w3.org/1999/xlink" width="200px" height="38px" xmlns="http://www.w3.org/2000/svg">
  <g transform="matrix(1 0 0 1 -341 -258 )">
    <path d="M 342 262  A 3 3 0 0 1 345 259 L 537 259  A 3 3 0 0 1 540 262 L 540 292  A 3 3 0 0 1 537 295 L 345 295  A 3 3 0 0 1 342 292 L 342 262  Z " fill-rule="nonzero" fill="#ff3399" stroke="none" fill-opacity="0.0980392156862745" />
    <path d="M 341.5 262  A 3.5 3.5 0 0 1 345 258.5 L 537 258.5  A 3.5 3.5 0 0 1 540.5 262 L 540.5 292  A 3.5 3.5 0 0 1 537 295.5 L 345 295.5  A 3.5 3.5 0 0 1 341.5 292 L 341.5 262  Z " stroke-width="1" stroke-dasharray="9,4" stroke="#ff3399" fill="none" stroke-dashoffset="0.5" />
  </g>
</svg>