<?xml version="1.0" encoding="utf-8"?>
<svg version="1.1" xmlns:xlink="http://www.w3.org/1999/xlink" width="277px" height="82px" xmlns="http://www.w3.org/2000/svg">
  <g transform="matrix(1 0 0 1 -341 -162 )">
    <path d="M 342 166  A 3 3 0 0 1 345 163 L 614 163  A 3 3 0 0 1 617 166 L 617 240  A 3 3 0 0 1 614 243 L 345 243  A 3 3 0 0 1 342 240 L 342 166  Z " fill-rule="nonzero" fill="#ff3399" stroke="none" fill-opacity="0.0980392156862745" />
    <path d="M 341.5 166  A 3.5 3.5 0 0 1 345 162.5 L 614 162.5  A 3.5 3.5 0 0 1 617.5 166 L 617.5 240  A 3.5 3.5 0 0 1 614 243.5 L 345 243.5  A 3.5 3.5 0 0 1 341.5 240 L 341.5 166  Z " stroke-width="1" stroke-dasharray="9,4" stroke="#ff3399" fill="none" stroke-dashoffset="0.5" />
  </g>
</svg>