<?xml version="1.0" encoding="utf-8"?>
<svg version="1.1" xmlns:xlink="http://www.w3.org/1999/xlink" width="843px" height="185px" xmlns="http://www.w3.org/2000/svg">
  <defs>
    <mask fill="white" id="clip1107">
      <path d="M 0 181  L 0 29.4324324324324  L 0 4  C 0 1.76000000000001  1.76 0  4 0  L 839 0  C 841.24 0  843 1.76000000000001  843 4  L 843 181  C 843 183.24  841.24 185  839 185  L 4 185  C 1.76 185  0 183.24  0 181  Z " fill-rule="evenodd" />
    </mask>
  </defs>
  <g transform="matrix(1 0 0 1 -40 -103 )">
    <path d="M 0 181  L 0 29.4324324324324  L 0 4  C 0 1.76000000000001  1.76 0  4 0  L 839 0  C 841.24 0  843 1.76000000000001  843 4  L 843 181  C 843 183.24  841.24 185  839 185  L 4 185  C 1.76 185  0 183.24  0 181  Z " fill-rule="nonzero" fill="#ecf5ff" stroke="none" transform="matrix(1 0 0 1 40 103 )" />
    <path d="M 0 181  L 0 29.4324324324324  L 0 4  C 0 1.76000000000001  1.76 0  4 0  L 839 0  C 841.24 0  843 1.76000000000001  843 4  L 843 181  C 843 183.24  841.24 185  839 185  L 4 185  C 1.76 185  0 183.24  0 181  Z " stroke-width="2" stroke="#b3d8ff" fill="none" transform="matrix(1 0 0 1 40 103 )" mask="url(#clip1107)" />
  </g>
</svg>