<?xml version="1.0" encoding="utf-8"?>
<svg version="1.1" xmlns:xlink="http://www.w3.org/1999/xlink" width="14px" height="14px" xmlns="http://www.w3.org/2000/svg">
  <g transform="matrix(1 0 0 1 -1256 -1923 )">
    <path d="M 1263 1923  C 1266.92 1923  1270 1926.08  1270 1930  C 1270 1933.92  1266.92 1937  1263 1937  C 1259.08 1937  1256 1933.92  1256 1930  C 1256 1926.08  1259.08 1923  1263 1923  Z " fill-rule="nonzero" fill="#ffffff" stroke="none" />
    <path d="M 1263 1923.5  C 1266.64 1923.5  1269.5 1926.36  1269.5 1930  C 1269.5 1933.64  1266.64 1936.5  1263 1936.5  C 1259.36 1936.5  1256.5 1933.64  1256.5 1930  C 1256.5 1926.36  1259.36 1923.5  1263 1923.5  Z " stroke-width="1" stroke="#dcdfe6" fill="none" />
  </g>
</svg>