<?xml version="1.0" encoding="utf-8"?>
<svg version="1.1" xmlns:xlink="http://www.w3.org/1999/xlink" width="14px" height="14px" xmlns="http://www.w3.org/2000/svg">
  <g transform="matrix(1 0 0 1 -1256 -2210 )">
    <path d="M 1263 2214  C 1264.68 2214  1266 2215.32  1266 2217  C 1266 2218.68  1264.68 2220  1263 2220  C 1261.32 2220  1260 2218.68  1260 2217  C 1260 2215.32  1261.32 2214  1263 2214  Z " fill-rule="nonzero" fill="#ffffff" stroke="none" />
    <path d="M 1263 2212.5  C 1265.52 2212.5  1267.5 2214.48  1267.5 2217  C 1267.5 2219.52  1265.52 2221.5  1263 2221.5  C 1260.48 2221.5  1258.5 2219.52  1258.5 2217  C 1258.5 2214.48  1260.48 2212.5  1263 2212.5  Z " stroke-width="5" stroke="#2e8ff4" fill="none" />
  </g>
</svg>