<?xml version="1.0" encoding="utf-8"?>
<svg version="1.1" xmlns:xlink="http://www.w3.org/1999/xlink" width="14px" height="14px" xmlns="http://www.w3.org/2000/svg">
  <g transform="matrix(1 0 0 1 -1256 -2210 )">
    <path d="M 1263 2210  C 1266.92 2210  1270 2213.08  1270 2217  C 1270 2220.92  1266.92 2224  1263 2224  C 1259.08 2224  1256 2220.92  1256 2217  C 1256 2213.08  1259.08 2210  1263 2210  Z " fill-rule="nonzero" fill="#ffffff" stroke="none" />
    <path d="M 1263 2210.5  C 1266.64 2210.5  1269.5 2213.36  1269.5 2217  C 1269.5 2220.64  1266.64 2223.5  1263 2223.5  C 1259.36 2223.5  1256.5 2220.64  1256.5 2217  C 1256.5 2213.36  1259.36 2210.5  1263 2210.5  Z " stroke-width="1" stroke="#2e8ff4" fill="none" />
  </g>
</svg>