<?xml version="1.0" encoding="utf-8"?>
<svg version="1.1" xmlns:xlink="http://www.w3.org/1999/xlink" width="14px" height="14px" xmlns="http://www.w3.org/2000/svg">
  <g transform="matrix(1 0 0 1 -1256 -1923 )">
    <path d="M 1263 1927  C 1264.68 1927  1266 1928.32  1266 1930  C 1266 1931.68  1264.68 1933  1263 1933  C 1261.32 1933  1260 1931.68  1260 1930  C 1260 1928.32  1261.32 1927  1263 1927  Z " fill-rule="nonzero" fill="#ffffff" stroke="none" />
    <path d="M 1263 1925.5  C 1265.52 1925.5  1267.5 1927.48  1267.5 1930  C 1267.5 1932.52  1265.52 1934.5  1263 1934.5  C 1260.48 1934.5  1258.5 1932.52  1258.5 1930  C 1258.5 1927.48  1260.48 1925.5  1263 1925.5  Z " stroke-width="5" stroke="#2e8ff4" fill="none" />
  </g>
</svg>