<?xml version="1.0" encoding="utf-8"?>
<svg version="1.1" xmlns:xlink="http://www.w3.org/1999/xlink" width="85px" height="32px" xmlns="http://www.w3.org/2000/svg">
  <g transform="matrix(1 0 0 1 -129 -17 )">
    <path d="M 129.5 21  A 3.5 3.5 0 0 1 133 17.5 L 210 17.5  A 3.5 3.5 0 0 1 213.5 21 L 213.5 45  A 3.5 3.5 0 0 1 210 48.5 L 133 48.5  A 3.5 3.5 0 0 1 129.5 45 L 129.5 21  Z " fill-rule="nonzero" fill="#0099ff" stroke="none" fill-opacity="0.0980392156862745" />
    <path d="M 129.5 21  A 3.5 3.5 0 0 1 133 17.5 L 210 17.5  A 3.5 3.5 0 0 1 213.5 21 L 213.5 45  A 3.5 3.5 0 0 1 210 48.5 L 133 48.5  A 3.5 3.5 0 0 1 129.5 45 L 129.5 21  Z " stroke-width="1" stroke="#a7d2f9" fill="none" />
  </g>
</svg>