<?xml version="1.0" encoding="utf-8"?>
<svg version="1.1" xmlns:xlink="http://www.w3.org/1999/xlink" width="90px" height="32px" xmlns="http://www.w3.org/2000/svg">
  <g transform="matrix(1 0 0 1 -340 -67 )">
    <path d="M 341 71  A 3 3 0 0 1 344 68 L 426 68  A 3 3 0 0 1 429 71 L 429 95  A 3 3 0 0 1 426 98 L 344 98  A 3 3 0 0 1 341 95 L 341 71  Z " fill-rule="nonzero" fill="#67c23a" stroke="none" fill-opacity="0.0980392156862745" />
    <path d="M 340.5 71  A 3.5 3.5 0 0 1 344 67.5 L 426 67.5  A 3.5 3.5 0 0 1 429.5 71 L 429.5 95  A 3.5 3.5 0 0 1 426 98.5 L 344 98.5  A 3.5 3.5 0 0 1 340.5 95 L 340.5 71  Z " stroke-width="1" stroke="#67c23a" fill="none" stroke-opacity="0.2" />
  </g>
</svg>