<?xml version="1.0" encoding="utf-8"?>
<svg version="1.1" xmlns:xlink="http://www.w3.org/1999/xlink" width="63px" height="32px" xmlns="http://www.w3.org/2000/svg">
  <g transform="matrix(1 0 0 1 -231 -638 )">
    <path d="M 232 642  A 3 3 0 0 1 235 639 L 290 639  A 3 3 0 0 1 293 642 L 293 666  A 3 3 0 0 1 290 669 L 235 669  A 3 3 0 0 1 232 666 L 232 642  Z " fill-rule="nonzero" fill="#909399" stroke="none" fill-opacity="0.0980392156862745" />
    <path d="M 231.5 642  A 3.5 3.5 0 0 1 235 638.5 L 290 638.5  A 3.5 3.5 0 0 1 293.5 642 L 293.5 666  A 3.5 3.5 0 0 1 290 669.5 L 235 669.5  A 3.5 3.5 0 0 1 231.5 666 L 231.5 642  Z " stroke-width="1" stroke="#909399" fill="none" stroke-opacity="0.2" />
  </g>
</svg>