<?xml version="1.0" encoding="utf-8"?>
<svg version="1.1" xmlns:xlink="http://www.w3.org/1999/xlink" width="90px" height="32px" xmlns="http://www.w3.org/2000/svg">
  <g transform="matrix(1 0 0 1 -340 -502 )">
    <path d="M 341 506  A 3 3 0 0 1 344 503 L 426 503  A 3 3 0 0 1 429 506 L 429 530  A 3 3 0 0 1 426 533 L 344 533  A 3 3 0 0 1 341 530 L 341 506  Z " fill-rule="nonzero" fill="#f56c6c" stroke="none" fill-opacity="0.0980392156862745" />
    <path d="M 340.5 506  A 3.5 3.5 0 0 1 344 502.5 L 426 502.5  A 3.5 3.5 0 0 1 429.5 506 L 429.5 530  A 3.5 3.5 0 0 1 426 533.5 L 344 533.5  A 3.5 3.5 0 0 1 340.5 530 L 340.5 506  Z " stroke-width="1" stroke="#f56c6c" fill="none" stroke-opacity="0.2" />
  </g>
</svg>