<?xml version="1.0" encoding="utf-8"?>
<svg version="1.1" xmlns:xlink="http://www.w3.org/1999/xlink" width="90px" height="32px" xmlns="http://www.w3.org/2000/svg">
  <g transform="matrix(1 0 0 1 -340 -67 )">
    <path d="M 340.5 71  A 3.5 3.5 0 0 1 344 67.5 L 426 67.5  A 3.5 3.5 0 0 1 429.5 71 L 429.5 95  A 3.5 3.5 0 0 1 426 98.5 L 344 98.5  A 3.5 3.5 0 0 1 340.5 95 L 340.5 71  Z " fill-rule="nonzero" fill="#0099ff" stroke="none" fill-opacity="0.0980392156862745" />
    <path d="M 340.5 71  A 3.5 3.5 0 0 1 344 67.5 L 426 67.5  A 3.5 3.5 0 0 1 429.5 71 L 429.5 95  A 3.5 3.5 0 0 1 426 98.5 L 344 98.5  A 3.5 3.5 0 0 1 340.5 95 L 340.5 71  Z " stroke-width="1" stroke="#a7d2f9" fill="none" />
  </g>
</svg>