<?xml version="1.0" encoding="utf-8"?>
<svg version="1.1" xmlns:xlink="http://www.w3.org/1999/xlink" width="341px" height="60px" xmlns="http://www.w3.org/2000/svg">
  <g transform="matrix(1 0 0 1 -459 -1510 )">
    <path d="M 460 1514  A 3 3 0 0 1 463 1511 L 796 1511  A 3 3 0 0 1 799 1514 L 799 1566  A 3 3 0 0 1 796 1569 L 463 1569  A 3 3 0 0 1 460 1566 L 460 1514  Z " fill-rule="nonzero" fill="#ff3399" stroke="none" fill-opacity="0.0980392156862745" />
    <path d="M 459.5 1514  A 3.5 3.5 0 0 1 463 1510.5 L 796 1510.5  A 3.5 3.5 0 0 1 799.5 1514 L 799.5 1566  A 3.5 3.5 0 0 1 796 1569.5 L 463 1569.5  A 3.5 3.5 0 0 1 459.5 1566 L 459.5 1514  Z " stroke-width="1" stroke-dasharray="9,4" stroke="#ff3399" fill="none" stroke-dashoffset="0.5" />
  </g>
</svg>