<?xml version="1.0" encoding="utf-8"?>
<svg version="1.1" xmlns:xlink="http://www.w3.org/1999/xlink" width="932px" height="288px" xmlns="http://www.w3.org/2000/svg">
  <g transform="matrix(1 0 0 1 -448 -2091 )">
    <path d="M 449 2095  A 3 3 0 0 1 452 2092 L 1376 2092  A 3 3 0 0 1 1379 2095 L 1379 2375  A 3 3 0 0 1 1376 2378 L 452 2378  A 3 3 0 0 1 449 2375 L 449 2095  Z " fill-rule="nonzero" fill="#ff3399" stroke="none" fill-opacity="0.0980392156862745" />
    <path d="M 448.5 2095  A 3.5 3.5 0 0 1 452 2091.5 L 1376 2091.5  A 3.5 3.5 0 0 1 1379.5 2095 L 1379.5 2375  A 3.5 3.5 0 0 1 1376 2378.5 L 452 2378.5  A 3.5 3.5 0 0 1 448.5 2375 L 448.5 2095  Z " stroke-width="1" stroke-dasharray="9,4" stroke="#ff3399" fill="none" stroke-dashoffset="0.5" />
  </g>
</svg>