<?xml version="1.0" encoding="utf-8"?>
<svg version="1.1" xmlns:xlink="http://www.w3.org/1999/xlink" width="947px" height="213px" xmlns="http://www.w3.org/2000/svg">
  <g transform="matrix(1 0 0 1 -433 -1813 )">
    <path d="M 434 1817  A 3 3 0 0 1 437 1814 L 1376 1814  A 3 3 0 0 1 1379 1817 L 1379 2022  A 3 3 0 0 1 1376 2025 L 437 2025  A 3 3 0 0 1 434 2022 L 434 1817  Z " fill-rule="nonzero" fill="#ff3399" stroke="none" fill-opacity="0.0980392156862745" />
    <path d="M 433.5 1817  A 3.5 3.5 0 0 1 437 1813.5 L 1376 1813.5  A 3.5 3.5 0 0 1 1379.5 1817 L 1379.5 2022  A 3.5 3.5 0 0 1 1376 2025.5 L 437 2025.5  A 3.5 3.5 0 0 1 433.5 2022 L 433.5 1817  Z " stroke-width="1" stroke-dasharray="9,4" stroke="#ff3399" fill="none" stroke-dashoffset="0.5" />
  </g>
</svg>