<?xml version="1.0" encoding="utf-8"?>
<svg version="1.1" xmlns:xlink="http://www.w3.org/1999/xlink" width="10px" height="24px" preserveAspectRatio="xMidYMin meet" viewBox="1811 1865  8 24" xmlns="http://www.w3.org/2000/svg">
  <path d="M 1381 1920.5  L 1695 1920.5  A 5 5 0 0 0 1700.5 1915.5 L 1700.5 1875  A 5 5 0 0 1 1705.5 1870.5 L 1810 1870.5  A 5 5 0 0 1 1815.5 1875.5 L 1815.5 1889  " stroke-width="1" stroke="#ff3399" fill="none" />
  <path d="M 1383 1917.5  A 3 3 0 0 0 1380 1920.5 A 3 3 0 0 0 1383 1923.5 A 3 3 0 0 0 1386 1920.5 A 3 3 0 0 0 1383 1917.5 Z " fill-rule="nonzero" fill="#ff3399" stroke="none" />
</svg>