<?xml version="1.0" encoding="utf-8"?>
<svg version="1.1" xmlns:xlink="http://www.w3.org/1999/xlink" width="247px" height="46px" xmlns="http://www.w3.org/2000/svg">
  <g transform="matrix(1 0 0 1 -1408 -1418 )">
    <path d="M 1409 1422  A 3 3 0 0 1 1412 1419 L 1651 1419  A 3 3 0 0 1 1654 1422 L 1654 1460  A 3 3 0 0 1 1651 1463 L 1412 1463  A 3 3 0 0 1 1409 1460 L 1409 1422  Z " fill-rule="nonzero" fill="#ff3399" stroke="none" fill-opacity="0.0980392156862745" />
    <path d="M 1408.5 1422  A 3.5 3.5 0 0 1 1412 1418.5 L 1651 1418.5  A 3.5 3.5 0 0 1 1654.5 1422 L 1654.5 1460  A 3.5 3.5 0 0 1 1651 1463.5 L 1412 1463.5  A 3.5 3.5 0 0 1 1408.5 1460 L 1408.5 1422  Z " stroke-width="1" stroke-dasharray="9,4" stroke="#ff3399" fill="none" stroke-dashoffset="0.5" />
  </g>
</svg>