<?xml version="1.0" encoding="utf-8"?>
<svg version="1.1" xmlns:xlink="http://www.w3.org/1999/xlink" width="10px" height="34px" preserveAspectRatio="xMidYMin meet" viewBox="1766 1365  8 34" xmlns="http://www.w3.org/2000/svg">
  <path d="M 1656 1441.5  L 1695 1441.5  A 5 5 0 0 0 1700.5 1436.5 L 1700.5 1375  A 5 5 0 0 1 1705.5 1370.5 L 1765 1370.5  A 5 5 0 0 1 1770.5 1375.5 L 1770.5 1399  " stroke-width="1" stroke="#ff3399" fill="none" />
  <path d="M 1658 1438.5  A 3 3 0 0 0 1655 1441.5 A 3 3 0 0 0 1658 1444.5 A 3 3 0 0 0 1661 1441.5 A 3 3 0 0 0 1658 1438.5 Z " fill-rule="nonzero" fill="#ff3399" stroke="none" />
</svg>