<?xml version="1.0" encoding="utf-8"?>
<svg version="1.1" xmlns:xlink="http://www.w3.org/1999/xlink" width="14px" height="8px" xmlns="http://www.w3.org/2000/svg">
  <g transform="matrix(1 0 0 1 -813 -1966 )">
    <path d="M 13.8597194388778 0.744100801832767  C 13.9532398129593 0.826778668703064  14 0.921858215603914  14 1.02933944253532  C 14 1.13682066946672  13.9532398129593 1.23190021636757  13.8597194388778 1.31457808323789  L 7.32264529058116 7.09376097747233  C 7.22912491649967 7.17643884434265  7.12157648630594 7.21777777777779  7 7.21777777777779  C 6.87842351369406 7.21777777777779  6.77087508350033 7.17643884434265  6.67735470941884 7.09376097747233  L 0.140280561122239 1.31457808323789  C 0.0467601870407464 1.23190021636757  0 1.13682066946672  0 1.02933944253532  C 0 0.921858215603914  0.0467601870407464 0.826778668703064  0.140280561122239 0.744100801832767  L 0.841683366733463 0.124016800305455  C 0.935203740814956 0.041338933435158  1.04275217100869 0  1.16432865731463 0  C 1.28590514362057 0  1.3934535738143 0.041338933435158  1.48697394789579 0.124016800305455  L 7 4.99787705231004  L 12.5130260521042 0.124016800305455  C 12.6065464261857 0.041338933435158  12.7140948563794 0  12.8356713426854 0  C 12.9572478289913 0  13.064796259185 0.041338933435158  13.1583166332665 0.124016800305455  L 13.8597194388778 0.744100801832767  Z " fill-rule="nonzero" fill="#dcdfe6" stroke="none" transform="matrix(1 0 0 1 813 1966 )" />
  </g>
</svg>