<?xml version="1.0" encoding="utf-8"?>
<svg version="1.1" xmlns:xlink="http://www.w3.org/1999/xlink" width="947px" height="138px" xmlns="http://www.w3.org/2000/svg">
  <g transform="matrix(1 0 0 1 -433 -1931 )">
    <path d="M 434 1935  A 3 3 0 0 1 437 1932 L 1376 1932  A 3 3 0 0 1 1379 1935 L 1379 2065  A 3 3 0 0 1 1376 2068 L 437 2068  A 3 3 0 0 1 434 2065 L 434 1935  Z " fill-rule="nonzero" fill="#ff3399" stroke="none" fill-opacity="0.0980392156862745" />
    <path d="M 433.5 1935  A 3.5 3.5 0 0 1 437 1931.5 L 1376 1931.5  A 3.5 3.5 0 0 1 1379.5 1935 L 1379.5 2065  A 3.5 3.5 0 0 1 1376 2068.5 L 437 2068.5  A 3.5 3.5 0 0 1 433.5 2065 L 433.5 1935  Z " stroke-width="1" stroke-dasharray="9,4" stroke="#ff3399" fill="none" stroke-dashoffset="0.5" />
  </g>
</svg>