<?xml version="1.0" encoding="utf-8"?>
<svg version="1.1" xmlns:xlink="http://www.w3.org/1999/xlink" width="650px" height="73px" xmlns="http://www.w3.org/2000/svg">
  <g transform="matrix(1 0 0 1 -377 -154 )">
    <path d="M 378 158  A 3 3 0 0 1 381 155 L 1023 155  A 3 3 0 0 1 1026 158 L 1026 223  A 3 3 0 0 1 1023 226 L 381 226  A 3 3 0 0 1 378 223 L 378 158  Z " fill-rule="nonzero" fill="#ff3399" stroke="none" fill-opacity="0.0980392156862745" />
    <path d="M 377.5 158  A 3.5 3.5 0 0 1 381 154.5 L 1023 154.5  A 3.5 3.5 0 0 1 1026.5 158 L 1026.5 223  A 3.5 3.5 0 0 1 1023 226.5 L 381 226.5  A 3.5 3.5 0 0 1 377.5 223 L 377.5 158  Z " stroke-width="1" stroke-dasharray="9,4" stroke="#ff3399" fill="none" stroke-dashoffset="0.5" />
  </g>
</svg>