<?xml version="1.0" encoding="utf-8"?>
<svg version="1.1" xmlns:xlink="http://www.w3.org/1999/xlink" width="1191px" height="100px" xmlns="http://www.w3.org/2000/svg">
  <g transform="matrix(1 0 0 1 -377 -143 )">
    <path d="M 378 147  A 3 3 0 0 1 381 144 L 1564 144  A 3 3 0 0 1 1567 147 L 1567 239  A 3 3 0 0 1 1564 242 L 381 242  A 3 3 0 0 1 378 239 L 378 147  Z " fill-rule="nonzero" fill="#ff3399" stroke="none" fill-opacity="0.0980392156862745" />
    <path d="M 377.5 147  A 3.5 3.5 0 0 1 381 143.5 L 1564 143.5  A 3.5 3.5 0 0 1 1567.5 147 L 1567.5 239  A 3.5 3.5 0 0 1 1564 242.5 L 381 242.5  A 3.5 3.5 0 0 1 377.5 239 L 377.5 147  Z " stroke-width="1" stroke-dasharray="9,4" stroke="#ff3399" fill="none" stroke-dashoffset="0.5" />
  </g>
</svg>