<?xml version="1.0" encoding="utf-8"?>
<svg version="1.1" xmlns:xlink="http://www.w3.org/1999/xlink" width="719px" height="37px" xmlns="http://www.w3.org/2000/svg">
  <g transform="matrix(1 0 0 1 -704 -1051 )">
    <path d="M 705 1055  A 3 3 0 0 1 708 1052 L 1419 1052  A 3 3 0 0 1 1422 1055 L 1422 1084  A 3 3 0 0 1 1419 1087 L 708 1087  A 3 3 0 0 1 705 1084 L 705 1055  Z " fill-rule="nonzero" fill="#ff3399" stroke="none" fill-opacity="0.0980392156862745" />
    <path d="M 704.5 1055  A 3.5 3.5 0 0 1 708 1051.5 L 1419 1051.5  A 3.5 3.5 0 0 1 1422.5 1055 L 1422.5 1084  A 3.5 3.5 0 0 1 1419 1087.5 L 708 1087.5  A 3.5 3.5 0 0 1 704.5 1084 L 704.5 1055  Z " stroke-width="1" stroke-dasharray="9,4" stroke="#ff3399" fill="none" stroke-dashoffset="0.5" />
  </g>
</svg>