<?xml version="1.0" encoding="utf-8"?>
<svg version="1.1" xmlns:xlink="http://www.w3.org/1999/xlink" width="141px" height="42px" xmlns="http://www.w3.org/2000/svg">
  <g transform="matrix(1 0 0 1 -1252 -367 )">
    <path d="M 1253 371  A 3 3 0 0 1 1256 368 L 1389 368  A 3 3 0 0 1 1392 371 L 1392 405  A 3 3 0 0 1 1389 408 L 1256 408  A 3 3 0 0 1 1253 405 L 1253 371  Z " fill-rule="nonzero" fill="#ff3399" stroke="none" fill-opacity="0.0980392156862745" />
    <path d="M 1252.5 371  A 3.5 3.5 0 0 1 1256 367.5 L 1389 367.5  A 3.5 3.5 0 0 1 1392.5 371 L 1392.5 405  A 3.5 3.5 0 0 1 1389 408.5 L 1256 408.5  A 3.5 3.5 0 0 1 1252.5 405 L 1252.5 371  Z " stroke-width="1" stroke-dasharray="9,4" stroke="#ff3399" fill="none" stroke-dashoffset="0.5" />
  </g>
</svg>