<?xml version="1.0" encoding="utf-8"?>
<svg version="1.1" xmlns:xlink="http://www.w3.org/1999/xlink" width="18px" height="18px" preserveAspectRatio="xMinYMid meet" viewBox="1681 292  18 16" xmlns="http://www.w3.org/2000/svg">
  <path d="M 1688 300.5  L 1745 300.5  A 5 5 0 0 0 1750.5 295.5 A 5 5 0 0 1 1755.5 290.5 L 1795 290.5  A 5 5 0 0 1 1800.5 295.5 L 1800.5 303  " stroke-width="1" stroke="#ff3399" fill="none" />
  <path d="M 1690 297.5  A 3 3 0 0 0 1687 300.5 A 3 3 0 0 0 1690 303.5 A 3 3 0 0 0 1693 300.5 A 3 3 0 0 0 1690 297.5 Z " fill-rule="nonzero" fill="#ff3399" stroke="none" />
</svg>