<?xml version="1.0" encoding="utf-8"?>
<svg version="1.1" xmlns:xlink="http://www.w3.org/1999/xlink" width="367px" height="60px" xmlns="http://www.w3.org/2000/svg">
  <g transform="matrix(1 0 0 1 -433 -1797 )">
    <path d="M 434 1801  A 3 3 0 0 1 437 1798 L 796 1798  A 3 3 0 0 1 799 1801 L 799 1853  A 3 3 0 0 1 796 1856 L 437 1856  A 3 3 0 0 1 434 1853 L 434 1801  Z " fill-rule="nonzero" fill="#ff3399" stroke="none" fill-opacity="0.0980392156862745" />
    <path d="M 433.5 1801  A 3.5 3.5 0 0 1 437 1797.5 L 796 1797.5  A 3.5 3.5 0 0 1 799.5 1801 L 799.5 1853  A 3.5 3.5 0 0 1 796 1856.5 L 437 1856.5  A 3.5 3.5 0 0 1 433.5 1853 L 433.5 1801  Z " stroke-width="1" stroke-dasharray="9,4" stroke="#ff3399" fill="none" stroke-dashoffset="0.5" />
  </g>
</svg>