<?xml version="1.0" encoding="utf-8"?>
<svg version="1.1" xmlns:xlink="http://www.w3.org/1999/xlink" width="10px" height="20px" preserveAspectRatio="xMidYMin meet" viewBox="1696 1985  8 20" xmlns="http://www.w3.org/2000/svg">
  <path d="M 1381 2000.5  L 1695 2000.5  A 5 5 0 0 0 1700.5 1995.5 A 5 5 0 0 1 1705.5 1990.5 L 1797 1990.5  A 5 5 0 0 1 1802.5 1995.5 L 1802.5 2005  " stroke-width="1" stroke="#ff3399" fill="none" />
  <path d="M 1383 1997.5  A 3 3 0 0 0 1380 2000.5 A 3 3 0 0 0 1383 2003.5 A 3 3 0 0 0 1386 2000.5 A 3 3 0 0 0 1383 1997.5 Z " fill-rule="nonzero" fill="#ff3399" stroke="none" />
</svg>