<?xml version="1.0" encoding="utf-8"?>
<svg version="1.1" xmlns:xlink="http://www.w3.org/1999/xlink" width="14px" height="14px" xmlns="http://www.w3.org/2000/svg">
  <g transform="matrix(1 0 0 1 -4876 -1397 )">
    <path d="M 4883 1397  C 4886.92 1397  4890 1400.08  4890 1404  C 4890 1407.92  4886.92 1411  4883 1411  C 4879.08 1411  4876 1407.92  4876 1404  C 4876 1400.08  4879.08 1397  4883 1397  Z " fill-rule="nonzero" fill="#ffffff" stroke="none" fill-opacity="0" />
    <path d="M 4883 1397.5  C 4886.64 1397.5  4889.5 1400.36  4889.5 1404  C 4889.5 1407.64  4886.64 1410.5  4883 1410.5  C 4879.36 1410.5  4876.5 1407.64  4876.5 1404  C 4876.5 1400.36  4879.36 1397.5  4883 1397.5  Z " stroke-width="1" stroke="#d9d9d9" fill="none" />
  </g>
</svg>