<?xml version="1.0" encoding="utf-8"?>
<svg version="1.1" xmlns:xlink="http://www.w3.org/1999/xlink" width="325px" height="10px" preserveAspectRatio="xMinYMid meet" viewBox="1380 2205  325 8" xmlns="http://www.w3.org/2000/svg">
  <path d="M 1381 2209.5  L 1695 2209.5  A 5 5 0 0 0 1700.5 2204.5 L 1700.5 2165  A 5 5 0 0 1 1705.5 2160.5 L 1810 2160.5  A 5 5 0 0 1 1815.5 2165.5 L 1815.5 2176  " stroke-width="1" stroke="#ff3399" fill="none" />
  <path d="M 1383 2206.5  A 3 3 0 0 0 1380 2209.5 A 3 3 0 0 0 1383 2212.5 A 3 3 0 0 0 1386 2209.5 A 3 3 0 0 0 1383 2206.5 Z " fill-rule="nonzero" fill="#ff3399" stroke="none" />
</svg>