<?xml version="1.0" encoding="utf-8"?>
<svg version="1.1" xmlns:xlink="http://www.w3.org/1999/xlink" width="1311px" height="37px" xmlns="http://www.w3.org/2000/svg">
  <g transform="matrix(1 0 0 1 -377 -446 )">
    <path d="M 378 450  A 3 3 0 0 1 381 447 L 1684 447  A 3 3 0 0 1 1687 450 L 1687 479  A 3 3 0 0 1 1684 482 L 381 482  A 3 3 0 0 1 378 479 L 378 450  Z " fill-rule="nonzero" fill="#ff3399" stroke="none" fill-opacity="0.0980392156862745" />
    <path d="M 377.5 450  A 3.5 3.5 0 0 1 381 446.5 L 1684 446.5  A 3.5 3.5 0 0 1 1687.5 450 L 1687.5 479  A 3.5 3.5 0 0 1 1684 482.5 L 381 482.5  A 3.5 3.5 0 0 1 377.5 479 L 377.5 450  Z " stroke-width="1" stroke-dasharray="9,4" stroke="#ff3399" fill="none" stroke-dashoffset="0.5" />
  </g>
</svg>