<?xml version="1.0" encoding="utf-8"?>
<svg version="1.1" xmlns:xlink="http://www.w3.org/1999/xlink" width="1191px" height="100px" xmlns="http://www.w3.org/2000/svg">
  <g transform="matrix(1 0 0 1 -377 -254 )">
    <path d="M 378 258  A 3 3 0 0 1 381 255 L 1564 255  A 3 3 0 0 1 1567 258 L 1567 350  A 3 3 0 0 1 1564 353 L 381 353  A 3 3 0 0 1 378 350 L 378 258  Z " fill-rule="nonzero" fill="#ff3399" stroke="none" fill-opacity="0.0980392156862745" />
    <path d="M 377.5 258  A 3.5 3.5 0 0 1 381 254.5 L 1564 254.5  A 3.5 3.5 0 0 1 1567.5 258 L 1567.5 350  A 3.5 3.5 0 0 1 1564 353.5 L 381 353.5  A 3.5 3.5 0 0 1 377.5 350 L 377.5 258  Z " stroke-width="1" stroke-dasharray="9,4" stroke="#ff3399" fill="none" stroke-dashoffset="0.5" />
  </g>
</svg>