<?xml version="1.0" encoding="utf-8"?>
<svg version="1.1" xmlns:xlink="http://www.w3.org/1999/xlink" width="247px" height="46px" xmlns="http://www.w3.org/2000/svg">
  <g transform="matrix(1 0 0 1 -1408 -1574 )">
    <path d="M 1409 1578  A 3 3 0 0 1 1412 1575 L 1651 1575  A 3 3 0 0 1 1654 1578 L 1654 1616  A 3 3 0 0 1 1651 1619 L 1412 1619  A 3 3 0 0 1 1409 1616 L 1409 1578  Z " fill-rule="nonzero" fill="#ff3399" stroke="none" fill-opacity="0.0980392156862745" />
    <path d="M 1408.5 1578  A 3.5 3.5 0 0 1 1412 1574.5 L 1651 1574.5  A 3.5 3.5 0 0 1 1654.5 1578 L 1654.5 1616  A 3.5 3.5 0 0 1 1651 1619.5 L 1412 1619.5  A 3.5 3.5 0 0 1 1408.5 1616 L 1408.5 1578  Z " stroke-width="1" stroke-dasharray="9,4" stroke="#ff3399" fill="none" stroke-dashoffset="0.5" />
  </g>
</svg>