<?xml version="1.0" encoding="utf-8"?>
<svg version="1.1" xmlns:xlink="http://www.w3.org/1999/xlink" width="932px" height="288px" xmlns="http://www.w3.org/2000/svg">
  <g transform="matrix(1 0 0 1 -448 -2378 )">
    <path d="M 449 2382  A 3 3 0 0 1 452 2379 L 1376 2379  A 3 3 0 0 1 1379 2382 L 1379 2662  A 3 3 0 0 1 1376 2665 L 452 2665  A 3 3 0 0 1 449 2662 L 449 2382  Z " fill-rule="nonzero" fill="#ff3399" stroke="none" fill-opacity="0.0980392156862745" />
    <path d="M 448.5 2382  A 3.5 3.5 0 0 1 452 2378.5 L 1376 2378.5  A 3.5 3.5 0 0 1 1379.5 2382 L 1379.5 2662  A 3.5 3.5 0 0 1 1376 2665.5 L 452 2665.5  A 3.5 3.5 0 0 1 448.5 2662 L 448.5 2382  Z " stroke-width="1" stroke-dasharray="9,4" stroke="#ff3399" fill="none" stroke-dashoffset="0.5" />
  </g>
</svg>