<?xml version="1.0" encoding="utf-8"?>
<svg version="1.1" xmlns:xlink="http://www.w3.org/1999/xlink" width="947px" height="218px" xmlns="http://www.w3.org/2000/svg">
  <g transform="matrix(1 0 0 1 -433 -2100 )">
    <path d="M 434 2104  A 3 3 0 0 1 437 2101 L 1376 2101  A 3 3 0 0 1 1379 2104 L 1379 2314  A 3 3 0 0 1 1376 2317 L 437 2317  A 3 3 0 0 1 434 2314 L 434 2104  Z " fill-rule="nonzero" fill="#ff3399" stroke="none" fill-opacity="0.0980392156862745" />
    <path d="M 433.5 2104  A 3.5 3.5 0 0 1 437 2100.5 L 1376 2100.5  A 3.5 3.5 0 0 1 1379.5 2104 L 1379.5 2314  A 3.5 3.5 0 0 1 1376 2317.5 L 437 2317.5  A 3.5 3.5 0 0 1 433.5 2314 L 433.5 2104  Z " stroke-width="1" stroke-dasharray="9,4" stroke="#ff3399" fill="none" stroke-dashoffset="0.5" />
  </g>
</svg>