<?xml version="1.0" encoding="utf-8"?>
<svg version="1.1" xmlns:xlink="http://www.w3.org/1999/xlink" width="69px" height="10px" preserveAspectRatio="xMinYMid meet" viewBox="855 1676  69 8" xmlns="http://www.w3.org/2000/svg">
  <path d="M 732 1727.5  L 855 1727.5  A 5 5 0 0 0 860.5 1722.5 L 860.5 1685  A 5 5 0 0 1 865.5 1680.5 L 914 1680.5  A 5 5 0 0 1 919.5 1685.5 L 919.5 1695  " stroke-width="1" stroke="#ff3399" fill="none" />
  <path d="M 734 1724.5  A 3 3 0 0 0 731 1727.5 A 3 3 0 0 0 734 1730.5 A 3 3 0 0 0 737 1727.5 A 3 3 0 0 0 734 1724.5 Z " fill-rule="nonzero" fill="#ff3399" stroke="none" />
</svg>