<?xml version="1.0" encoding="utf-8"?>
<svg version="1.1" xmlns:xlink="http://www.w3.org/1999/xlink" width="5px" height="3px" xmlns="http://www.w3.org/2000/svg">
  <g transform="matrix(1 0 0 1 -718 -276 )">
    <path d="M 720.5 276  C 721.9 276  723 276.66  723 277.5  C 723 278.34  721.9 279  720.5 279  C 719.1 279  718 278.34  718 277.5  C 718 276.66  719.1 276  720.5 276  Z " fill-rule="nonzero" fill="#ffffff" stroke="none" />
    <path d="M 720.5 276.5  C 721.62 276.5  722.5 276.94  722.5 277.5  C 722.5 278.06  721.62 278.5  720.5 278.5  C 719.38 278.5  718.5 278.06  718.5 277.5  C 718.5 276.94  719.38 276.5  720.5 276.5  Z " stroke-width="1" stroke="#797979" fill="none" />
  </g>
</svg>