<?xml version="1.0" encoding="utf-8"?>
<svg version="1.1" xmlns:xlink="http://www.w3.org/1999/xlink" width="149px" height="23px" xmlns="http://www.w3.org/2000/svg">
  <g transform="matrix(1 0 0 1 -672 -230 )">
    <path d="M 673 232  A 1 1 0 0 1 674 231 L 819 231  A 1 1 0 0 1 820 232 L 820 251  A 1 1 0 0 1 819 252 L 674 252  A 1 1 0 0 1 673 251 L 673 232  Z " fill-rule="nonzero" fill="#ffffff" stroke="none" fill-opacity="0.996078431372549" />
    <path d="M 672.5 232  A 1.5 1.5 0 0 1 674 230.5 L 819 230.5  A 1.5 1.5 0 0 1 820.5 232 L 820.5 251  A 1.5 1.5 0 0 1 819 252.5 L 674 252.5  A 1.5 1.5 0 0 1 672.5 251 L 672.5 232  Z " stroke-width="1" stroke="#797979" fill="none" stroke-opacity="0.392156862745098" />
  </g>
</svg>