<?xml version="1.0" encoding="utf-8"?>
<svg version="1.1" xmlns:xlink="http://www.w3.org/1999/xlink" width="225px" height="23px" xmlns="http://www.w3.org/2000/svg">
  <g transform="matrix(1 0 0 1 -359 -231 )">
    <path d="M 360 233  A 1 1 0 0 1 361 232 L 582 232  A 1 1 0 0 1 583 233 L 583 252  A 1 1 0 0 1 582 253 L 361 253  A 1 1 0 0 1 360 252 L 360 233  Z " fill-rule="nonzero" fill="#ffffff" stroke="none" fill-opacity="0.996078431372549" />
    <path d="M 359.5 233  A 1.5 1.5 0 0 1 361 231.5 L 582 231.5  A 1.5 1.5 0 0 1 583.5 233 L 583.5 252  A 1.5 1.5 0 0 1 582 253.5 L 361 253.5  A 1.5 1.5 0 0 1 359.5 252 L 359.5 233  Z " stroke-width="1" stroke="#797979" fill="none" stroke-opacity="0.392156862745098" />
  </g>
</svg>