<?xml version="1.0" encoding="utf-8"?>
<svg version="1.1" xmlns:xlink="http://www.w3.org/1999/xlink" width="149px" height="23px" xmlns="http://www.w3.org/2000/svg">
  <g transform="matrix(1 0 0 1 -914 -230 )">
    <path d="M 915 232  A 1 1 0 0 1 916 231 L 1061 231  A 1 1 0 0 1 1062 232 L 1062 251  A 1 1 0 0 1 1061 252 L 916 252  A 1 1 0 0 1 915 251 L 915 232  Z " fill-rule="nonzero" fill="#ffffff" stroke="none" fill-opacity="0.996078431372549" />
    <path d="M 914.5 232  A 1.5 1.5 0 0 1 916 230.5 L 1061 230.5  A 1.5 1.5 0 0 1 1062.5 232 L 1062.5 251  A 1.5 1.5 0 0 1 1061 252.5 L 916 252.5  A 1.5 1.5 0 0 1 914.5 251 L 914.5 232  Z " stroke-width="1" stroke="#797979" fill="none" stroke-opacity="0.392156862745098" />
  </g>
</svg>