<?xml version="1.0" encoding="utf-8"?>
<svg version="1.1" xmlns:xlink="http://www.w3.org/1999/xlink" width="110px" height="23px" xmlns="http://www.w3.org/2000/svg">
  <g transform="matrix(1 0 0 1 -1119 -230 )">
    <path d="M 1120 232  A 1 1 0 0 1 1121 231 L 1227 231  A 1 1 0 0 1 1228 232 L 1228 251  A 1 1 0 0 1 1227 252 L 1121 252  A 1 1 0 0 1 1120 251 L 1120 232  Z " fill-rule="nonzero" fill="#ffffff" stroke="none" fill-opacity="0.996078431372549" />
    <path d="M 1119.5 232  A 1.5 1.5 0 0 1 1121 230.5 L 1227 230.5  A 1.5 1.5 0 0 1 1228.5 232 L 1228.5 251  A 1.5 1.5 0 0 1 1227 252.5 L 1121 252.5  A 1.5 1.5 0 0 1 1119.5 251 L 1119.5 232  Z " stroke-width="1" stroke="#797979" fill="none" stroke-opacity="0.392156862745098" />
  </g>
</svg>