<?xml version="1.0" encoding="utf-8"?>
<svg version="1.1" xmlns:xlink="http://www.w3.org/1999/xlink" width="110px" height="23px" xmlns="http://www.w3.org/2000/svg">
  <g transform="matrix(1 0 0 1 -877 -230 )">
    <path d="M 878 232  A 1 1 0 0 1 879 231 L 985 231  A 1 1 0 0 1 986 232 L 986 251  A 1 1 0 0 1 985 252 L 879 252  A 1 1 0 0 1 878 251 L 878 232  Z " fill-rule="nonzero" fill="#ffffff" stroke="none" fill-opacity="0.996078431372549" />
    <path d="M 877.5 232  A 1.5 1.5 0 0 1 879 230.5 L 985 230.5  A 1.5 1.5 0 0 1 986.5 232 L 986.5 251  A 1.5 1.5 0 0 1 985 252.5 L 879 252.5  A 1.5 1.5 0 0 1 877.5 251 L 877.5 232  Z " stroke-width="1" stroke="#797979" fill="none" stroke-opacity="0.392156862745098" />
  </g>
</svg>