<?xml version="1.0" encoding="utf-8"?>
<svg version="1.1" xmlns:xlink="http://www.w3.org/1999/xlink" width="10px" height="10px" xmlns="http://www.w3.org/2000/svg">
  <g transform="matrix(1 0 0 1 -1187 -248 )">
    <path d="M 1192 248  C 1194.8 248  1197 250.2  1197 253  C 1197 255.8  1194.8 258  1192 258  C 1189.2 258  1187 255.8  1187 253  C 1187 250.2  1189.2 248  1192 248  Z " fill-rule="nonzero" fill="#d9001b" stroke="none" />
    <path d="M 1192 248.5  C 1194.52 248.5  1196.5 250.48  1196.5 253  C 1196.5 255.52  1194.52 257.5  1192 257.5  C 1189.48 257.5  1187.5 255.52  1187.5 253  C 1187.5 250.48  1189.48 248.5  1192 248.5  Z " stroke-width="1" stroke="#797979" fill="none" />
  </g>
</svg>