<?xml version="1.0" encoding="utf-8"?>
<svg version="1.1" xmlns:xlink="http://www.w3.org/1999/xlink" width="35px" height="25px" xmlns="http://www.w3.org/2000/svg">
  <defs>
    <mask fill="white" id="clip320">
      <path d="M 0 21.875  L 0 3.125  C 0 1.375  0.14 0  0.318181818181818 0  L 34.6818181818182 0  C 34.86 0  35 1.375  35 3.125  L 35 21.875  C 35 23.625  34.86 25  34.6818181818182 25  L 0.318181818181818 25  C 0.14 25  0 23.625  0 21.875  Z " fill-rule="evenodd" />
    </mask>
  </defs>
  <g transform="matrix(1 0 0 1 -638 -589 )">
    <path d="M 0 21.875  L 0 3.125  C 0 1.375  0.14 0  0.318181818181818 0  L 34.6818181818182 0  C 34.86 0  35 1.375  35 3.125  L 35 21.875  C 35 23.625  34.86 25  34.6818181818182 25  L 0.318181818181818 25  C 0.14 25  0 23.625  0 21.875  Z " fill-rule="nonzero" fill="#ffffff" stroke="none" transform="matrix(1 0 0 1 638 589 )" />
    <path d="M 0 21.875  L 0 3.125  C 0 1.375  0.14 0  0.318181818181818 0  L 34.6818181818182 0  C 34.86 0  35 1.375  35 3.125  L 35 21.875  C 35 23.625  34.86 25  34.6818181818182 25  L 0.318181818181818 25  C 0.14 25  0 23.625  0 21.875  Z " stroke-width="2" stroke-dasharray="9,4" stroke="#d9001b" fill="none" transform="matrix(1 0 0 1 638 589 )" mask="url(#clip320)" />
  </g>
</svg>