<?xml version="1.0" encoding="utf-8"?>
<svg version="1.1" xmlns:xlink="http://www.w3.org/1999/xlink" width="294px" height="116px" xmlns="http://www.w3.org/2000/svg">
  <g transform="matrix(1 0 0 1 -379 -589 )">
    <path d="M 380 593  A 3 3 0 0 1 383 590 L 669 590  A 3 3 0 0 1 672 593 L 672 701  A 3 3 0 0 1 669 704 L 383 704  A 3 3 0 0 1 380 701 L 380 593  Z " fill-rule="nonzero" fill="#000000" stroke="none" fill-opacity="0.0196078431372549" />
    <path d="M 379.5 593  A 3.5 3.5 0 0 1 383 589.5 L 669 589.5  A 3.5 3.5 0 0 1 672.5 593 L 672.5 701  A 3.5 3.5 0 0 1 669 704.5 L 383 704.5  A 3.5 3.5 0 0 1 379.5 701 L 379.5 593  Z " stroke-width="1" stroke-dasharray="9,4" stroke="#d9d9d9" fill="none" stroke-dashoffset="0.5" />
  </g>
</svg>