<?xml version="1.0" encoding="utf-8"?>
<svg version="1.1" xmlns:xlink="http://www.w3.org/1999/xlink" width="88px" height="32px" xmlns="http://www.w3.org/2000/svg">
  <defs>
    <mask fill="white" id="clip346">
      <path d="M 0 28  L 0 4  C 0 1.76  0.352 0  0.8 0  L 87.2 0  C 87.648 0  88 1.76  88 4  L 88 28  C 88 30.24  87.648 32  87.2 32  L 0.8 32  C 0.352 32  0 30.24  0 28  Z " fill-rule="evenodd" />
    </mask>
  </defs>
  <g transform="matrix(1 0 0 1 -1328 -589 )">
    <path d="M 0 28  L 0 4  C 0 1.76  0.352 0  0.8 0  L 87.2 0  C 87.648 0  88 1.76  88 4  L 88 28  C 88 30.24  87.648 32  87.2 32  L 0.8 32  C 0.352 32  0 30.24  0 28  Z " fill-rule="nonzero" fill="#ffffff" stroke="none" transform="matrix(1 0 0 1 1328 589 )" />
    <path d="M 0 28  L 0 4  C 0 1.76  0.352 0  0.8 0  L 87.2 0  C 87.648 0  88 1.76  88 4  L 88 28  C 88 30.24  87.648 32  87.2 32  L 0.8 32  C 0.352 32  0 30.24  0 28  Z " stroke-width="2" stroke-dasharray="9,4" stroke="#d9d9d9" fill="none" transform="matrix(1 0 0 1 1328 589 )" mask="url(#clip346)" />
  </g>
</svg>