<?xml version="1.0" encoding="utf-8"?>
<svg version="1.1" xmlns:xlink="http://www.w3.org/1999/xlink" width="655px" height="134px" xmlns="http://www.w3.org/2000/svg">
  <g transform="matrix(1 0 0 1 -584 -1433 )">
    <path d="M 585 1437  A 3 3 0 0 1 588 1434 L 1235 1434  A 3 3 0 0 1 1238 1437 L 1238 1563  A 3 3 0 0 1 1235 1566 L 588 1566  A 3 3 0 0 1 585 1563 L 585 1437  Z " fill-rule="nonzero" fill="#ff3399" stroke="none" fill-opacity="0.0980392156862745" />
    <path d="M 584.5 1437  A 3.5 3.5 0 0 1 588 1433.5 L 1235 1433.5  A 3.5 3.5 0 0 1 1238.5 1437 L 1238.5 1563  A 3.5 3.5 0 0 1 1235 1566.5 L 588 1566.5  A 3.5 3.5 0 0 1 584.5 1563 L 584.5 1437  Z " stroke-width="1" stroke-dasharray="9,4" stroke="#ff3399" fill="none" stroke-dashoffset="0.5" />
  </g>
</svg>