<?xml version="1.0" encoding="utf-8"?>
<svg version="1.1" xmlns:xlink="http://www.w3.org/1999/xlink" width="10px" height="915px" preserveAspectRatio="xMidYMin meet" viewBox="236 170  8 915" xmlns="http://www.w3.org/2000/svg">
  <path d="M 252 175.5  L 245 175.5  A 5 5 0 0 0 240.5 180.5 L 240.5 1075  A 5 5 0 0 1 235.5 1080.5 L 198 1080.5  A 5 5 0 0 0 193.5 1085.5 L 193.5 1094  " stroke-width="1" stroke="#ff3399" fill="none" />
  <path d="M 250 172.5  A 3 3 0 0 0 247 175.5 A 3 3 0 0 0 250 178.5 A 3 3 0 0 0 253 175.5 A 3 3 0 0 0 250 172.5 Z " fill-rule="nonzero" fill="#ff3399" stroke="none" />
</svg>