<?xml version="1.0" encoding="utf-8"?>
<svg version="1.1" xmlns:xlink="http://www.w3.org/1999/xlink" width="1060px" height="135px" xmlns="http://www.w3.org/2000/svg">
  <g transform="matrix(1 0 0 1 -253 -107 )">
    <path d="M 254 111  A 3 3 0 0 1 257 108 L 1309 108  A 3 3 0 0 1 1312 111 L 1312 238  A 3 3 0 0 1 1309 241 L 257 241  A 3 3 0 0 1 254 238 L 254 111  Z " fill-rule="nonzero" fill="#ff3399" stroke="none" fill-opacity="0.0980392156862745" />
    <path d="M 253.5 111  A 3.5 3.5 0 0 1 257 107.5 L 1309 107.5  A 3.5 3.5 0 0 1 1312.5 111 L 1312.5 238  A 3.5 3.5 0 0 1 1309 241.5 L 257 241.5  A 3.5 3.5 0 0 1 253.5 238 L 253.5 111  Z " stroke-width="1" stroke-dasharray="9,4" stroke="#ff3399" fill="none" stroke-dashoffset="0.5" />
  </g>
</svg>