<?xml version="1.0" encoding="utf-8"?>
<svg version="1.1" xmlns:xlink="http://www.w3.org/1999/xlink" width="655px" height="134px" xmlns="http://www.w3.org/2000/svg">
  <g transform="matrix(1 0 0 1 -584 -1662 )">
    <path d="M 585 1666  A 3 3 0 0 1 588 1663 L 1235 1663  A 3 3 0 0 1 1238 1666 L 1238 1792  A 3 3 0 0 1 1235 1795 L 588 1795  A 3 3 0 0 1 585 1792 L 585 1666  Z " fill-rule="nonzero" fill="#ff3399" stroke="none" fill-opacity="0.0980392156862745" />
    <path d="M 584.5 1666  A 3.5 3.5 0 0 1 588 1662.5 L 1235 1662.5  A 3.5 3.5 0 0 1 1238.5 1666 L 1238.5 1792  A 3.5 3.5 0 0 1 1235 1795.5 L 588 1795.5  A 3.5 3.5 0 0 1 584.5 1792 L 584.5 1666  Z " stroke-width="1" stroke-dasharray="9,4" stroke="#ff3399" fill="none" stroke-dashoffset="0.5" />
  </g>
</svg>