<?xml version="1.0" encoding="utf-8"?>
<svg version="1.1" xmlns:xlink="http://www.w3.org/1999/xlink" width="1092px" height="44px" xmlns="http://www.w3.org/2000/svg">
  <g transform="matrix(1 0 0 1 -269 -346 )">
    <path d="M 270 350  A 3 3 0 0 1 273 347 L 1357 347  A 3 3 0 0 1 1360 350 L 1360 386  A 3 3 0 0 1 1357 389 L 273 389  A 3 3 0 0 1 270 386 L 270 350  Z " fill-rule="nonzero" fill="#ff3399" stroke="none" fill-opacity="0.0980392156862745" />
    <path d="M 269.5 350  A 3.5 3.5 0 0 1 273 346.5 L 1357 346.5  A 3.5 3.5 0 0 1 1360.5 350 L 1360.5 386  A 3.5 3.5 0 0 1 1357 389.5 L 273 389.5  A 3.5 3.5 0 0 1 269.5 386 L 269.5 350  Z " stroke-width="1" stroke-dasharray="9,4" stroke="#ff3399" fill="none" stroke-dashoffset="0.5" />
  </g>
</svg>