<?xml version="1.0" encoding="utf-8"?>
<svg version="1.1" xmlns:xlink="http://www.w3.org/1999/xlink" width="655px" height="65px" xmlns="http://www.w3.org/2000/svg">
  <g transform="matrix(1 0 0 1 -584 -1816 )">
    <path d="M 585 1820  A 3 3 0 0 1 588 1817 L 1235 1817  A 3 3 0 0 1 1238 1820 L 1238 1877  A 3 3 0 0 1 1235 1880 L 588 1880  A 3 3 0 0 1 585 1877 L 585 1820  Z " fill-rule="nonzero" fill="#ff3399" stroke="none" fill-opacity="0.0980392156862745" />
    <path d="M 584.5 1820  A 3.5 3.5 0 0 1 588 1816.5 L 1235 1816.5  A 3.5 3.5 0 0 1 1238.5 1820 L 1238.5 1877  A 3.5 3.5 0 0 1 1235 1880.5 L 588 1880.5  A 3.5 3.5 0 0 1 584.5 1877 L 584.5 1820  Z " stroke-width="1" stroke-dasharray="9,4" stroke="#ff3399" fill="none" stroke-dashoffset="0.5" />
  </g>
</svg>