<?xml version="1.0" encoding="utf-8"?>
<svg version="1.1" xmlns:xlink="http://www.w3.org/1999/xlink" width="655px" height="151px" xmlns="http://www.w3.org/2000/svg">
  <g transform="matrix(1 0 0 1 -587 -1462 )">
    <path d="M 588 1466  A 3 3 0 0 1 591 1463 L 1238 1463  A 3 3 0 0 1 1241 1466 L 1241 1609  A 3 3 0 0 1 1238 1612 L 591 1612  A 3 3 0 0 1 588 1609 L 588 1466  Z " fill-rule="nonzero" fill="#ff3399" stroke="none" fill-opacity="0.0980392156862745" />
    <path d="M 587.5 1466  A 3.5 3.5 0 0 1 591 1462.5 L 1238 1462.5  A 3.5 3.5 0 0 1 1241.5 1466 L 1241.5 1609  A 3.5 3.5 0 0 1 1238 1612.5 L 591 1612.5  A 3.5 3.5 0 0 1 587.5 1609 L 587.5 1466  Z " stroke-width="1" stroke-dasharray="9,4" stroke="#ff3399" fill="none" stroke-dashoffset="0.5" />
  </g>
</svg>