<?xml version="1.0" encoding="utf-8"?>
<svg version="1.1" xmlns:xlink="http://www.w3.org/1999/xlink" width="10px" height="682px" preserveAspectRatio="xMidYMin meet" viewBox="233 381  8 682" xmlns="http://www.w3.org/2000/svg">
  <path d="M 269 386.5  L 242 386.5  A 5 5 0 0 0 237.5 391.5 L 237.5 1053  A 5 5 0 0 1 232 1058.5 L 195 1058.5  A 3 3 0 0 0 192 1055.5 A 3 3 0 0 0 189 1058.5 L 145 1058.5  A 5 5 0 0 0 140.5 1063.5 L 140.5 1335  A 5 5 0 0 0 145.5 1340.5 L 207.5 1356.5  " stroke-width="1" stroke="#ff3399" fill="none" />
  <path d="M 267 383.5  A 3 3 0 0 0 264 386.5 A 3 3 0 0 0 267 389.5 A 3 3 0 0 0 270 386.5 A 3 3 0 0 0 267 383.5 Z " fill-rule="nonzero" fill="#ff3399" stroke="none" />
</svg>