<?xml version="1.0" encoding="utf-8"?>
<svg version="1.1" xmlns:xlink="http://www.w3.org/1999/xlink" width="111px" height="36px" xmlns="http://www.w3.org/2000/svg">
  <defs>
    <mask fill="white" id="clip870">
      <path d="M 18 36  C 7.92000000000002 36  0 28.08  0 18  C 0 7.92000000000002  7.92000000000002 0  18 0  L 93 0  C 103.08 0  111 7.92000000000002  111 18  C 111 21.052067025265  110.273906998343 23.9061086864418  108.981611652146 26.4022343264141  C 106.005869310495 32.1500123237597  100.027932974735 36  93 36  L 18 36  Z " fill-rule="evenodd" />
    </mask>
  </defs>
  <g transform="matrix(1 0 0 1 -264 -264 )">
    <path d="M 18 36  C 7.92000000000002 36  0 28.08  0 18  C 0 7.92000000000002  7.92000000000002 0  18 0  L 93 0  C 103.08 0  111 7.92000000000002  111 18  C 111 21.052067025265  110.273906998343 23.9061086864418  108.981611652146 26.4022343264141  C 106.005869310495 32.1500123237597  100.027932974735 36  93 36  L 18 36  Z " fill-rule="nonzero" fill="#ffffff" stroke="none" transform="matrix(1 0 0 1 264 264 )" />
    <path d="M 18 36  C 7.92000000000002 36  0 28.08  0 18  C 0 7.92000000000002  7.92000000000002 0  18 0  L 93 0  C 103.08 0  111 7.92000000000002  111 18  C 111 21.052067025265  110.273906998343 23.9061086864418  108.981611652146 26.4022343264141  C 106.005869310495 32.1500123237597  100.027932974735 36  93 36  L 18 36  Z " stroke-width="2" stroke="#797979" fill="none" transform="matrix(1 0 0 1 264 264 )" mask="url(#clip870)" />
  </g>
</svg>