<?xml version="1.0" encoding="utf-8"?>
<svg version="1.1" xmlns:xlink="http://www.w3.org/1999/xlink" width="230px" height="31px" xmlns="http://www.w3.org/2000/svg">
  <g transform="matrix(1 0 0 1 -150 -925 )">
    <path d="M 151 940.5  A 14.5 14.5 0 0 1 165.5 926 L 364.5 926  A 14.5 14.5 0 0 1 379 940.5 A 14.5 14.5 0 0 1 364.5 955 L 165.5 955  A 14.5 14.5 0 0 1 151 940.5 Z " fill-rule="nonzero" fill="#ffffff" stroke="none" />
    <path d="M 150.5 940.5  A 15 15 0 0 1 165.5 925.5 L 364.5 925.5  A 15 15 0 0 1 379.5 940.5 A 15 15 0 0 1 364.5 955.5 L 165.5 955.5  A 15 15 0 0 1 150.5 940.5 Z " stroke-width="1" stroke="#797979" fill="none" stroke-opacity="0.4" />
  </g>
</svg>