<?xml version="1.0" encoding="utf-8"?>
<svg version="1.1" xmlns:xlink="http://www.w3.org/1999/xlink" width="90px" height="73px" xmlns="http://www.w3.org/2000/svg">
  <g transform="matrix(1 0 0 1 -198 -481 )">
    <path d="M 198 481  L 288 481  L 288 554  L 198 554  L 198 481  " fill-rule="nonzero" fill="#cccccc" stroke="none" />
    <path d="M 203 486  L 283 486  L 283 549  L 203 549  L 203 486  " fill-rule="nonzero" fill="#ffffff" stroke="none" />
    <path d="M 250.275 502.9  C 247.209 502.9  244.8 500.491  244.8 497.425  C 244.8 494.359  247.209 491.95  250.275 491.95  C 253.341 491.95  255.75 494.359  255.75 497.425  C 255.75 500.491  253.341 502.9  250.275 502.9  " fill-rule="nonzero" fill="#cccccc" stroke="none" />
    <path d="M 205 547  L 205 514.55  L 224 499.8  L 250.6 518.286666666667  L 265.8 508.65  L 281 518.286666666667  L 281 547  L 205 547  " fill-rule="nonzero" fill="#169bd5" stroke="none" />
  </g>
</svg>