<?xml version="1.0" encoding="utf-8"?>
<svg version="1.1" xmlns:xlink="http://www.w3.org/1999/xlink" width="63px" height="32px" xmlns="http://www.w3.org/2000/svg">
  <g transform="matrix(1 0 0 1 -2002 -512 )">
    <path d="M 2003 516  A 3 3 0 0 1 2006 513 L 2061 513  A 3 3 0 0 1 2064 516 L 2064 540  A 3 3 0 0 1 2061 543 L 2006 543  A 3 3 0 0 1 2003 540 L 2003 516  Z " fill-rule="nonzero" fill="#f56c6c" stroke="none" fill-opacity="0.0980392156862745" />
    <path d="M 2002.5 516  A 3.5 3.5 0 0 1 2006 512.5 L 2061 512.5  A 3.5 3.5 0 0 1 2064.5 516 L 2064.5 540  A 3.5 3.5 0 0 1 2061 543.5 L 2006 543.5  A 3.5 3.5 0 0 1 2002.5 540 L 2002.5 516  Z " stroke-width="1" stroke="#f56c6c" fill="none" stroke-opacity="0.2" />
  </g>
</svg>