<?xml version="1.0" encoding="utf-8"?>
<svg version="1.1" xmlns:xlink="http://www.w3.org/1999/xlink" width="63px" height="32px" xmlns="http://www.w3.org/2000/svg">
  <g transform="matrix(1 0 0 1 -1856 -512 )">
    <path d="M 1857 516  A 3 3 0 0 1 1860 513 L 1915 513  A 3 3 0 0 1 1918 516 L 1918 540  A 3 3 0 0 1 1915 543 L 1860 543  A 3 3 0 0 1 1857 540 L 1857 516  Z " fill-rule="nonzero" fill="#e6a23c" stroke="none" fill-opacity="0.0980392156862745" />
    <path d="M 1856.5 516  A 3.5 3.5 0 0 1 1860 512.5 L 1915 512.5  A 3.5 3.5 0 0 1 1918.5 516 L 1918.5 540  A 3.5 3.5 0 0 1 1915 543.5 L 1860 543.5  A 3.5 3.5 0 0 1 1856.5 540 L 1856.5 516  Z " stroke-width="1" stroke="#e6a23c" fill="none" stroke-opacity="0.2" />
  </g>
</svg>