<?xml version="1.0" encoding="utf-8"?>
<svg version="1.1" xmlns:xlink="http://www.w3.org/1999/xlink" width="63px" height="32px" xmlns="http://www.w3.org/2000/svg">
  <g transform="matrix(1 0 0 1 -1783 -512 )">
    <path d="M 1784 516  A 3 3 0 0 1 1787 513 L 1842 513  A 3 3 0 0 1 1845 516 L 1845 540  A 3 3 0 0 1 1842 543 L 1787 543  A 3 3 0 0 1 1784 540 L 1784 516  Z " fill-rule="nonzero" fill="#67c23a" stroke="none" fill-opacity="0.0980392156862745" />
    <path d="M 1783.5 516  A 3.5 3.5 0 0 1 1787 512.5 L 1842 512.5  A 3.5 3.5 0 0 1 1845.5 516 L 1845.5 540  A 3.5 3.5 0 0 1 1842 543.5 L 1787 543.5  A 3.5 3.5 0 0 1 1783.5 540 L 1783.5 516  Z " stroke-width="1" stroke="#67c23a" fill="none" stroke-opacity="0.2" />
  </g>
</svg>