<?xml version="1.0" encoding="utf-8"?>
<svg version="1.1" xmlns:xlink="http://www.w3.org/1999/xlink" width="20px" height="20px" xmlns="http://www.w3.org/2000/svg">
  <g transform="matrix(1 0 0 1 -1950 -456 )">
    <path d="M 1960 457  C 1965.04 457  1969 460.96  1969 466  C 1969 471.04  1965.04 475  1960 475  C 1954.96 475  1951 471.04  1951 466  C 1951 460.96  1954.96 457  1960 457  Z " fill-rule="nonzero" fill="#ffffff" stroke="none" />
    <path d="M 1960 457  C 1965.04 457  1969 460.96  1969 466  C 1969 471.04  1965.04 475  1960 475  C 1954.96 475  1951 471.04  1951 466  C 1951 460.96  1954.96 457  1960 457  Z " stroke-width="2" stroke="#409eff" fill="none" />
  </g>
</svg>