<?xml version="1.0" encoding="utf-8"?>
<svg version="1.1" xmlns:xlink="http://www.w3.org/1999/xlink" width="10px" height="49px" preserveAspectRatio="xMidYMin meet" viewBox="493 163  8 49" xmlns="http://www.w3.org/2000/svg">
  <path d="M 497 169  L 497 202  A 5 5 0 0 0 502 207 L 646 207  A 5 5 0 0 1 651 212 L 651 235  " stroke-width="2" stroke="#0033ff" fill="none" />
  <path d="M 497 163  A 3.5 3.5 0 0 0 493.5 166.5 A 3.5 3.5 0 0 0 497 170 A 3.5 3.5 0 0 0 500.5 166.5 A 3.5 3.5 0 0 0 497 163 Z M 497 165  A 1.5 1.5 0 0 1 498.5 166.5 A 1.5 1.5 0 0 1 497 168 A 1.5 1.5 0 0 1 495.5 166.5 A 1.5 1.5 0 0 1 497 165 Z M 641.5 233  L 651 247  L 660.5 233  L 641.5 233  Z " fill-rule="nonzero" fill="#0033ff" stroke="none" />
</svg>