<?xml version="1.0" encoding="utf-8"?>
<svg version="1.1" xmlns:xlink="http://www.w3.org/1999/xlink" width="20px" height="21px" preserveAspectRatio="xMidYMin meet" viewBox="642 299  18 21" xmlns="http://www.w3.org/2000/svg">
  <path d="M 651 312  L 651 358  " stroke-width="2" stroke="#0033ff" fill="none" />
  <path d="M 651 306  A 3.5 3.5 0 0 0 647.5 309.5 A 3.5 3.5 0 0 0 651 313 A 3.5 3.5 0 0 0 654.5 309.5 A 3.5 3.5 0 0 0 651 306 Z M 651 308  A 1.5 1.5 0 0 1 652.5 309.5 A 1.5 1.5 0 0 1 651 311 A 1.5 1.5 0 0 1 649.5 309.5 A 1.5 1.5 0 0 1 651 308 Z M 641.5 356  L 651 370  L 660.5 356  L 641.5 356  Z " fill-rule="nonzero" fill="#0033ff" stroke="none" />
</svg>