<?xml version="1.0" encoding="utf-8"?>
<svg version="1.1" xmlns:xlink="http://www.w3.org/1999/xlink" width="34px" height="34px" preserveAspectRatio="xMinYMid meet" viewBox="328 636  34 32" xmlns="http://www.w3.org/2000/svg">
  <defs>
    <mask fill="white" id="clip965">
      <path d="M 321.5 600  L 368.5 600  L 368.5 628  L 321.5 628  Z M 321.5 560  L 368.5 560  L 368.5 675  L 321.5 675  Z " fill-rule="evenodd" />
    </mask>
  </defs>
  <path d="M 345 600  L 345 576  M 345 628  L 345 646  " stroke-width="2" stroke="#0033ff" fill="none" />
  <path d="M 345 570  A 3.5 3.5 0 0 0 341.5 573.5 A 3.5 3.5 0 0 0 345 577 A 3.5 3.5 0 0 0 348.5 573.5 A 3.5 3.5 0 0 0 345 570 Z M 345 572  A 1.5 1.5 0 0 1 346.5 573.5 A 1.5 1.5 0 0 1 345 575 A 1.5 1.5 0 0 1 343.5 573.5 A 1.5 1.5 0 0 1 345 572 Z M 335.5 644  L 345 658  L 354.5 644  L 335.5 644  Z " fill-rule="nonzero" fill="#0033ff" stroke="none" mask="url(#clip965)" />
</svg>