<?xml version="1.0" encoding="utf-8"?>
<svg version="1.1" xmlns:xlink="http://www.w3.org/1999/xlink" width="20px" height="21px" preserveAspectRatio="xMidYMin meet" viewBox="642 563  18 21" xmlns="http://www.w3.org/2000/svg">
  <defs>
    <mask fill="white" id="clip323">
      <path d="M 627.5 600  L 674.5 600  L 674.5 628  L 627.5 628  Z M 627.5 560  L 674.5 560  L 674.5 675  L 627.5 675  Z " fill-rule="evenodd" />
    </mask>
  </defs>
  <path d="M 651 600  L 651 576  M 651 628  L 651 646  " stroke-width="2" stroke="#0033ff" fill="none" />
  <path d="M 651 570  A 3.5 3.5 0 0 0 647.5 573.5 A 3.5 3.5 0 0 0 651 577 A 3.5 3.5 0 0 0 654.5 573.5 A 3.5 3.5 0 0 0 651 570 Z M 651 572  A 1.5 1.5 0 0 1 652.5 573.5 A 1.5 1.5 0 0 1 651 575 A 1.5 1.5 0 0 1 649.5 573.5 A 1.5 1.5 0 0 1 651 572 Z M 641.5 644  L 651 658  L 660.5 644  L 641.5 644  Z " fill-rule="nonzero" fill="#0033ff" stroke="none" mask="url(#clip323)" />
</svg>