<?xml version="1.0" encoding="utf-8"?>
<svg version="1.1" xmlns:xlink="http://www.w3.org/1999/xlink" width="10px" height="421px" preserveAspectRatio="xMidYMin meet" viewBox="143 272  8 421" xmlns="http://www.w3.org/2000/svg">
  <path d="M 223 688  L 152 688  A 5 5 0 0 1 147 683 L 147 282  A 5 5 0 0 1 152 277 L 217 277  " stroke-width="2" stroke="#0033ff" fill="none" />
  <path d="M 225.5 684.5  A 3.5 3.5 0 0 0 222 688 A 3.5 3.5 0 0 0 225.5 691.5 A 3.5 3.5 0 0 0 229 688 A 3.5 3.5 0 0 0 225.5 684.5 Z M 225.5 686.5  A 1.5 1.5 0 0 1 227 688 A 1.5 1.5 0 0 1 225.5 689.5 A 1.5 1.5 0 0 1 224 688 A 1.5 1.5 0 0 1 225.5 686.5 Z M 215 286.5  L 229 277  L 215 267.5  L 215 286.5  Z " fill-rule="nonzero" fill="#0033ff" stroke="none" />
</svg>