<?xml version="1.0" encoding="utf-8"?>
<svg version="1.1" xmlns:xlink="http://www.w3.org/1999/xlink" width="20px" height="21px" preserveAspectRatio="xMidYMin meet" viewBox="336 299  18 21" xmlns="http://www.w3.org/2000/svg">
  <path d="M 345 312  L 345 358  " stroke-width="2" stroke="#0033ff" fill="none" />
  <path d="M 345 306  A 3.5 3.5 0 0 0 341.5 309.5 A 3.5 3.5 0 0 0 345 313 A 3.5 3.5 0 0 0 348.5 309.5 A 3.5 3.5 0 0 0 345 306 Z M 345 308  A 1.5 1.5 0 0 1 346.5 309.5 A 1.5 1.5 0 0 1 345 311 A 1.5 1.5 0 0 1 343.5 309.5 A 1.5 1.5 0 0 1 345 308 Z M 335.5 356  L 345 370  L 354.5 356  L 335.5 356  Z " fill-rule="nonzero" fill="#0033ff" stroke="none" />
</svg>