<?xml version="1.0" encoding="utf-8"?>
<svg version="1.1" xmlns:xlink="http://www.w3.org/1999/xlink" width="34px" height="34px" preserveAspectRatio="xMinYMid meet" viewBox="328 488  34 32" xmlns="http://www.w3.org/2000/svg">
  <path d="M 345 435  L 345 498  " stroke-width="2" stroke="#0033ff" fill="none" />
  <path d="M 345 429  A 3.5 3.5 0 0 0 341.5 432.5 A 3.5 3.5 0 0 0 345 436 A 3.5 3.5 0 0 0 348.5 432.5 A 3.5 3.5 0 0 0 345 429 Z M 345 431  A 1.5 1.5 0 0 1 346.5 432.5 A 1.5 1.5 0 0 1 345 434 A 1.5 1.5 0 0 1 343.5 432.5 A 1.5 1.5 0 0 1 345 431 Z M 335.5 496  L 345 510  L 354.5 496  L 335.5 496  Z " fill-rule="nonzero" fill="#0033ff" stroke="none" />
</svg>