<?xml version="1.0" encoding="utf-8"?>
<svg version="1.1" xmlns:xlink="http://www.w3.org/1999/xlink" width="20px" height="21px" preserveAspectRatio="xMidYMin meet" viewBox="642 422  18 21" xmlns="http://www.w3.org/2000/svg">
  <path d="M 651 435  L 651 498  " stroke-width="2" stroke="#0033ff" fill="none" />
  <path d="M 651 429  A 3.5 3.5 0 0 0 647.5 432.5 A 3.5 3.5 0 0 0 651 436 A 3.5 3.5 0 0 0 654.5 432.5 A 3.5 3.5 0 0 0 651 429 Z M 651 431  A 1.5 1.5 0 0 1 652.5 432.5 A 1.5 1.5 0 0 1 651 434 A 1.5 1.5 0 0 1 649.5 432.5 A 1.5 1.5 0 0 1 651 431 Z M 641.5 496  L 651 510  L 660.5 496  L 641.5 496  Z " fill-rule="nonzero" fill="#0033ff" stroke="none" />
</svg>