<?xml version="1.0" encoding="utf-8"?>
<svg version="1.1" xmlns:xlink="http://www.w3.org/1999/xlink" width="39px" height="10px" preserveAspectRatio="xMinYMid meet" viewBox="766 684  39 8" xmlns="http://www.w3.org/2000/svg">
  <path d="M 772 688  L 795 688  A 5 5 0 0 0 800 683 L 800 282  A 5 5 0 0 0 795 277 L 778 277  " stroke-width="2" stroke="#0033ff" fill="none" />
  <path d="M 769.5 684.5  A 3.5 3.5 0 0 0 766 688 A 3.5 3.5 0 0 0 769.5 691.5 A 3.5 3.5 0 0 0 773 688 A 3.5 3.5 0 0 0 769.5 684.5 Z M 769.5 686.5  A 1.5 1.5 0 0 1 771 688 A 1.5 1.5 0 0 1 769.5 689.5 A 1.5 1.5 0 0 1 768 688 A 1.5 1.5 0 0 1 769.5 686.5 Z M 780 267.5  L 766 277  L 780 286.5  L 780 267.5  Z " fill-rule="nonzero" fill="#0033ff" stroke="none" />
</svg>