<?xml version="1.0" encoding="utf-8"?>
<svg version="1.1" xmlns:xlink="http://www.w3.org/1999/xlink" width="12px" height="7px" xmlns="http://www.w3.org/2000/svg">
  <g transform="matrix(1 0 0 1 -574 -469 )">
    <path d="M 11.8797595190381 0.717525773195884  C 11.9599198396794 0.797250859106526  12 0.888934707903779  12 0.992577319587632  C 12 1.09621993127148  11.9599198396794 1.18790378006873  11.8797595190381 1.26762886597939  L 6.27655310621242 6.84041237113404  C 6.19639278557113 6.9201374570447  6.10420841683367 6.96000000000002  6 6.96000000000002  C 5.89579158316633 6.96000000000002  5.80360721442887 6.9201374570447  5.72344689378758 6.84041237113404  L 0.120240480961911 1.26762886597939  C 0.0400801603206276 1.18790378006873  0 1.09621993127148  0 0.992577319587632  C 0 0.888934707903779  0.0400801603206276 0.797250859106526  0.120240480961911 0.717525773195884  L 0.721442885771552 0.119587628865979  C 0.801603206412807 0.0398625429553263  0.893787575150299 0  0.99799599198397 0  C 1.10220440881764 0  1.1943887775551 0.0398625429553263  1.27454909819639 0.119587628865979  L 6 4.81938144329897  L 10.7254509018036 0.119587628865979  C 10.8056112224449 0.0398625429553263  10.8977955911824 0  11.002004008016 0  C 11.1062124248497 0  11.1983967935872 0.0398625429553263  11.2785571142284 0.119587628865979  L 11.8797595190381 0.717525773195884  Z " fill-rule="nonzero" fill="#ffffff" stroke="none" transform="matrix(1 0 0 1 574 469 )" />
  </g>
</svg>