<?xml version="1.0" encoding="utf-8"?>
<svg version="1.1" xmlns:xlink="http://www.w3.org/1999/xlink" width="506px" height="320px" xmlns="http://www.w3.org/2000/svg">
  <g transform="matrix(1 0 0 1 -1922 -314 )">
    <path d="M 1922 314  L 2428 314  L 2428 634  L 1922 634  L 1922 314  " fill-rule="nonzero" fill="#cccccc" stroke="none" />
    <path d="M 1944 336  L 2406 336  L 2406 612  L 1944 612  L 1944 336  " fill-rule="nonzero" fill="#ffffff" stroke="none" />
    <path d="M 2209.12 410  C 2195.68 410  2185.12 399.44  2185.12 386  C 2185.12 372.56  2195.68 362  2209.12 362  C 2222.56 362  2233.12 372.56  2233.12 386  C 2233.12 399.44  2222.56 410  2209.12 410  " fill-rule="nonzero" fill="#cccccc" stroke="none" />
    <path d="M 1952 604  L 1952 461  L 2063.5 396  L 2219.6 505.343873517787  L 2308.8 435  L 2398 505.343873517787  L 2398 604  L 1952 604  " fill-rule="nonzero" fill="#169bd5" stroke="none" />
  </g>
</svg>