<?xml version="1.0" encoding="utf-8"?>
<svg version="1.1" xmlns:xlink="http://www.w3.org/1999/xlink" width="346px" height="162px" xmlns="http://www.w3.org/2000/svg">
  <g transform="matrix(1 0 0 1 -129 -285 )">
    <path d="M 129 285  L 475 285  L 475 447  L 129 447  L 129 285  " fill-rule="nonzero" fill="#cccccc" stroke="none" />
    <path d="M 140 296  L 464 296  L 464 436  L 140 436  L 140 296  " fill-rule="nonzero" fill="#ffffff" stroke="none" />
    <path d="M 321.07 333.6  C 314.266 333.6  308.92 328.254  308.92 321.45  C 308.92 314.646  314.266 309.3  321.07 309.3  C 327.874 309.3  333.22 314.646  333.22 321.45  C 333.22 328.254  327.874 333.6  321.07 333.6  " fill-rule="nonzero" fill="#cccccc" stroke="none" />
    <path d="M 144 432  L 144 359.4  L 223 326.4  L 333.6 394.917919075144  L 396.8 346.2  L 460 394.917919075144  L 460 432  L 144 432  " fill-rule="nonzero" fill="#169bd5" stroke="none" />
  </g>
</svg>