<?xml version="1.0" encoding="utf-8"?>
<svg version="1.1" xmlns:xlink="http://www.w3.org/1999/xlink" width="346px" height="162px" xmlns="http://www.w3.org/2000/svg">
  <g transform="matrix(1 0 0 1 -129 -629 )">
    <path d="M 129 629  L 475 629  L 475 791  L 129 791  L 129 629  " fill-rule="nonzero" fill="#cccccc" stroke="none" />
    <path d="M 140 640  L 464 640  L 464 780  L 140 780  L 140 640  " fill-rule="nonzero" fill="#ffffff" stroke="none" />
    <path d="M 321.07 677.6  C 314.266 677.6  308.92 672.254  308.92 665.45  C 308.92 658.646  314.266 653.3  321.07 653.3  C 327.874 653.3  333.22 658.646  333.22 665.45  C 333.22 672.254  327.874 677.6  321.07 677.6  " fill-rule="nonzero" fill="#cccccc" stroke="none" />
    <path d="M 144 776  L 144 703.4  L 223 670.4  L 333.6 738.917919075144  L 396.8 690.2  L 460 738.917919075144  L 460 776  L 144 776  " fill-rule="nonzero" fill="#169bd5" stroke="none" />
  </g>
</svg>