<?xml version="1.0" encoding="utf-8"?>
<svg version="1.1" xmlns:xlink="http://www.w3.org/1999/xlink" width="375px" height="116px" xmlns="http://www.w3.org/2000/svg">
  <g transform="matrix(1 0 0 1 -138 -199 )">
    <path d="M 138 199  L 513 199  L 513 315  L 138 315  L 138 199  " fill-rule="nonzero" fill="#cccccc" stroke="none" />
    <path d="M 146 207  L 505 207  L 505 307  L 146 307  L 146 207  " fill-rule="nonzero" fill="#ffffff" stroke="none" />
    <path d="M 341.7 233.8  C 336.828 233.8  333 229.972  333 225.1  C 333 220.228  336.828 216.4  341.7 216.4  C 346.572 216.4  350.4 220.228  350.4 225.1  C 350.4 229.972  346.572 233.8  341.7 233.8  " fill-rule="nonzero" fill="#cccccc" stroke="none" />
    <path d="M 149 304  L 149 252.3  L 237.25 228.8  L 360.8 286.5536  L 431.4 242.9  L 502 286.5536  L 502 304  L 149 304  " fill-rule="nonzero" fill="#169bd5" stroke="none" />
  </g>
</svg>