<?xml version="1.0" encoding="utf-8"?>
<svg version="1.1" xmlns:xlink="http://www.w3.org/1999/xlink" width="75px" height="10px" preserveAspectRatio="xMinYMid meet" viewBox="68 440  75 8" xmlns="http://www.w3.org/2000/svg">
  <path d="M 142 444.5  L 78 444.5  A 5 5 0 0 0 73.5 449.5 L 73.5 1005  A 5 5 0 0 0 78.5 1010.5 L 143 1010.5  A 5 5 0 0 1 148.5 1015.5 L 148.5 1022  " stroke-width="1" stroke="#ff3399" fill="none" />
  <path d="M 140 441.5  A 3 3 0 0 0 137 444.5 A 3 3 0 0 0 140 447.5 A 3 3 0 0 0 143 444.5 A 3 3 0 0 0 140 441.5 Z " fill-rule="nonzero" fill="#ff3399" stroke="none" />
</svg>