<?xml version="1.0" encoding="utf-8"?>
<svg version="1.1" xmlns:xlink="http://www.w3.org/1999/xlink" width="351px" height="170px" xmlns="http://www.w3.org/2000/svg">
  <g transform="matrix(1 0 0 1 -147 -689 )">
    <path d="M 147 689  L 498 689  L 498 859  L 147 859  L 147 689  " fill-rule="nonzero" fill="#cccccc" stroke="none" />
    <path d="M 159 701  L 486 701  L 486 847  L 159 847  L 159 701  " fill-rule="nonzero" fill="#ffffff" stroke="none" />
    <path d="M 342.27 740  C 335.13 740  329.52 734.39  329.52 727.25  C 329.52 720.11  335.13 714.5  342.27 714.5  C 349.41 714.5  355.02 720.11  355.02 727.25  C 355.02 734.39  349.41 740  342.27 740  " fill-rule="nonzero" fill="#cccccc" stroke="none" />
    <path d="M 164 843  L 164 767.65  L 243.5 733.4  L 354.8 803.188034188034  L 418.4 753.95  L 482 803.188034188034  L 482 843  L 164 843  " fill-rule="nonzero" fill="#169bd5" stroke="none" />
  </g>
</svg>