<?xml version="1.0" encoding="utf-8"?>
<svg version="1.1" xmlns:xlink="http://www.w3.org/1999/xlink" width="375px" height="60px" xmlns="http://www.w3.org/2000/svg">
  <g transform="matrix(1 0 0 1 -250 -610 )">
    <path d="M 251 614  A 3 3 0 0 1 254 611 L 621 611  A 3 3 0 0 1 624 614 L 624 666  A 3 3 0 0 1 621 669 L 254 669  A 3 3 0 0 1 251 666 L 251 614  Z " fill-rule="nonzero" fill="#ff3399" stroke="none" fill-opacity="0.0980392156862745" />
    <path d="M 250.5 614  A 3.5 3.5 0 0 1 254 610.5 L 621 610.5  A 3.5 3.5 0 0 1 624.5 614 L 624.5 666  A 3.5 3.5 0 0 1 621 669.5 L 254 669.5  A 3.5 3.5 0 0 1 250.5 666 L 250.5 614  Z " stroke-width="1" stroke-dasharray="9,4" stroke="#ff3399" fill="none" stroke-dashoffset="0.5" />
  </g>
</svg>