<?xml version="1.0" encoding="utf-8"?>
<svg version="1.1" xmlns:xlink="http://www.w3.org/1999/xlink" width="200px" height="37px" xmlns="http://www.w3.org/2000/svg">
  <g transform="matrix(1 0 0 1 -578 -414 )">
    <path d="M 579 418  A 3 3 0 0 1 582 415 L 774 415  A 3 3 0 0 1 777 418 L 777 447  A 3 3 0 0 1 774 450 L 582 450  A 3 3 0 0 1 579 447 L 579 418  Z " fill-rule="nonzero" fill="#ff3399" stroke="none" fill-opacity="0" />
    <path d="M 578.5 418  A 3.5 3.5 0 0 1 582 414.5 L 774 414.5  A 3.5 3.5 0 0 1 777.5 418 L 777.5 447  A 3.5 3.5 0 0 1 774 450.5 L 582 450.5  A 3.5 3.5 0 0 1 578.5 447 L 578.5 418  Z " stroke-width="1" stroke-dasharray="9,4" stroke="#ff3399" fill="none" stroke-dashoffset="0.5" />
  </g>
</svg>