<?xml version="1.0" encoding="utf-8"?>
<svg version="1.1" xmlns:xlink="http://www.w3.org/1999/xlink" width="353px" height="57px" xmlns="http://www.w3.org/2000/svg">
  <g transform="matrix(1 0 0 1 -571 -472 )">
    <path d="M 572 476  A 3 3 0 0 1 575 473 L 920 473  A 3 3 0 0 1 923 476 L 923 525  A 3 3 0 0 1 920 528 L 575 528  A 3 3 0 0 1 572 525 L 572 476  Z " fill-rule="nonzero" fill="#ff3399" stroke="none" fill-opacity="0" />
    <path d="M 571.5 476  A 3.5 3.5 0 0 1 575 472.5 L 920 472.5  A 3.5 3.5 0 0 1 923.5 476 L 923.5 525  A 3.5 3.5 0 0 1 920 528.5 L 575 528.5  A 3.5 3.5 0 0 1 571.5 525 L 571.5 476  Z " stroke-width="1" stroke-dasharray="9,4" stroke="#ff3399" fill="none" stroke-dashoffset="0.5" />
  </g>
</svg>