<?xml version="1.0" encoding="utf-8"?>
<svg version="1.1" xmlns:xlink="http://www.w3.org/1999/xlink" width="57px" height="57px" xmlns="http://www.w3.org/2000/svg">
  <g transform="matrix(1 0 0 1 -1925 -1294 )">
    <path d="M 1953.5 1294  C 1969.46 1294  1982 1306.54  1982 1322.5  C 1982 1338.46  1969.46 1351  1953.5 1351  C 1937.54 1351  1925 1338.46  1925 1322.5  C 1925 1306.54  1937.54 1294  1953.5 1294  Z " fill-rule="nonzero" fill="#ffffff" stroke="none" />
    <path d="M 1953.5 1294.5  C 1969.18 1294.5  1981.5 1306.82  1981.5 1322.5  C 1981.5 1338.18  1969.18 1350.5  1953.5 1350.5  C 1937.82 1350.5  1925.5 1338.18  1925.5 1322.5  C 1925.5 1306.82  1937.82 1294.5  1953.5 1294.5  Z " stroke-width="1" stroke="#dbd9d9" fill="none" />
  </g>
</svg>