<?xml version="1.0" encoding="utf-8"?>
<svg version="1.1" xmlns:xlink="http://www.w3.org/1999/xlink" width="34px" height="34px" preserveAspectRatio="xMinYMid meet" viewBox="2546 2321  34 32" xmlns="http://www.w3.org/2000/svg">
  <path d="M 1511 2455  L 1703 2455  L 1703 1998  L 2509 1998  L 2509 2337  L 2557 2337  " stroke-width="2" stroke-dasharray="18,8" stroke="#0033ff" fill="none" />
  <path d="M 1508.5 2451.5  A 3.5 3.5 0 0 0 1505 2455 A 3.5 3.5 0 0 0 1508.5 2458.5 A 3.5 3.5 0 0 0 1512 2455 A 3.5 3.5 0 0 0 1508.5 2451.5 Z M 1508.5 2453.5  A 1.5 1.5 0 0 1 1510 2455 A 1.5 1.5 0 0 1 1508.5 2456.5 A 1.5 1.5 0 0 1 1507 2455 A 1.5 1.5 0 0 1 1508.5 2453.5 Z M 2555 2346.5  L 2569 2337  L 2555 2327.5  L 2555 2346.5  Z " fill-rule="nonzero" fill="#0033ff" stroke="none" />
</svg>