<?xml version="1.0" encoding="utf-8"?>
<svg version="1.1" xmlns:xlink="http://www.w3.org/1999/xlink" width="61px" height="61px" xmlns="http://www.w3.org/2000/svg">
  <g transform="matrix(1 0 0 1 -12 -71 )">
    <path d="M 42.5 71  C 59.58 71  73 84.42  73 101.5  C 73 118.58  59.58 132  42.5 132  C 25.42 132  12 118.58  12 101.5  C 12 84.42  25.42 71  42.5 71  Z " fill-rule="nonzero" fill="#ffffff" stroke="none" />
    <path d="M 42.5 71.5  C 59.3 71.5  72.5 84.7  72.5 101.5  C 72.5 118.3  59.3 131.5  42.5 131.5  C 25.7 131.5  12.5 118.3  12.5 101.5  C 12.5 84.7  25.7 71.5  42.5 71.5  Z " stroke-width="1" stroke="#e8dfdf" fill="none" />
  </g>
</svg>