<?xml version="1.0" encoding="utf-8"?>
<svg version="1.1" xmlns:xlink="http://www.w3.org/1999/xlink" width="5px" height="5px" xmlns="http://www.w3.org/2000/svg">
  <g transform="matrix(1 0 0 1 -326 -99 )">
    <path d="M 328.5 99  C 329.9 99  331 100.1  331 101.5  C 331 102.9  329.9 104  328.5 104  C 327.1 104  326 102.9  326 101.5  C 326 100.1  327.1 99  328.5 99  Z " fill-rule="nonzero" fill="#797979" stroke="none" />
    <path d="M 328.5 99.5  C 329.62 99.5  330.5 100.38  330.5 101.5  C 330.5 102.62  329.62 103.5  328.5 103.5  C 327.38 103.5  326.5 102.62  326.5 101.5  C 326.5 100.38  327.38 99.5  328.5 99.5  Z " stroke-width="1" stroke="#797979" fill="none" />
  </g>
</svg>