<?xml version="1.0" encoding="utf-8"?>
<svg version="1.1" xmlns:xlink="http://www.w3.org/1999/xlink" width="192px" height="150px" xmlns="http://www.w3.org/2000/svg">
  <g transform="matrix(1 0 0 1 -1978 -2330 )">
    <path d="M 1978 2330  L 2170 2330  L 2170 2480  L 1978 2480  L 1978 2330  " fill-rule="nonzero" fill="#cccccc" stroke="none" />
    <path d="M 1989 2341  L 2159 2341  L 2159 2469  L 1989 2469  L 1989 2341  " fill-rule="nonzero" fill="#ffffff" stroke="none" />
    <path d="M 2089.09 2375  C 2082.79 2375  2077.84 2370.05  2077.84 2363.75  C 2077.84 2357.45  2082.79 2352.5  2089.09 2352.5  C 2095.39 2352.5  2100.34 2357.45  2100.34 2363.75  C 2100.34 2370.05  2095.39 2375  2089.09 2375  " fill-rule="nonzero" fill="#cccccc" stroke="none" />
    <path d="M 1993 2465  L 1993 2399  L 2033.5 2369  L 2090.2 2408.75  L 2122.6 2387  L 2155 2408.75  L 2155 2465  L 1993 2465  " fill-rule="nonzero" fill="#169bd5" stroke="none" />
  </g>
</svg>