<?xml version="1.0" encoding="utf-8"?>
<svg version="1.1" xmlns:xlink="http://www.w3.org/1999/xlink" width="5px" height="5px" xmlns="http://www.w3.org/2000/svg">
  <g transform="matrix(1 0 0 1 -326 -214 )">
    <path d="M 328.5 214  C 329.9 214  331 215.1  331 216.5  C 331 217.9  329.9 219  328.5 219  C 327.1 219  326 217.9  326 216.5  C 326 215.1  327.1 214  328.5 214  Z " fill-rule="nonzero" fill="#797979" stroke="none" />
    <path d="M 328.5 214.5  C 329.62 214.5  330.5 215.38  330.5 216.5  C 330.5 217.62  329.62 218.5  328.5 218.5  C 327.38 218.5  326.5 217.62  326.5 216.5  C 326.5 215.38  327.38 214.5  328.5 214.5  Z " stroke-width="1" stroke="#797979" fill="none" />
  </g>
</svg>