<?xml version="1.0" encoding="utf-8"?>
<svg version="1.1" xmlns:xlink="http://www.w3.org/1999/xlink" width="14px" height="14px" xmlns="http://www.w3.org/2000/svg">
  <g transform="matrix(1 0 0 1 -270 -347 )">
    <path d="M 277 347  C 280.92 347  284 350.08  284 354  C 284 357.92  280.92 361  277 361  C 273.08 361  270 357.92  270 354  C 270 350.08  273.08 347  277 347  Z " fill-rule="nonzero" fill="#ffffff" stroke="none" fill-opacity="0" />
    <path d="M 277 347.5  C 280.64 347.5  283.5 350.36  283.5 354  C 283.5 357.64  280.64 360.5  277 360.5  C 273.36 360.5  270.5 357.64  270.5 354  C 270.5 350.36  273.36 347.5  277 347.5  Z " stroke-width="1" stroke="#1890ff" fill="none" />
  </g>
</svg>