<?xml version="1.0" encoding="utf-8"?>
<svg version="1.1" xmlns:xlink="http://www.w3.org/1999/xlink" width="254px" height="10px" preserveAspectRatio="xMinYMid meet" viewBox="869 1360  254 8" xmlns="http://www.w3.org/2000/svg">
  <path d="M 1118 1364  L 874 1364  L 874 3031  L 1116 3031  " stroke-width="2" stroke-dasharray="18,8" stroke="#0033ff" fill="none" />
  <path d="M 1120.5 1360.5  A 3.5 3.5 0 0 0 1117 1364 A 3.5 3.5 0 0 0 1120.5 1367.5 A 3.5 3.5 0 0 0 1124 1364 A 3.5 3.5 0 0 0 1120.5 1360.5 Z M 1120.5 1362.5  A 1.5 1.5 0 0 1 1122 1364 A 1.5 1.5 0 0 1 1120.5 1365.5 A 1.5 1.5 0 0 1 1119 1364 A 1.5 1.5 0 0 1 1120.5 1362.5 Z M 1114 3040.5  L 1128 3031  L 1114 3021.5  L 1114 3040.5  Z " fill-rule="nonzero" fill="#0033ff" stroke="none" />
</svg>