<?xml version="1.0" encoding="utf-8"?>
<svg version="1.1" xmlns:xlink="http://www.w3.org/1999/xlink" width="10px" height="467px" preserveAspectRatio="xMidYMin meet" viewBox="1699 2723  8 467" xmlns="http://www.w3.org/2000/svg">
  <path d="M 1511 3185  L 1703 3185  L 1703 2728  L 2509 2728  L 2509 3067  L 2557 3067  " stroke-width="2" stroke-dasharray="18,8" stroke="#0033ff" fill="none" />
  <path d="M 1508.5 3181.5  A 3.5 3.5 0 0 0 1505 3185 A 3.5 3.5 0 0 0 1508.5 3188.5 A 3.5 3.5 0 0 0 1512 3185 A 3.5 3.5 0 0 0 1508.5 3181.5 Z M 1508.5 3183.5  A 1.5 1.5 0 0 1 1510 3185 A 1.5 1.5 0 0 1 1508.5 3186.5 A 1.5 1.5 0 0 1 1507 3185 A 1.5 1.5 0 0 1 1508.5 3183.5 Z M 2555 3076.5  L 2569 3067  L 2555 3057.5  L 2555 3076.5  Z " fill-rule="nonzero" fill="#0033ff" stroke="none" />
</svg>