<?xml version="1.0" encoding="utf-8"?>
<svg version="1.1" xmlns:xlink="http://www.w3.org/1999/xlink" width="192px" height="150px" xmlns="http://www.w3.org/2000/svg">
  <g transform="matrix(1 0 0 1 -1978 -3060 )">
    <path d="M 1978 3060  L 2170 3060  L 2170 3210  L 1978 3210  L 1978 3060  " fill-rule="nonzero" fill="#cccccc" stroke="none" />
    <path d="M 1989 3071  L 2159 3071  L 2159 3199  L 1989 3199  L 1989 3071  " fill-rule="nonzero" fill="#ffffff" stroke="none" />
    <path d="M 2089.09 3105  C 2082.79 3105  2077.84 3100.05  2077.84 3093.75  C 2077.84 3087.45  2082.79 3082.5  2089.09 3082.5  C 2095.39 3082.5  2100.34 3087.45  2100.34 3093.75  C 2100.34 3100.05  2095.39 3105  2089.09 3105  " fill-rule="nonzero" fill="#cccccc" stroke="none" />
    <path d="M 1993 3195  L 1993 3129  L 2033.5 3099  L 2090.2 3138.75  L 2122.6 3117  L 2155 3138.75  L 2155 3195  L 1993 3195  " fill-rule="nonzero" fill="#169bd5" stroke="none" />
  </g>
</svg>