<?xml version="1.0" encoding="utf-8"?>
<svg version="1.1" xmlns:xlink="http://www.w3.org/1999/xlink" width="34px" height="34px" preserveAspectRatio="xMinYMid meet" viewBox="1493 1280  34 32" xmlns="http://www.w3.org/2000/svg">
  <path d="M 1892 755  L 1568 755  L 1568 1296  L 1516 1296  " stroke-width="2" stroke-dasharray="18,8" stroke="#0033ff" fill="none" />
  <path d="M 1894.5 751.5  A 3.5 3.5 0 0 0 1891 755 A 3.5 3.5 0 0 0 1894.5 758.5 A 3.5 3.5 0 0 0 1898 755 A 3.5 3.5 0 0 0 1894.5 751.5 Z M 1894.5 753.5  A 1.5 1.5 0 0 1 1896 755 A 1.5 1.5 0 0 1 1894.5 756.5 A 1.5 1.5 0 0 1 1893 755 A 1.5 1.5 0 0 1 1894.5 753.5 Z M 1518 1286.5  L 1504 1296  L 1518 1305.5  L 1518 1286.5  Z " fill-rule="nonzero" fill="#0033ff" stroke="none" />
</svg>