<?xml version="1.0" encoding="utf-8"?>
<svg version="1.1" xmlns:xlink="http://www.w3.org/1999/xlink" width="109px" height="10px" preserveAspectRatio="xMinYMid meet" viewBox="1788 811  109 8" xmlns="http://www.w3.org/2000/svg">
  <path d="M 1892 815  L 1793 815  L 1793 1957  L 2537 1957  L 2537 2337  L 2557 2337  " stroke-width="2" stroke-dasharray="18,8" stroke="#0033ff" fill="none" />
  <path d="M 1894.5 811.5  A 3.5 3.5 0 0 0 1891 815 A 3.5 3.5 0 0 0 1894.5 818.5 A 3.5 3.5 0 0 0 1898 815 A 3.5 3.5 0 0 0 1894.5 811.5 Z M 1894.5 813.5  A 1.5 1.5 0 0 1 1896 815 A 1.5 1.5 0 0 1 1894.5 816.5 A 1.5 1.5 0 0 1 1893 815 A 1.5 1.5 0 0 1 1894.5 813.5 Z M 2555 2346.5  L 2569 2337  L 2555 2327.5  L 2555 2346.5  Z " fill-rule="nonzero" fill="#0033ff" stroke="none" />
</svg>