<?xml version="1.0" encoding="utf-8"?>
<svg version="1.1" xmlns:xlink="http://www.w3.org/1999/xlink" width="88px" height="10px" preserveAspectRatio="xMinYMid meet" viewBox="3461 2350  88 8" xmlns="http://www.w3.org/2000/svg">
  <path d="M 2949 2257  L 3000 2257  L 3000 2004  L 3466 2004  L 3466 2354  L 3537 2354  " stroke-width="2" stroke-dasharray="18,8" stroke="#0033ff" fill="none" />
  <path d="M 2946.5 2253.5  A 3.5 3.5 0 0 0 2943 2257 A 3.5 3.5 0 0 0 2946.5 2260.5 A 3.5 3.5 0 0 0 2950 2257 A 3.5 3.5 0 0 0 2946.5 2253.5 Z M 2946.5 2255.5  A 1.5 1.5 0 0 1 2948 2257 A 1.5 1.5 0 0 1 2946.5 2258.5 A 1.5 1.5 0 0 1 2945 2257 A 1.5 1.5 0 0 1 2946.5 2255.5 Z M 3535 2363.5  L 3549 2354  L 3535 2344.5  L 3535 2363.5  Z " fill-rule="nonzero" fill="#0033ff" stroke="none" />
</svg>