<?xml version="1.0" encoding="utf-8"?>
<svg version="1.1" xmlns:xlink="http://www.w3.org/1999/xlink" width="334px" height="10px" preserveAspectRatio="xMinYMid meet" viewBox="1563 1481  334 8" xmlns="http://www.w3.org/2000/svg">
  <path d="M 1892 1485  L 1568 1485  L 1568 1145  L 1514 1145  " stroke-width="2" stroke-dasharray="18,8" stroke="#0033ff" fill="none" />
  <path d="M 1894.5 1481.5  A 3.5 3.5 0 0 0 1891 1485 A 3.5 3.5 0 0 0 1894.5 1488.5 A 3.5 3.5 0 0 0 1898 1485 A 3.5 3.5 0 0 0 1894.5 1481.5 Z M 1894.5 1483.5  A 1.5 1.5 0 0 1 1896 1485 A 1.5 1.5 0 0 1 1894.5 1486.5 A 1.5 1.5 0 0 1 1893 1485 A 1.5 1.5 0 0 1 1894.5 1483.5 Z M 1516 1135.5  L 1502 1145  L 1516 1154.5  L 1516 1135.5  Z " fill-rule="nonzero" fill="#0033ff" stroke="none" />
</svg>