<?xml version="1.0" encoding="utf-8"?>
<svg version="1.1" xmlns:xlink="http://www.w3.org/1999/xlink" width="46px" height="45px" xmlns="http://www.w3.org/2000/svg">
  <g transform="matrix(1 0 0 1 -1246 -3765 )">
    <path d="M 1246 3765  L 1292 3765  L 1292 3810  L 1246 3810  L 1246 3765  " fill-rule="nonzero" fill="#cccccc" stroke="none" />
    <path d="M 1249 3768  L 1289 3768  L 1289 3807  L 1249 3807  L 1249 3768  " fill-rule="nonzero" fill="#ffffff" stroke="none" />
    <path d="M 1273.295 3778.5  C 1271.405 3778.5  1269.92 3777.015  1269.92 3775.125  C 1269.92 3773.235  1271.405 3771.75  1273.295 3771.75  C 1275.185 3771.75  1276.67 3773.235  1276.67 3775.125  C 1276.67 3777.015  1275.185 3778.5  1273.295 3778.5  " fill-rule="nonzero" fill="#cccccc" stroke="none" />
    <path d="M 1250 3806  L 1250 3785.65  L 1259.5 3776.4  L 1272.8 3784.28260869565  L 1280.4 3781.95  L 1288 3784.28260869565  L 1288 3806  L 1250 3806  " fill-rule="nonzero" fill="#169bd5" stroke="none" />
  </g>
</svg>