<?xml version="1.0" encoding="utf-8"?>
<svg version="1.1" xmlns:xlink="http://www.w3.org/1999/xlink" width="10px" height="1038px" preserveAspectRatio="xMidYMin meet" viewBox="826 2801  8 1038" xmlns="http://www.w3.org/2000/svg">
  <path d="M 1118 2806  L 830 2806  L 830 3834  L 1133 3834  " stroke-width="2" stroke-dasharray="18,8" stroke="#0033ff" fill="none" />
  <path d="M 1120.5 2802.5  A 3.5 3.5 0 0 0 1117 2806 A 3.5 3.5 0 0 0 1120.5 2809.5 A 3.5 3.5 0 0 0 1124 2806 A 3.5 3.5 0 0 0 1120.5 2802.5 Z M 1120.5 2804.5  A 1.5 1.5 0 0 1 1122 2806 A 1.5 1.5 0 0 1 1120.5 2807.5 A 1.5 1.5 0 0 1 1119 2806 A 1.5 1.5 0 0 1 1120.5 2804.5 Z M 1131 3843.5  L 1145 3834  L 1131 3824.5  L 1131 3843.5  Z " fill-rule="nonzero" fill="#0033ff" stroke="none" />
</svg>