<?xml version="1.0" encoding="utf-8"?>
<svg version="1.1" xmlns:xlink="http://www.w3.org/1999/xlink" width="37px" height="10px" preserveAspectRatio="xMinYMid meet" viewBox="2532 3063  37 8" xmlns="http://www.w3.org/2000/svg">
  <path d="M 1892 1545  L 1793 1545  L 1793 2687  L 2537 2687  L 2537 3067  L 2557 3067  " stroke-width="2" stroke-dasharray="18,8" stroke="#0033ff" fill="none" />
  <path d="M 1894.5 1541.5  A 3.5 3.5 0 0 0 1891 1545 A 3.5 3.5 0 0 0 1894.5 1548.5 A 3.5 3.5 0 0 0 1898 1545 A 3.5 3.5 0 0 0 1894.5 1541.5 Z M 1894.5 1543.5  A 1.5 1.5 0 0 1 1896 1545 A 1.5 1.5 0 0 1 1894.5 1546.5 A 1.5 1.5 0 0 1 1893 1545 A 1.5 1.5 0 0 1 1894.5 1543.5 Z M 2555 3076.5  L 2569 3067  L 2555 3057.5  L 2555 3076.5  Z " fill-rule="nonzero" fill="#0033ff" stroke="none" />
</svg>