<?xml version="1.0" encoding="utf-8"?>
<svg version="1.1" xmlns:xlink="http://www.w3.org/1999/xlink" width="88px" height="10px" preserveAspectRatio="xMinYMid meet" viewBox="3461 3080  88 8" xmlns="http://www.w3.org/2000/svg">
  <path d="M 2949 2987  L 3000 2987  L 3000 2734  L 3466 2734  L 3466 3084  L 3537 3084  " stroke-width="2" stroke-dasharray="18,8" stroke="#0033ff" fill="none" />
  <path d="M 2946.5 2983.5  A 3.5 3.5 0 0 0 2943 2987 A 3.5 3.5 0 0 0 2946.5 2990.5 A 3.5 3.5 0 0 0 2950 2987 A 3.5 3.5 0 0 0 2946.5 2983.5 Z M 2946.5 2985.5  A 1.5 1.5 0 0 1 2948 2987 A 1.5 1.5 0 0 1 2946.5 2988.5 A 1.5 1.5 0 0 1 2945 2987 A 1.5 1.5 0 0 1 2946.5 2985.5 Z M 3535 3093.5  L 3549 3084  L 3535 3074.5  L 3535 3093.5  Z " fill-rule="nonzero" fill="#0033ff" stroke="none" />
</svg>