<?xml version="1.0" encoding="utf-8"?>
<svg version="1.1" xmlns:xlink="http://www.w3.org/1999/xlink" width="76px" height="63px" xmlns="http://www.w3.org/2000/svg">
  <g transform="matrix(1 0 0 1 -3104 -2731 )">
    <path d="M 3104 2731  L 3180 2731  L 3180 2794  L 3104 2794  L 3104 2731  " fill-rule="nonzero" fill="#cccccc" stroke="none" />
    <path d="M 3108 2735  L 3176 2735  L 3176 2790  L 3108 2790  L 3108 2735  " fill-rule="nonzero" fill="#ffffff" stroke="none" />
    <path d="M 3148.245 2749.9  C 3145.599 2749.9  3143.52 2747.821  3143.52 2745.175  C 3143.52 2742.529  3145.599 2740.45  3148.245 2740.45  C 3150.891 2740.45  3152.97 2742.529  3152.97 2745.175  C 3152.97 2747.821  3150.891 2749.9  3148.245 2749.9  " fill-rule="nonzero" fill="#cccccc" stroke="none" />
    <path d="M 3110 2789  L 3110 2760.4  L 3126.25 2747.4  L 3149 2763.13684210526  L 3162 2755.2  L 3175 2763.13684210526  L 3175 2789  L 3110 2789  " fill-rule="nonzero" fill="#169bd5" stroke="none" />
  </g>
</svg>