<?xml version="1.0" encoding="utf-8"?>
<svg version="1.1" xmlns:xlink="http://www.w3.org/1999/xlink" width="113px" height="10px" preserveAspectRatio="xMinYMid meet" viewBox="4022 2523  113 8" xmlns="http://www.w3.org/2000/svg">
  <path d="M 2938 2496  L 2978 2496  L 2978 2260  A 3 3 0 0 0 2981 2257 A 3 3 0 0 0 2978 2254 L 2978 1938  L 4027 1938  L 4027 2527  L 4123 2527  " stroke-width="2" stroke-dasharray="18,8" stroke="#0033ff" fill="none" />
  <path d="M 2935.5 2492.5  A 3.5 3.5 0 0 0 2932 2496 A 3.5 3.5 0 0 0 2935.5 2499.5 A 3.5 3.5 0 0 0 2939 2496 A 3.5 3.5 0 0 0 2935.5 2492.5 Z M 2935.5 2494.5  A 1.5 1.5 0 0 1 2937 2496 A 1.5 1.5 0 0 1 2935.5 2497.5 A 1.5 1.5 0 0 1 2934 2496 A 1.5 1.5 0 0 1 2935.5 2494.5 Z M 4121 2536.5  L 4135 2527  L 4121 2517.5  L 4121 2536.5  Z " fill-rule="nonzero" fill="#0033ff" stroke="none" />
</svg>