<?xml version="1.0" encoding="utf-8"?>
<svg version="1.1" xmlns:xlink="http://www.w3.org/1999/xlink" width="278px" height="116px" xmlns="http://www.w3.org/2000/svg">
  <g transform="matrix(1 0 0 1 -6272 -2188 )">
    <path d="M 6272 2188  L 6550 2188  L 6550 2304  L 6272 2304  L 6272 2188  " fill-rule="nonzero" fill="#cccccc" stroke="none" />
    <path d="M 6280 2196  L 6542 2196  L 6542 2296  L 6280 2296  L 6280 2196  " fill-rule="nonzero" fill="#ffffff" stroke="none" />
    <path d="M 6425.26 2222.8  C 6420.388 2222.8  6416.56 2218.972  6416.56 2214.1  C 6416.56 2209.228  6420.388 2205.4  6425.26 2205.4  C 6430.132 2205.4  6433.96 2209.228  6433.96 2214.1  C 6433.96 2218.972  6430.132 2222.8  6425.26 2222.8  " fill-rule="nonzero" fill="#cccccc" stroke="none" />
    <path d="M 6283 2293  L 6283 2241.3  L 6347 2217.8  L 6436.6 2269.46618705036  L 6487.8 2231.9  L 6539 2269.46618705036  L 6539 2293  L 6283 2293  " fill-rule="nonzero" fill="#169bd5" stroke="none" />
  </g>
</svg>