<?xml version="1.0" encoding="utf-8"?>
<svg version="1.1" xmlns:xlink="http://www.w3.org/1999/xlink" width="298px" height="10px" preserveAspectRatio="xMinYMid meet" viewBox="825 3532  298 8" xmlns="http://www.w3.org/2000/svg">
  <path d="M 1118 3536  L 830 3536  L 830 4564  L 1133 4564  " stroke-width="2" stroke-dasharray="18,8" stroke="#0033ff" fill="none" />
  <path d="M 1120.5 3532.5  A 3.5 3.5 0 0 0 1117 3536 A 3.5 3.5 0 0 0 1120.5 3539.5 A 3.5 3.5 0 0 0 1124 3536 A 3.5 3.5 0 0 0 1120.5 3532.5 Z M 1120.5 3534.5  A 1.5 1.5 0 0 1 1122 3536 A 1.5 1.5 0 0 1 1120.5 3537.5 A 1.5 1.5 0 0 1 1119 3536 A 1.5 1.5 0 0 1 1120.5 3534.5 Z M 1131 4573.5  L 1145 4564  L 1131 4554.5  L 1131 4573.5  Z " fill-rule="nonzero" fill="#0033ff" stroke="none" />
</svg>