<?xml version="1.0" encoding="utf-8"?>
<svg version="1.1" xmlns:xlink="http://www.w3.org/1999/xlink" width="80px" height="10px" preserveAspectRatio="xMinYMid meet" viewBox="6165 2379  80 8" xmlns="http://www.w3.org/2000/svg">
  <path d="M 6057 2801  L 6170 2801  L 6170 2383  L 6233 2383  " stroke-width="2" stroke-dasharray="18,8" stroke="#0033ff" fill="none" />
  <path d="M 6054.5 2797.5  A 3.5 3.5 0 0 0 6051 2801 A 3.5 3.5 0 0 0 6054.5 2804.5 A 3.5 3.5 0 0 0 6058 2801 A 3.5 3.5 0 0 0 6054.5 2797.5 Z M 6054.5 2799.5  A 1.5 1.5 0 0 1 6056 2801 A 1.5 1.5 0 0 1 6054.5 2802.5 A 1.5 1.5 0 0 1 6053 2801 A 1.5 1.5 0 0 1 6054.5 2799.5 Z M 6231 2392.5  L 6245 2383  L 6231 2373.5  L 6231 2392.5  Z " fill-rule="nonzero" fill="#0033ff" stroke="none" />
</svg>