<?xml version="1.0" encoding="utf-8"?>
<svg version="1.1" xmlns:xlink="http://www.w3.org/1999/xlink" width="34px" height="34px" preserveAspectRatio="xMinYMid meet" viewBox="5301 1434  34 32" xmlns="http://www.w3.org/2000/svg">
  <path d="M 2274 751  L 2400 751  L 2400 345  L 5021 345  L 5021 1450  L 5312 1450  " stroke-width="2" stroke-dasharray="18,8" stroke="#0033ff" fill="none" />
  <path d="M 2271.5 747.5  A 3.5 3.5 0 0 0 2268 751 A 3.5 3.5 0 0 0 2271.5 754.5 A 3.5 3.5 0 0 0 2275 751 A 3.5 3.5 0 0 0 2271.5 747.5 Z M 2271.5 749.5  A 1.5 1.5 0 0 1 2273 751 A 1.5 1.5 0 0 1 2271.5 752.5 A 1.5 1.5 0 0 1 2270 751 A 1.5 1.5 0 0 1 2271.5 749.5 Z M 5310 1459.5  L 5324 1450  L 5310 1440.5  L 5310 1459.5  Z " fill-rule="nonzero" fill="#0033ff" stroke="none" />
</svg>