<?xml version="1.0" encoding="utf-8"?>
<svg version="1.1" xmlns:xlink="http://www.w3.org/1999/xlink" width="46px" height="45px" xmlns="http://www.w3.org/2000/svg">
  <g transform="matrix(1 0 0 1 -1246 -4495 )">
    <path d="M 1246 4495  L 1292 4495  L 1292 4540  L 1246 4540  L 1246 4495  " fill-rule="nonzero" fill="#cccccc" stroke="none" />
    <path d="M 1249 4498  L 1289 4498  L 1289 4537  L 1249 4537  L 1249 4498  " fill-rule="nonzero" fill="#ffffff" stroke="none" />
    <path d="M 1273.295 4508.5  C 1271.405 4508.5  1269.92 4507.015  1269.92 4505.125  C 1269.92 4503.235  1271.405 4501.75  1273.295 4501.75  C 1275.185 4501.75  1276.67 4503.235  1276.67 4505.125  C 1276.67 4507.015  1275.185 4508.5  1273.295 4508.5  " fill-rule="nonzero" fill="#cccccc" stroke="none" />
    <path d="M 1250 4536  L 1250 4515.65  L 1259.5 4506.4  L 1272.8 4514.28260869565  L 1280.4 4511.95  L 1288 4514.28260869565  L 1288 4536  L 1250 4536  " fill-rule="nonzero" fill="#169bd5" stroke="none" />
  </g>
</svg>