<?xml version="1.0" encoding="utf-8"?>
<svg version="1.1" xmlns:xlink="http://www.w3.org/1999/xlink" width="300px" height="112px" xmlns="http://www.w3.org/2000/svg">
  <g transform="matrix(1 0 0 1 -6236 -1198 )">
    <path d="M 6236 1198  L 6536 1198  L 6536 1310  L 6236 1310  L 6236 1198  " fill-rule="nonzero" fill="#cccccc" stroke="none" />
    <path d="M 6244 1206  L 6528 1206  L 6528 1302  L 6244 1302  L 6244 1206  " fill-rule="nonzero" fill="#ffffff" stroke="none" />
    <path d="M 6400.4 1231.6  C 6395.696 1231.6  6392 1227.904  6392 1223.2  C 6392 1218.496  6395.696 1214.8  6400.4 1214.8  C 6405.104 1214.8  6408.8 1218.496  6408.8 1223.2  C 6408.8 1227.904  6405.104 1231.6  6400.4 1231.6  " fill-rule="nonzero" fill="#cccccc" stroke="none" />
    <path d="M 6247 1299  L 6247 1249.5  L 6316.5 1227  L 6413.8 1278.84  L 6469.4 1240.5  L 6525 1278.84  L 6525 1299  L 6247 1299  " fill-rule="nonzero" fill="#169bd5" stroke="none" />
  </g>
</svg>