<?xml version="1.0" encoding="utf-8"?>
<svg version="1.1" xmlns:xlink="http://www.w3.org/1999/xlink" width="76px" height="63px" xmlns="http://www.w3.org/2000/svg">
  <g transform="matrix(1 0 0 1 -3104 -3461 )">
    <path d="M 3104 3461  L 3180 3461  L 3180 3524  L 3104 3524  L 3104 3461  " fill-rule="nonzero" fill="#cccccc" stroke="none" />
    <path d="M 3108 3465  L 3176 3465  L 3176 3520  L 3108 3520  L 3108 3465  " fill-rule="nonzero" fill="#ffffff" stroke="none" />
    <path d="M 3148.245 3479.9  C 3145.599 3479.9  3143.52 3477.821  3143.52 3475.175  C 3143.52 3472.529  3145.599 3470.45  3148.245 3470.45  C 3150.891 3470.45  3152.97 3472.529  3152.97 3475.175  C 3152.97 3477.821  3150.891 3479.9  3148.245 3479.9  " fill-rule="nonzero" fill="#cccccc" stroke="none" />
    <path d="M 3110 3519  L 3110 3490.4  L 3126.25 3477.4  L 3149 3493.13684210526  L 3162 3485.2  L 3175 3493.13684210526  L 3175 3519  L 3110 3519  " fill-rule="nonzero" fill="#169bd5" stroke="none" />
  </g>
</svg>