<?xml version="1.0" encoding="utf-8"?>
<svg version="1.1" xmlns:xlink="http://www.w3.org/1999/xlink" width="1059px" height="10px" preserveAspectRatio="xMinYMid meet" viewBox="2973 2664  1059 8" xmlns="http://www.w3.org/2000/svg">
  <path d="M 2938 3226  L 2978 3226  L 2978 2990  A 3 3 0 0 0 2981 2987 A 3 3 0 0 0 2978 2984 L 2978 2668  L 4027 2668  L 4027 3257  L 4123 3257  " stroke-width="2" stroke-dasharray="18,8" stroke="#0033ff" fill="none" />
  <path d="M 2935.5 3222.5  A 3.5 3.5 0 0 0 2932 3226 A 3.5 3.5 0 0 0 2935.5 3229.5 A 3.5 3.5 0 0 0 2939 3226 A 3.5 3.5 0 0 0 2935.5 3222.5 Z M 2935.5 3224.5  A 1.5 1.5 0 0 1 2937 3226 A 1.5 1.5 0 0 1 2935.5 3227.5 A 1.5 1.5 0 0 1 2934 3226 A 1.5 1.5 0 0 1 2935.5 3224.5 Z M 4121 3266.5  L 4135 3257  L 4121 3247.5  L 4121 3266.5  Z " fill-rule="nonzero" fill="#0033ff" stroke="none" />
</svg>