<?xml version="1.0" encoding="utf-8"?>
<svg version="1.1" xmlns:xlink="http://www.w3.org/1999/xlink" width="10px" height="663px" preserveAspectRatio="xMidYMin meet" viewBox="5510 792  8 663" xmlns="http://www.w3.org/2000/svg">
  <path d="M 5315 1450  L 5514 1450  L 5514 797  L 5651 797  " stroke-width="2" stroke-dasharray="18,8" stroke="#0033ff" fill="none" />
  <path d="M 5312.5 1446.5  A 3.5 3.5 0 0 0 5309 1450 A 3.5 3.5 0 0 0 5312.5 1453.5 A 3.5 3.5 0 0 0 5316 1450 A 3.5 3.5 0 0 0 5312.5 1446.5 Z M 5312.5 1448.5  A 1.5 1.5 0 0 1 5314 1450 A 1.5 1.5 0 0 1 5312.5 1451.5 A 1.5 1.5 0 0 1 5311 1450 A 1.5 1.5 0 0 1 5312.5 1448.5 Z M 5649 806.5  L 5663 797  L 5649 787.5  L 5649 806.5  Z " fill-rule="nonzero" fill="#0033ff" stroke="none" />
</svg>