<?xml version="1.0" encoding="utf-8"?>
<svg version="1.1" xmlns:xlink="http://www.w3.org/1999/xlink" width="21px" height="20px" preserveAspectRatio="xMinYMid meet" viewBox="6549 1430  21 18" xmlns="http://www.w3.org/2000/svg">
  <path d="M 6562 1439  L 6687 1439  L 6687 790  L 6725 790  " stroke-width="2" stroke-dasharray="18,8" stroke="#0033ff" fill="none" />
  <path d="M 6559.5 1435.5  A 3.5 3.5 0 0 0 6556 1439 A 3.5 3.5 0 0 0 6559.5 1442.5 A 3.5 3.5 0 0 0 6563 1439 A 3.5 3.5 0 0 0 6559.5 1435.5 Z M 6559.5 1437.5  A 1.5 1.5 0 0 1 6561 1439 A 1.5 1.5 0 0 1 6559.5 1440.5 A 1.5 1.5 0 0 1 6558 1439 A 1.5 1.5 0 0 1 6559.5 1437.5 Z M 6723 799.5  L 6737 790  L 6723 780.5  L 6723 799.5  Z " fill-rule="nonzero" fill="#0033ff" stroke="none" />
</svg>