<?xml version="1.0" encoding="utf-8"?>
<svg version="1.1" xmlns:xlink="http://www.w3.org/1999/xlink" width="124px" height="10px" preserveAspectRatio="xMinYMid meet" viewBox="6020 1051  124 8" xmlns="http://www.w3.org/2000/svg">
  <path d="M 6026 1055  L 6139 1055  L 6139 636  L 6195 636  " stroke-width="2" stroke-dasharray="18,8" stroke="#0033ff" fill="none" />
  <path d="M 6023.5 1051.5  A 3.5 3.5 0 0 0 6020 1055 A 3.5 3.5 0 0 0 6023.5 1058.5 A 3.5 3.5 0 0 0 6027 1055 A 3.5 3.5 0 0 0 6023.5 1051.5 Z M 6023.5 1053.5  A 1.5 1.5 0 0 1 6025 1055 A 1.5 1.5 0 0 1 6023.5 1056.5 A 1.5 1.5 0 0 1 6022 1055 A 1.5 1.5 0 0 1 6023.5 1053.5 Z M 6193 645.5  L 6207 636  L 6193 626.5  L 6193 645.5  Z " fill-rule="nonzero" fill="#0033ff" stroke="none" />
</svg>