<?xml version="1.0" encoding="utf-8"?>
<svg version="1.1" xmlns:xlink="http://www.w3.org/1999/xlink" width="278px" height="116px" xmlns="http://www.w3.org/2000/svg">
  <g transform="matrix(1 0 0 1 -6272 -2918 )">
    <path d="M 6272 2918  L 6550 2918  L 6550 3034  L 6272 3034  L 6272 2918  " fill-rule="nonzero" fill="#cccccc" stroke="none" />
    <path d="M 6280 2926  L 6542 2926  L 6542 3026  L 6280 3026  L 6280 2926  " fill-rule="nonzero" fill="#ffffff" stroke="none" />
    <path d="M 6425.26 2952.8  C 6420.388 2952.8  6416.56 2948.972  6416.56 2944.1  C 6416.56 2939.228  6420.388 2935.4  6425.26 2935.4  C 6430.132 2935.4  6433.96 2939.228  6433.96 2944.1  C 6433.96 2948.972  6430.132 2952.8  6425.26 2952.8  " fill-rule="nonzero" fill="#cccccc" stroke="none" />
    <path d="M 6283 3023  L 6283 2971.3  L 6347 2947.8  L 6436.6 2999.46618705036  L 6487.8 2961.9  L 6539 2999.46618705036  L 6539 3023  L 6283 3023  " fill-rule="nonzero" fill="#169bd5" stroke="none" />
  </g>
</svg>