<?xml version="1.0" encoding="utf-8"?>
<svg version="1.1" xmlns:xlink="http://www.w3.org/1999/xlink" width="34px" height="34px" preserveAspectRatio="xMinYMid meet" viewBox="5671 2571  34 32" xmlns="http://www.w3.org/2000/svg">
  <path d="M 5324 1450  L 5511 1450  L 5511 2587  L 5682 2587  " stroke-width="2" stroke-dasharray="18,8" stroke="#0033ff" fill="none" />
  <path d="M 5321.5 1446.5  A 3.5 3.5 0 0 0 5318 1450 A 3.5 3.5 0 0 0 5321.5 1453.5 A 3.5 3.5 0 0 0 5325 1450 A 3.5 3.5 0 0 0 5321.5 1446.5 Z M 5321.5 1448.5  A 1.5 1.5 0 0 1 5323 1450 A 1.5 1.5 0 0 1 5321.5 1451.5 A 1.5 1.5 0 0 1 5320 1450 A 1.5 1.5 0 0 1 5321.5 1448.5 Z M 5680 2596.5  L 5694 2587  L 5680 2577.5  L 5680 2596.5  Z " fill-rule="nonzero" fill="#0033ff" stroke="none" />
</svg>