<?xml version="1.0" encoding="utf-8"?>
<svg version="1.1" xmlns:xlink="http://www.w3.org/1999/xlink" width="10px" height="1115px" preserveAspectRatio="xMidYMin meet" viewBox="5017 1070  8 1115" xmlns="http://www.w3.org/2000/svg">
  <path d="M 2274 1481  L 2400 1481  L 2400 1075  L 5021 1075  L 5021 2180  L 5312 2180  " stroke-width="2" stroke-dasharray="18,8" stroke="#0033ff" fill="none" />
  <path d="M 2271.5 1477.5  A 3.5 3.5 0 0 0 2268 1481 A 3.5 3.5 0 0 0 2271.5 1484.5 A 3.5 3.5 0 0 0 2275 1481 A 3.5 3.5 0 0 0 2271.5 1477.5 Z M 2271.5 1479.5  A 1.5 1.5 0 0 1 2273 1481 A 1.5 1.5 0 0 1 2271.5 1482.5 A 1.5 1.5 0 0 1 2270 1481 A 1.5 1.5 0 0 1 2271.5 1479.5 Z M 5310 2189.5  L 5324 2180  L 5310 2170.5  L 5310 2189.5  Z " fill-rule="nonzero" fill="#0033ff" stroke="none" />
</svg>