<?xml version="1.0" encoding="utf-8"?>
<svg version="1.1" xmlns:xlink="http://www.w3.org/1999/xlink" width="10px" height="428px" preserveAspectRatio="xMidYMin meet" viewBox="6166 3108  8 428" xmlns="http://www.w3.org/2000/svg">
  <path d="M 6057 3531  L 6170 3531  L 6170 3113  L 6233 3113  " stroke-width="2" stroke-dasharray="18,8" stroke="#0033ff" fill="none" />
  <path d="M 6054.5 3527.5  A 3.5 3.5 0 0 0 6051 3531 A 3.5 3.5 0 0 0 6054.5 3534.5 A 3.5 3.5 0 0 0 6058 3531 A 3.5 3.5 0 0 0 6054.5 3527.5 Z M 6054.5 3529.5  A 1.5 1.5 0 0 1 6056 3531 A 1.5 1.5 0 0 1 6054.5 3532.5 A 1.5 1.5 0 0 1 6053 3531 A 1.5 1.5 0 0 1 6054.5 3529.5 Z M 6231 3122.5  L 6245 3113  L 6231 3103.5  L 6231 3122.5  Z " fill-rule="nonzero" fill="#0033ff" stroke="none" />
</svg>