<?xml version="1.0" encoding="utf-8"?>
<svg version="1.1" xmlns:xlink="http://www.w3.org/1999/xlink" width="327px" height="112px" xmlns="http://www.w3.org/2000/svg">
  <g transform="matrix(1 0 0 1 -7696 -1086 )">
    <path d="M 7696 1086  L 8023 1086  L 8023 1198  L 7696 1198  L 7696 1086  " fill-rule="nonzero" fill="#cccccc" stroke="none" />
    <path d="M 7704 1094  L 8015 1094  L 8015 1190  L 7704 1190  L 7704 1094  " fill-rule="nonzero" fill="#ffffff" stroke="none" />
    <path d="M 7874.44 1119.6  C 7869.736 1119.6  7866.04 1115.904  7866.04 1111.2  C 7866.04 1106.496  7869.736 1102.8  7874.44 1102.8  C 7879.144 1102.8  7882.84 1106.496  7882.84 1111.2  C 7882.84 1115.904  7879.144 1119.6  7874.44 1119.6  " fill-rule="nonzero" fill="#cccccc" stroke="none" />
    <path d="M 7707 1187  L 7707 1137.5  L 7783.25 1115  L 7890 1168.50458715596  L 7951 1128.5  L 8012 1168.50458715596  L 8012 1187  L 7707 1187  " fill-rule="nonzero" fill="#169bd5" stroke="none" />
  </g>
</svg>