<?xml version="1.0" encoding="utf-8"?>
<svg version="1.1" xmlns:xlink="http://www.w3.org/1999/xlink" width="10px" height="663px" preserveAspectRatio="xMidYMin meet" viewBox="5510 1522  8 663" xmlns="http://www.w3.org/2000/svg">
  <path d="M 5315 2180  L 5514 2180  L 5514 1527  L 5651 1527  " stroke-width="2" stroke-dasharray="18,8" stroke="#0033ff" fill="none" />
  <path d="M 5312.5 2176.5  A 3.5 3.5 0 0 0 5309 2180 A 3.5 3.5 0 0 0 5312.5 2183.5 A 3.5 3.5 0 0 0 5316 2180 A 3.5 3.5 0 0 0 5312.5 2176.5 Z M 5312.5 2178.5  A 1.5 1.5 0 0 1 5314 2180 A 1.5 1.5 0 0 1 5312.5 2181.5 A 1.5 1.5 0 0 1 5311 2180 A 1.5 1.5 0 0 1 5312.5 2178.5 Z M 5649 1536.5  L 5663 1527  L 5649 1517.5  L 5649 1536.5  Z " fill-rule="nonzero" fill="#0033ff" stroke="none" />
</svg>