<?xml version="1.0" encoding="utf-8"?>
<svg version="1.1" xmlns:xlink="http://www.w3.org/1999/xlink" width="300px" height="112px" xmlns="http://www.w3.org/2000/svg">
  <g transform="matrix(1 0 0 1 -6236 -1928 )">
    <path d="M 6236 1928  L 6536 1928  L 6536 2040  L 6236 2040  L 6236 1928  " fill-rule="nonzero" fill="#cccccc" stroke="none" />
    <path d="M 6244 1936  L 6528 1936  L 6528 2032  L 6244 2032  L 6244 1936  " fill-rule="nonzero" fill="#ffffff" stroke="none" />
    <path d="M 6400.4 1961.6  C 6395.696 1961.6  6392 1957.904  6392 1953.2  C 6392 1948.496  6395.696 1944.8  6400.4 1944.8  C 6405.104 1944.8  6408.8 1948.496  6408.8 1953.2  C 6408.8 1957.904  6405.104 1961.6  6400.4 1961.6  " fill-rule="nonzero" fill="#cccccc" stroke="none" />
    <path d="M 6247 2029  L 6247 1979.5  L 6316.5 1957  L 6413.8 2008.84  L 6469.4 1970.5  L 6525 2008.84  L 6525 2029  L 6247 2029  " fill-rule="nonzero" fill="#169bd5" stroke="none" />
  </g>
</svg>