<?xml version="1.0" encoding="utf-8"?>
<svg version="1.1" xmlns:xlink="http://www.w3.org/1999/xlink" width="73px" height="10px" preserveAspectRatio="xMinYMid meet" viewBox="6134 1362  73 8" xmlns="http://www.w3.org/2000/svg">
  <path d="M 6026 1785  L 6139 1785  L 6139 1366  L 6195 1366  " stroke-width="2" stroke-dasharray="18,8" stroke="#0033ff" fill="none" />
  <path d="M 6023.5 1781.5  A 3.5 3.5 0 0 0 6020 1785 A 3.5 3.5 0 0 0 6023.5 1788.5 A 3.5 3.5 0 0 0 6027 1785 A 3.5 3.5 0 0 0 6023.5 1781.5 Z M 6023.5 1783.5  A 1.5 1.5 0 0 1 6025 1785 A 1.5 1.5 0 0 1 6023.5 1786.5 A 1.5 1.5 0 0 1 6022 1785 A 1.5 1.5 0 0 1 6023.5 1783.5 Z M 6193 1375.5  L 6207 1366  L 6193 1356.5  L 6193 1375.5  Z " fill-rule="nonzero" fill="#0033ff" stroke="none" />
</svg>