<?xml version="1.0" encoding="utf-8"?>
<svg version="1.1" xmlns:xlink="http://www.w3.org/1999/xlink" width="21px" height="20px" preserveAspectRatio="xMinYMid meet" viewBox="6549 2160  21 18" xmlns="http://www.w3.org/2000/svg">
  <path d="M 6562 2169  L 6687 2169  L 6687 1520  L 6725 1520  " stroke-width="2" stroke-dasharray="18,8" stroke="#0033ff" fill="none" />
  <path d="M 6559.5 2165.5  A 3.5 3.5 0 0 0 6556 2169 A 3.5 3.5 0 0 0 6559.5 2172.5 A 3.5 3.5 0 0 0 6563 2169 A 3.5 3.5 0 0 0 6559.5 2165.5 Z M 6559.5 2167.5  A 1.5 1.5 0 0 1 6561 2169 A 1.5 1.5 0 0 1 6559.5 2170.5 A 1.5 1.5 0 0 1 6558 2169 A 1.5 1.5 0 0 1 6559.5 2167.5 Z M 6723 1529.5  L 6737 1520  L 6723 1510.5  L 6723 1529.5  Z " fill-rule="nonzero" fill="#0033ff" stroke="none" />
</svg>