<?xml version="1.0" encoding="utf-8"?>
<svg version="1.1" xmlns:xlink="http://www.w3.org/1999/xlink" width="21px" height="20px" preserveAspectRatio="xMinYMid meet" viewBox="5311 2171  21 18" xmlns="http://www.w3.org/2000/svg">
  <path d="M 5324 2180  L 5511 2180  L 5511 3317  L 5682 3317  " stroke-width="2" stroke-dasharray="18,8" stroke="#0033ff" fill="none" />
  <path d="M 5321.5 2176.5  A 3.5 3.5 0 0 0 5318 2180 A 3.5 3.5 0 0 0 5321.5 2183.5 A 3.5 3.5 0 0 0 5325 2180 A 3.5 3.5 0 0 0 5321.5 2176.5 Z M 5321.5 2178.5  A 1.5 1.5 0 0 1 5323 2180 A 1.5 1.5 0 0 1 5321.5 2181.5 A 1.5 1.5 0 0 1 5320 2180 A 1.5 1.5 0 0 1 5321.5 2178.5 Z M 5680 3326.5  L 5694 3317  L 5680 3307.5  L 5680 3326.5  Z " fill-rule="nonzero" fill="#0033ff" stroke="none" />
</svg>