<?xml version="1.0" encoding="utf-8"?>
<svg version="1.1" xmlns:xlink="http://www.w3.org/1999/xlink" width="327px" height="112px" xmlns="http://www.w3.org/2000/svg">
  <g transform="matrix(1 0 0 1 -7696 -1816 )">
    <path d="M 7696 1816  L 8023 1816  L 8023 1928  L 7696 1928  L 7696 1816  " fill-rule="nonzero" fill="#cccccc" stroke="none" />
    <path d="M 7704 1824  L 8015 1824  L 8015 1920  L 7704 1920  L 7704 1824  " fill-rule="nonzero" fill="#ffffff" stroke="none" />
    <path d="M 7874.44 1849.6  C 7869.736 1849.6  7866.04 1845.904  7866.04 1841.2  C 7866.04 1836.496  7869.736 1832.8  7874.44 1832.8  C 7879.144 1832.8  7882.84 1836.496  7882.84 1841.2  C 7882.84 1845.904  7879.144 1849.6  7874.44 1849.6  " fill-rule="nonzero" fill="#cccccc" stroke="none" />
    <path d="M 7707 1917  L 7707 1867.5  L 7783.25 1845  L 7890 1898.50458715596  L 7951 1858.5  L 8012 1898.50458715596  L 8012 1917  L 7707 1917  " fill-rule="nonzero" fill="#169bd5" stroke="none" />
  </g>
</svg>