<?xml version="1.0" encoding="utf-8"?>
<svg version="1.1" xmlns:xlink="http://www.w3.org/1999/xlink" width="300px" height="170px" xmlns="http://www.w3.org/2000/svg">
  <g transform="matrix(1 0 0 1 -3122 -615 )">
    <path d="M 3122 615  L 3422 615  L 3422 785  L 3122 785  L 3122 615  " fill-rule="nonzero" fill="#cccccc" stroke="none" />
    <path d="M 3134 627  L 3410 627  L 3410 773  L 3134 773  L 3134 627  " fill-rule="nonzero" fill="#ffffff" stroke="none" />
    <path d="M 3290.75 666  C 3283.61 666  3278 660.39  3278 653.25  C 3278 646.11  3283.61 640.5  3290.75 640.5  C 3297.89 640.5  3303.5 646.11  3303.5 653.25  C 3303.5 660.39  3297.89 666  3290.75 666  " fill-rule="nonzero" fill="#cccccc" stroke="none" />
    <path d="M 3139 769  L 3139 693.65  L 3205.75 659.4  L 3299.2 722.42  L 3352.6 679.95  L 3406 722.42  L 3406 769  L 3139 769  " fill-rule="nonzero" fill="#169bd5" stroke="none" />
  </g>
</svg>