<?xml version="1.0" encoding="utf-8"?>
<svg version="1.1" xmlns:xlink="http://www.w3.org/1999/xlink" width="348px" height="76px" xmlns="http://www.w3.org/2000/svg">
  <g transform="matrix(1 0 0 1 -1910 -560 )">
    <path d="M 1911 564  A 3 3 0 0 1 1914 561 L 2254 561  A 3 3 0 0 1 2257 564 L 2257 632  A 3 3 0 0 1 2254 635 L 1914 635  A 3 3 0 0 1 1911 632 L 1911 564  Z " fill-rule="nonzero" fill="#ff3399" stroke="none" fill-opacity="0.0980392156862745" />
    <path d="M 1910.5 564  A 3.5 3.5 0 0 1 1914 560.5 L 2254 560.5  A 3.5 3.5 0 0 1 2257.5 564 L 2257.5 632  A 3.5 3.5 0 0 1 2254 635.5 L 1914 635.5  A 3.5 3.5 0 0 1 1910.5 632 L 1910.5 564  Z " stroke-width="1" stroke-dasharray="9,4" stroke="#ff3399" fill="none" stroke-dashoffset="0.5" />
  </g>
</svg>