<?xml version="1.0" encoding="utf-8"?>
<svg version="1.1" xmlns:xlink="http://www.w3.org/1999/xlink" width="18px" height="18px" preserveAspectRatio="xMinYMid meet" viewBox="1885 584  18 16" xmlns="http://www.w3.org/2000/svg">
  <path d="M 1896 592.5  L 1865 592.5  A 5 5 0 0 1 1860.5 587.5 L 1860.5 205  A 5 5 0 0 1 1865.5 200.5 L 1912 200.5  A 5 5 0 0 1 1917.5 205.5 L 1917.5 210  " stroke-width="1" stroke="#ff3399" fill="none" />
  <path d="M 1894 589.5  A 3 3 0 0 0 1891 592.5 A 3 3 0 0 0 1894 595.5 A 3 3 0 0 0 1897 592.5 A 3 3 0 0 0 1894 589.5 Z " fill-rule="nonzero" fill="#ff3399" stroke="none" />
</svg>