<?xml version="1.0" encoding="utf-8"?>
<svg version="1.1" xmlns:xlink="http://www.w3.org/1999/xlink" width="10px" height="24px" preserveAspectRatio="xMidYMin meet" viewBox="2662 165  8 24" xmlns="http://www.w3.org/2000/svg">
  <path d="M 2623 632.5  L 2615 632.5  A 5 5 0 0 1 2610.5 627 L 2610.5 348  A 3 3 0 0 0 2613.5 345 A 3 3 0 0 0 2610.5 342 L 2610.5 175  A 5 5 0 0 1 2615.5 170.5 L 2661 170.5  A 5 5 0 0 1 2666.5 175.5 L 2666.5 189  " stroke-width="1" stroke="#ff3399" fill="none" />
  <path d="M 2621 629.5  A 3 3 0 0 0 2618 632.5 A 3 3 0 0 0 2621 635.5 A 3 3 0 0 0 2624 632.5 A 3 3 0 0 0 2621 629.5 Z " fill-rule="nonzero" fill="#ff3399" stroke="none" />
</svg>