<?xml version="1.0" encoding="utf-8"?>
<svg version="1.1" xmlns:xlink="http://www.w3.org/1999/xlink" width="560px" height="100px" xmlns="http://www.w3.org/2000/svg">
  <g transform="matrix(1 0 0 1 -3577 -375 )">
    <path d="M 3578 379  A 3 3 0 0 1 3581 376 L 4133 376  A 3 3 0 0 1 4136 379 L 4136 471  A 3 3 0 0 1 4133 474 L 3581 474  A 3 3 0 0 1 3578 471 L 3578 379  Z " fill-rule="nonzero" fill="#ff3399" stroke="none" fill-opacity="0.0980392156862745" />
    <path d="M 3577.5 379  A 3.5 3.5 0 0 1 3581 375.5 L 4133 375.5  A 3.5 3.5 0 0 1 4136.5 379 L 4136.5 471  A 3.5 3.5 0 0 1 4133 474.5 L 3581 474.5  A 3.5 3.5 0 0 1 3577.5 471 L 3577.5 379  Z " stroke-width="1" stroke-dasharray="9,4" stroke="#ff3399" fill="none" stroke-dashoffset="0.5" />
  </g>
</svg>