<?xml version="1.0" encoding="utf-8"?>
<svg version="1.1" xmlns:xlink="http://www.w3.org/1999/xlink" width="300px" height="170px" xmlns="http://www.w3.org/2000/svg">
  <g transform="matrix(1 0 0 1 -3122 -1345 )">
    <path d="M 3122 1345  L 3422 1345  L 3422 1515  L 3122 1515  L 3122 1345  " fill-rule="nonzero" fill="#cccccc" stroke="none" />
    <path d="M 3134 1357  L 3410 1357  L 3410 1503  L 3134 1503  L 3134 1357  " fill-rule="nonzero" fill="#ffffff" stroke="none" />
    <path d="M 3290.75 1396  C 3283.61 1396  3278 1390.39  3278 1383.25  C 3278 1376.11  3283.61 1370.5  3290.75 1370.5  C 3297.89 1370.5  3303.5 1376.11  3303.5 1383.25  C 3303.5 1390.39  3297.89 1396  3290.75 1396  " fill-rule="nonzero" fill="#cccccc" stroke="none" />
    <path d="M 3139 1499  L 3139 1423.65  L 3205.75 1389.4  L 3299.2 1452.42  L 3352.6 1409.95  L 3406 1452.42  L 3406 1499  L 3139 1499  " fill-rule="nonzero" fill="#169bd5" stroke="none" />
  </g>
</svg>