<?xml version="1.0" encoding="utf-8"?>
<svg version="1.1" xmlns:xlink="http://www.w3.org/1999/xlink" width="300px" height="170px" xmlns="http://www.w3.org/2000/svg">
  <g transform="matrix(1 0 0 1 -3093 -1340 )">
    <path d="M 3093 1340  L 3393 1340  L 3393 1510  L 3093 1510  L 3093 1340  " fill-rule="nonzero" fill="#cccccc" stroke="none" />
    <path d="M 3105 1352  L 3381 1352  L 3381 1498  L 3105 1498  L 3105 1352  " fill-rule="nonzero" fill="#ffffff" stroke="none" />
    <path d="M 3261.75 1391  C 3254.61 1391  3249 1385.39  3249 1378.25  C 3249 1371.11  3254.61 1365.5  3261.75 1365.5  C 3268.89 1365.5  3274.5 1371.11  3274.5 1378.25  C 3274.5 1385.39  3268.89 1391  3261.75 1391  " fill-rule="nonzero" fill="#cccccc" stroke="none" />
    <path d="M 3110 1494  L 3110 1418.65  L 3176.75 1384.4  L 3270.2 1447.42  L 3323.6 1404.95  L 3377 1447.42  L 3377 1494  L 3110 1494  " fill-rule="nonzero" fill="#169bd5" stroke="none" />
  </g>
</svg>