<?xml version="1.0" encoding="utf-8"?>
<svg version="1.1" xmlns:xlink="http://www.w3.org/1999/xlink" width="370px" height="69px" xmlns="http://www.w3.org/2000/svg">
  <g transform="matrix(1 0 0 1 -3551 -2311 )">
    <path d="M 3552 2315  A 3 3 0 0 1 3555 2312 L 3917 2312  A 3 3 0 0 1 3920 2315 L 3920 2376  A 3 3 0 0 1 3917 2379 L 3555 2379  A 3 3 0 0 1 3552 2376 L 3552 2315  Z " fill-rule="nonzero" fill="#ff3399" stroke="none" fill-opacity="0.0980392156862745" />
    <path d="M 3551.5 2315  A 3.5 3.5 0 0 1 3555 2311.5 L 3917 2311.5  A 3.5 3.5 0 0 1 3920.5 2315 L 3920.5 2376  A 3.5 3.5 0 0 1 3917 2379.5 L 3555 2379.5  A 3.5 3.5 0 0 1 3551.5 2376 L 3551.5 2315  Z " stroke-width="1" stroke-dasharray="9,4" stroke="#ff3399" fill="none" stroke-dashoffset="0.5" />
  </g>
</svg>