<?xml version="1.0" encoding="utf-8"?>
<svg version="1.1" xmlns:xlink="http://www.w3.org/1999/xlink" width="64px" height="10px" preserveAspectRatio="xMinYMid meet" viewBox="3505 3476  64 8" xmlns="http://www.w3.org/2000/svg">
  <path d="M 3550 2346.5  L 3515 2346.5  A 5 5 0 0 0 3510.5 2351 A 3 3 0 0 1 3513.5 2354 A 3 3 0 0 1 3510.5 2357 L 3510.5 3475  A 5 5 0 0 0 3515.5 3480.5 L 3559 3480.5  A 5 5 0 0 1 3564.5 3485.5 L 3564.5 3495  " stroke-width="1" stroke="#ff3399" fill="none" />
  <path d="M 3548 2343.5  A 3 3 0 0 0 3545 2346.5 A 3 3 0 0 0 3548 2349.5 A 3 3 0 0 0 3551 2346.5 A 3 3 0 0 0 3548 2343.5 Z " fill-rule="nonzero" fill="#ff3399" stroke="none" />
</svg>