<?xml version="1.0" encoding="utf-8"?>
<svg version="1.1" xmlns:xlink="http://www.w3.org/1999/xlink" width="10px" height="351px" preserveAspectRatio="xMidYMin meet" viewBox="4746 1945  8 351" xmlns="http://www.w3.org/2000/svg">
  <path d="M 4764 2291.5  L 4755 2291.5  A 5 5 0 0 1 4750.5 2286.5 L 4750.5 1955  A 5 5 0 0 1 4755.5 1950.5 L 4829 1950.5  A 5 5 0 0 1 4834.5 1955.5 L 4834.5 1963  " stroke-width="1" stroke="#ff3399" fill="none" />
  <path d="M 4762 2288.5  A 3 3 0 0 0 4759 2291.5 A 3 3 0 0 0 4762 2294.5 A 3 3 0 0 0 4765 2291.5 A 3 3 0 0 0 4762 2288.5 Z " fill-rule="nonzero" fill="#ff3399" stroke="none" />
</svg>