<?xml version="1.0" encoding="utf-8"?>
<svg version="1.1" xmlns:xlink="http://www.w3.org/1999/xlink" width="10px" height="938px" preserveAspectRatio="xMidYMin meet" viewBox="4106 1585  8 938" xmlns="http://www.w3.org/2000/svg">
  <path d="M 4237 2518.5  L 4115 2518.5  A 5 5 0 0 1 4110.5 2513.5 L 4110.5 1595  A 5 5 0 0 1 4115.5 1590.5 L 4159 1590.5  A 5 5 0 0 1 4164.5 1595.5 L 4164.5 1601  " stroke-width="1" stroke="#ff3399" fill="none" />
  <path d="M 4235 2515.5  A 3 3 0 0 0 4232 2518.5 A 3 3 0 0 0 4235 2521.5 A 3 3 0 0 0 4238 2518.5 A 3 3 0 0 0 4235 2515.5 Z " fill-rule="nonzero" fill="#ff3399" stroke="none" />
</svg>