<?xml version="1.0" encoding="utf-8"?>
<svg version="1.1" xmlns:xlink="http://www.w3.org/1999/xlink" width="1133px" height="10px" preserveAspectRatio="xMinYMid meet" viewBox="3485 2089  1133 8" xmlns="http://www.w3.org/2000/svg">
  <path d="M 3351 2763  L 3485 2763  A 5 5 0 0 0 3490 2758 L 3490 2357  A 3 3 0 0 0 3493 2354 A 3 3 0 0 0 3490 2351 L 3490 2098  A 5 5 0 0 1 3495 2093 L 4024 2093  A 3 3 0 0 1 4027 2090 A 3 3 0 0 1 4030 2093 L 4107 2093  A 3 3 0 0 1 4110 2090 A 3 3 0 0 1 4113 2093 L 4608 2093  A 5 5 0 0 1 4613 2098 L 4613 2301  A 5 5 0 0 0 4618 2306 L 4709 2306  A 5 5 0 0 1 4714 2311 L 4714 2372  A 5 5 0 0 0 4719 2377 L 4759 2377  " stroke-width="2" stroke-dasharray="34,16" stroke="#0033ff" fill="none" />
  <path d="M 4758 2384.6  L 4765 2377  L 4758 2369.4  L 4758 2384.6  Z " fill-rule="nonzero" fill="#0033ff" stroke="none" />
</svg>