<?xml version="1.0" encoding="utf-8"?>
<svg version="1.1" xmlns:xlink="http://www.w3.org/1999/xlink" width="110px" height="10px" preserveAspectRatio="xMinYMid meet" viewBox="3475 4336  110 8" xmlns="http://www.w3.org/2000/svg">
  <path d="M 3554 2896.5  L 3513 2896.5  A 3 3 0 0 0 3510 2893.5 A 3 3 0 0 0 3507 2896.5 L 3485 2896.5  A 5 5 0 0 0 3480.5 2901.5 L 3480.5 4335  A 5 5 0 0 0 3485.5 4340.5 L 3575 4340.5  A 5 5 0 0 1 3580.5 4345.5 L 3580.5 4353  " stroke-width="1" stroke="#ff3399" fill="none" />
  <path d="M 3552 2893.5  A 3 3 0 0 0 3549 2896.5 A 3 3 0 0 0 3552 2899.5 A 3 3 0 0 0 3555 2896.5 A 3 3 0 0 0 3552 2893.5 Z " fill-rule="nonzero" fill="#ff3399" stroke="none" />
</svg>