<?xml version="1.0" encoding="utf-8"?>
<svg version="1.1" xmlns:xlink="http://www.w3.org/1999/xlink" width="358px" height="77px" xmlns="http://www.w3.org/2000/svg">
  <g transform="matrix(1 0 0 1 -3555 -2862 )">
    <path d="M 3556 2866  A 3 3 0 0 1 3559 2863 L 3909 2863  A 3 3 0 0 1 3912 2866 L 3912 2935  A 3 3 0 0 1 3909 2938 L 3559 2938  A 3 3 0 0 1 3556 2935 L 3556 2866  Z " fill-rule="nonzero" fill="#ff3399" stroke="none" fill-opacity="0.0980392156862745" />
    <path d="M 3555.5 2866  A 3.5 3.5 0 0 1 3559 2862.5 L 3909 2862.5  A 3.5 3.5 0 0 1 3912.5 2866 L 3912.5 2935  A 3.5 3.5 0 0 1 3909 2938.5 L 3559 2938.5  A 3.5 3.5 0 0 1 3555.5 2935 L 3555.5 2866  Z " stroke-width="1" stroke-dasharray="9,4" stroke="#ff3399" fill="none" stroke-dashoffset="0.5" />
  </g>
</svg>