<?xml version="1.0" encoding="utf-8"?>
<svg version="1.1" xmlns:xlink="http://www.w3.org/1999/xlink" width="348px" height="76px" xmlns="http://www.w3.org/2000/svg">
  <g transform="matrix(1 0 0 1 -1910 -1290 )">
    <path d="M 1911 1294  A 3 3 0 0 1 1914 1291 L 2254 1291  A 3 3 0 0 1 2257 1294 L 2257 1362  A 3 3 0 0 1 2254 1365 L 1914 1365  A 3 3 0 0 1 1911 1362 L 1911 1294  Z " fill-rule="nonzero" fill="#ff3399" stroke="none" fill-opacity="0.0980392156862745" />
    <path d="M 1910.5 1294  A 3.5 3.5 0 0 1 1914 1290.5 L 2254 1290.5  A 3.5 3.5 0 0 1 2257.5 1294 L 2257.5 1362  A 3.5 3.5 0 0 1 2254 1365.5 L 1914 1365.5  A 3.5 3.5 0 0 1 1910.5 1362 L 1910.5 1294  Z " stroke-width="1" stroke-dasharray="9,4" stroke="#ff3399" fill="none" stroke-dashoffset="0.5" />
  </g>
</svg>