<?xml version="1.0" encoding="utf-8"?>
<svg version="1.1" xmlns:xlink="http://www.w3.org/1999/xlink" width="18px" height="18px" preserveAspectRatio="xMinYMid meet" viewBox="2612 1354  18 16" xmlns="http://www.w3.org/2000/svg">
  <path d="M 2623 1362.5  L 2615 1362.5  A 5 5 0 0 1 2610.5 1357 L 2610.5 1078  A 3 3 0 0 0 2613.5 1075 A 3 3 0 0 0 2610.5 1072 L 2610.5 905  A 5 5 0 0 1 2615.5 900.5 L 2661 900.5  A 5 5 0 0 1 2666.5 905.5 L 2666.5 919  " stroke-width="1" stroke="#ff3399" fill="none" />
  <path d="M 2621 1359.5  A 3 3 0 0 0 2618 1362.5 A 3 3 0 0 0 2621 1365.5 A 3 3 0 0 0 2624 1362.5 A 3 3 0 0 0 2621 1359.5 Z " fill-rule="nonzero" fill="#ff3399" stroke="none" />
</svg>