<?xml version="1.0" encoding="utf-8"?>
<svg version="1.1" xmlns:xlink="http://www.w3.org/1999/xlink" width="354px" height="10px" preserveAspectRatio="xMinYMid meet" viewBox="781 2249  354 8" xmlns="http://www.w3.org/2000/svg">
  <path d="M 1129 2253.5  L 877 2253.5  A 3 3 0 0 0 874 2250.5 A 3 3 0 0 0 871 2253.5 L 791 2253.5  A 5 5 0 0 0 786.5 2258.5 L 786.5 2439  A 5 5 0 0 1 781.5 2444.5 L 608 2444.5  A 5 5 0 0 0 603.5 2449.5 L 603.5 2454  " stroke-width="1" stroke="#ff3399" fill="none" />
  <path d="M 1127 2250.5  A 3 3 0 0 0 1124 2253.5 A 3 3 0 0 0 1127 2256.5 A 3 3 0 0 0 1130 2253.5 A 3 3 0 0 0 1127 2250.5 Z " fill-rule="nonzero" fill="#ff3399" stroke="none" />
</svg>