<?xml version="1.0" encoding="utf-8"?>
<svg version="1.1" xmlns:xlink="http://www.w3.org/1999/xlink" width="64px" height="10px" preserveAspectRatio="xMinYMid meet" viewBox="4105 2316  64 8" xmlns="http://www.w3.org/2000/svg">
  <path d="M 4237 3248.5  L 4115 3248.5  A 5 5 0 0 1 4110.5 3243.5 L 4110.5 2325  A 5 5 0 0 1 4115.5 2320.5 L 4159 2320.5  A 5 5 0 0 1 4164.5 2325.5 L 4164.5 2331  " stroke-width="1" stroke="#ff3399" fill="none" />
  <path d="M 4235 3245.5  A 3 3 0 0 0 4232 3248.5 A 3 3 0 0 0 4235 3251.5 A 3 3 0 0 0 4238 3248.5 A 3 3 0 0 0 4235 3245.5 Z " fill-rule="nonzero" fill="#ff3399" stroke="none" />
</svg>