<?xml version="1.0" encoding="utf-8"?>
<svg version="1.1" xmlns:xlink="http://www.w3.org/1999/xlink" width="560px" height="100px" xmlns="http://www.w3.org/2000/svg">
  <g transform="matrix(1 0 0 1 -3542 -1105 )">
    <path d="M 3543 1109  A 3 3 0 0 1 3546 1106 L 4098 1106  A 3 3 0 0 1 4101 1109 L 4101 1201  A 3 3 0 0 1 4098 1204 L 3546 1204  A 3 3 0 0 1 3543 1201 L 3543 1109  Z " fill-rule="nonzero" fill="#ff3399" stroke="none" fill-opacity="0.0980392156862745" />
    <path d="M 3542.5 1109  A 3.5 3.5 0 0 1 3546 1105.5 L 4098 1105.5  A 3.5 3.5 0 0 1 4101.5 1109 L 4101.5 1201  A 3.5 3.5 0 0 1 4098 1204.5 L 3546 1204.5  A 3.5 3.5 0 0 1 3542.5 1201 L 3542.5 1109  Z " stroke-width="1" stroke-dasharray="9,4" stroke="#ff3399" fill="none" stroke-dashoffset="0.5" />
  </g>
</svg>