<?xml version="1.0" encoding="utf-8"?>
<svg version="1.1" xmlns:xlink="http://www.w3.org/1999/xlink" width="18px" height="18px" preserveAspectRatio="xMinYMid meet" viewBox="6193 522  18 16" xmlns="http://www.w3.org/2000/svg">
  <path d="M 6204 530.5  L 6195 530.5  A 5 5 0 0 1 6190.5 525.5 L 6190.5 235  A 5 5 0 0 1 6195.5 230.5 L 6253 230.5  A 5 5 0 0 1 6258.5 235.5 L 6258.5 245  " stroke-width="1" stroke="#ff3399" fill="none" />
  <path d="M 6202 527.5  A 3 3 0 0 0 6199 530.5 A 3 3 0 0 0 6202 533.5 A 3 3 0 0 0 6205 530.5 A 3 3 0 0 0 6202 527.5 Z " fill-rule="nonzero" fill="#ff3399" stroke="none" />
</svg>