<?xml version="1.0" encoding="utf-8"?>
<svg version="1.1" xmlns:xlink="http://www.w3.org/1999/xlink" width="33px" height="10px" preserveAspectRatio="xMinYMid meet" viewBox="3535 4206  33 8" xmlns="http://www.w3.org/2000/svg">
  <path d="M 3550 3076.5  L 3545 3076.5  A 5 5 0 0 0 3540.5 3081 A 3 3 0 0 1 3543.5 3084 A 3 3 0 0 1 3540.5 3087 L 3540.5 4205  A 5 5 0 0 0 3545.5 4210.5 L 3564.5 4225.5  " stroke-width="1" stroke="#ff3399" fill="none" />
  <path d="M 3548 3073.5  A 3 3 0 0 0 3545 3076.5 A 3 3 0 0 0 3548 3079.5 A 3 3 0 0 0 3551 3076.5 A 3 3 0 0 0 3548 3073.5 Z " fill-rule="nonzero" fill="#ff3399" stroke="none" />
</svg>