<?xml version="1.0" encoding="utf-8"?>
<svg version="1.1" xmlns:xlink="http://www.w3.org/1999/xlink" width="114px" height="10px" preserveAspectRatio="xMinYMid meet" viewBox="5569 2929  114 8" xmlns="http://www.w3.org/2000/svg">
  <path d="M 5695 2729.5  L 5634 2729.5  A 5 5 0 0 0 5629.5 2734.5 L 5629.5 2756  A 5 5 0 0 1 5624.5 2761.5 L 5579 2761.5  A 5 5 0 0 0 5574.5 2766.5 L 5574.5 2928  A 5 5 0 0 0 5579.5 2933.5 L 5673 2933.5  A 5 5 0 0 1 5678.5 2938.5 L 5678.5 2943  " stroke-width="1" stroke="#ff3399" fill="none" />
  <path d="M 5693 2726.5  A 3 3 0 0 0 5690 2729.5 A 3 3 0 0 0 5693 2732.5 A 3 3 0 0 0 5696 2729.5 A 3 3 0 0 0 5693 2726.5 Z " fill-rule="nonzero" fill="#ff3399" stroke="none" />
</svg>