<?xml version="1.0" encoding="utf-8"?>
<svg version="1.1" xmlns:xlink="http://www.w3.org/1999/xlink" width="18px" height="18px" preserveAspectRatio="xMinYMid meet" viewBox="5684 2721  18 16" xmlns="http://www.w3.org/2000/svg">
  <path d="M 5695 2729.5  L 5577 2729.5  A 5 5 0 0 1 5572.5 2724 L 5572.5 2590  A 3 3 0 0 0 5575.5 2587 A 3 3 0 0 0 5572.5 2584 L 5572.5 1775  A 5 5 0 0 1 5577.5 1770.5 L 5635 1770.5  A 5 5 0 0 1 5640.5 1775.5 L 5640.5 1784  " stroke-width="1" stroke="#ff3399" fill="none" />
  <path d="M 5693 2726.5  A 3 3 0 0 0 5690 2729.5 A 3 3 0 0 0 5693 2732.5 A 3 3 0 0 0 5696 2729.5 A 3 3 0 0 0 5693 2726.5 Z " fill-rule="nonzero" fill="#ff3399" stroke="none" />
</svg>