<?xml version="1.0" encoding="utf-8"?>
<svg version="1.1" xmlns:xlink="http://www.w3.org/1999/xlink" width="10px" height="223px" preserveAspectRatio="xMidYMin meet" viewBox="4609 2818  8 223" xmlns="http://www.w3.org/2000/svg">
  <path d="M 3351 3493  L 3485 3493  A 5 5 0 0 0 3490 3488 L 3490 3087  A 3 3 0 0 0 3493 3084 A 3 3 0 0 0 3490 3081 L 3490 2828  A 5 5 0 0 1 3495 2823 L 4024 2823  A 3 3 0 0 1 4027 2820 A 3 3 0 0 1 4030 2823 L 4235 2823  A 3 3 0 0 1 4238 2820 A 3 3 0 0 1 4241 2823 L 4608 2823  A 5 5 0 0 1 4613 2828 L 4613 3031  A 5 5 0 0 0 4618 3036 L 4709 3036  A 5 5 0 0 1 4714 3041 L 4714 3102  A 5 5 0 0 0 4719 3107 L 4759 3107  " stroke-width="2" stroke-dasharray="34,16" stroke="#0033ff" fill="none" />
  <path d="M 4758 3114.6  L 4765 3107  L 4758 3099.4  L 4758 3114.6  Z " fill-rule="nonzero" fill="#0033ff" stroke="none" />
</svg>