<?xml version="1.0" encoding="utf-8"?>
<svg version="1.1" xmlns:xlink="http://www.w3.org/1999/xlink" width="80px" height="10px" preserveAspectRatio="xMinYMid meet" viewBox="3475 3622  80 8" xmlns="http://www.w3.org/2000/svg">
  <path d="M 3554 3626.5  L 3513 3626.5  A 3 3 0 0 0 3510 3623.5 A 3 3 0 0 0 3507 3626.5 L 3485 3626.5  A 5 5 0 0 0 3480.5 3631.5 L 3480.5 5065  A 5 5 0 0 0 3485.5 5070.5 L 3575 5070.5  A 5 5 0 0 1 3580.5 5075.5 L 3580.5 5083  " stroke-width="1" stroke="#ff3399" fill="none" />
  <path d="M 3552 3623.5  A 3 3 0 0 0 3549 3626.5 A 3 3 0 0 0 3552 3629.5 A 3 3 0 0 0 3555 3626.5 A 3 3 0 0 0 3552 3623.5 Z " fill-rule="nonzero" fill="#ff3399" stroke="none" />
</svg>