<?xml version="1.0" encoding="utf-8"?>
<svg version="1.1" xmlns:xlink="http://www.w3.org/1999/xlink" width="358px" height="77px" xmlns="http://www.w3.org/2000/svg">
  <g transform="matrix(1 0 0 1 -3555 -3592 )">
    <path d="M 3556 3596  A 3 3 0 0 1 3559 3593 L 3909 3593  A 3 3 0 0 1 3912 3596 L 3912 3665  A 3 3 0 0 1 3909 3668 L 3559 3668  A 3 3 0 0 1 3556 3665 L 3556 3596  Z " fill-rule="nonzero" fill="#ff3399" stroke="none" fill-opacity="0.0980392156862745" />
    <path d="M 3555.5 3596  A 3.5 3.5 0 0 1 3559 3592.5 L 3909 3592.5  A 3.5 3.5 0 0 1 3912.5 3596 L 3912.5 3665  A 3.5 3.5 0 0 1 3909 3668.5 L 3559 3668.5  A 3.5 3.5 0 0 1 3555.5 3665 L 3555.5 3596  Z " stroke-width="1" stroke-dasharray="9,4" stroke="#ff3399" fill="none" stroke-dashoffset="0.5" />
  </g>
</svg>