<?xml version="1.0" encoding="utf-8"?>
<svg version="1.1" xmlns:xlink="http://www.w3.org/1999/xlink" width="10px" height="15px" preserveAspectRatio="xMidYMin meet" viewBox="598 3169  8 15" xmlns="http://www.w3.org/2000/svg">
  <path d="M 1129 2983.5  L 877 2983.5  A 3 3 0 0 0 874 2980.5 A 3 3 0 0 0 871 2983.5 L 791 2983.5  A 5 5 0 0 0 786.5 2988.5 L 786.5 3169  A 5 5 0 0 1 781.5 3174.5 L 603.5 3184.5  " stroke-width="1" stroke="#ff3399" fill="none" />
  <path d="M 1127 2980.5  A 3 3 0 0 0 1124 2983.5 A 3 3 0 0 0 1127 2986.5 A 3 3 0 0 0 1130 2983.5 A 3 3 0 0 0 1127 2980.5 Z " fill-rule="nonzero" fill="#ff3399" stroke="none" />
</svg>