<?xml version="1.0" encoding="utf-8"?>
<svg version="1.1" xmlns:xlink="http://www.w3.org/1999/xlink" width="10px" height="19px" preserveAspectRatio="xMidYMin meet" viewBox="5635 2495  8 19" xmlns="http://www.w3.org/2000/svg">
  <path d="M 5695 3459.5  L 5577 3459.5  A 5 5 0 0 1 5572.5 3454 L 5572.5 3320  A 3 3 0 0 0 5575.5 3317 A 3 3 0 0 0 5572.5 3314 L 5572.5 2505  A 5 5 0 0 1 5577.5 2500.5 L 5640.5 2514.5  " stroke-width="1" stroke="#ff3399" fill="none" />
  <path d="M 5693 3456.5  A 3 3 0 0 0 5690 3459.5 A 3 3 0 0 0 5693 3462.5 A 3 3 0 0 0 5696 3459.5 A 3 3 0 0 0 5693 3456.5 Z " fill-rule="nonzero" fill="#ff3399" stroke="none" />
</svg>