<?xml version="1.0" encoding="utf-8"?>
<svg version="1.1" xmlns:xlink="http://www.w3.org/1999/xlink" width="18px" height="18px" preserveAspectRatio="xMinYMid meet" viewBox="1420 1298  18 16" xmlns="http://www.w3.org/2000/svg">
  <path d="M 1431 1306.5  L 1105 1306.5  A 5 5 0 0 1 1100.5 1301.5 L 1100.5 745  A 5 5 0 0 1 1105.5 740.5 L 1153 740.5  A 5 5 0 0 1 1158.5 745.5 L 1158.5 756  " stroke-width="1" stroke="#ff3399" fill="none" />
  <path d="M 1429 1303.5  A 3 3 0 0 0 1426 1306.5 A 3 3 0 0 0 1429 1309.5 A 3 3 0 0 0 1432 1306.5 A 3 3 0 0 0 1429 1303.5 Z " fill-rule="nonzero" fill="#ff3399" stroke="none" />
</svg>