<?xml version="1.0" encoding="utf-8"?>
<svg version="1.1" xmlns:xlink="http://www.w3.org/1999/xlink" width="23px" height="10px" preserveAspectRatio="xMinYMid meet" viewBox="7655 1238  23 8" xmlns="http://www.w3.org/2000/svg">
  <path d="M 7677 1242.5  L 7665 1242.5  A 5 5 0 0 1 7660.5 1237.5 L 7660.5 975  A 5 5 0 0 1 7665.5 970.5 L 7743 970.5  A 5 5 0 0 1 7748.5 975.5 L 7748.5 984  " stroke-width="1" stroke="#ff3399" fill="none" />
  <path d="M 7675 1239.5  A 3 3 0 0 0 7672 1242.5 A 3 3 0 0 0 7675 1245.5 A 3 3 0 0 0 7678 1242.5 A 3 3 0 0 0 7675 1239.5 Z " fill-rule="nonzero" fill="#ff3399" stroke="none" />
</svg>