<?xml version="1.0" encoding="utf-8"?>
<svg version="1.1" xmlns:xlink="http://www.w3.org/1999/xlink" width="53px" height="51px" xmlns="http://www.w3.org/2000/svg">
  <g transform="matrix(1 0 0 1 -3335 -1700 )">
    <path d="M 3335 1700  L 3388 1700  L 3388 1751  L 3335 1751  L 3335 1700  " fill-rule="nonzero" fill="#cccccc" stroke="none" />
    <path d="M 3339 1704  L 3384 1704  L 3384 1747  L 3339 1747  L 3339 1704  " fill-rule="nonzero" fill="#ffffff" stroke="none" />
    <path d="M 3366.385 1715.3  C 3364.243 1715.3  3362.56 1713.617  3362.56 1711.475  C 3362.56 1709.333  3364.243 1707.65  3366.385 1707.65  C 3368.527 1707.65  3370.21 1709.333  3370.21 1711.475  C 3370.21 1713.617  3368.527 1715.3  3366.385 1715.3  " fill-rule="nonzero" fill="#cccccc" stroke="none" />
    <path d="M 3341 1746  L 3341 1724  L 3351.5 1714  L 3366.2 1722.90566037736  L 3374.6 1720  L 3383 1722.90566037736  L 3383 1746  L 3341 1746  " fill-rule="nonzero" fill="#169bd5" stroke="none" />
  </g>
</svg>