<?xml version="1.0" encoding="utf-8"?>
<svg version="1.1" xmlns:xlink="http://www.w3.org/1999/xlink" width="53px" height="51px" xmlns="http://www.w3.org/2000/svg">
  <g transform="matrix(1 0 0 1 -3340 -1700 )">
    <path d="M 3340 1700  L 3393 1700  L 3393 1751  L 3340 1751  L 3340 1700  " fill-rule="nonzero" fill="#cccccc" stroke="none" />
    <path d="M 3344 1704  L 3389 1704  L 3389 1747  L 3344 1747  L 3344 1704  " fill-rule="nonzero" fill="#ffffff" stroke="none" />
    <path d="M 3371.385 1715.3  C 3369.243 1715.3  3367.56 1713.617  3367.56 1711.475  C 3367.56 1709.333  3369.243 1707.65  3371.385 1707.65  C 3373.527 1707.65  3375.21 1709.333  3375.21 1711.475  C 3375.21 1713.617  3373.527 1715.3  3371.385 1715.3  " fill-rule="nonzero" fill="#cccccc" stroke="none" />
    <path d="M 3346 1746  L 3346 1724  L 3356.5 1714  L 3371.2 1722.90566037736  L 3379.6 1720  L 3388 1722.90566037736  L 3388 1746  L 3346 1746  " fill-rule="nonzero" fill="#169bd5" stroke="none" />
  </g>
</svg>