<?xml version="1.0" encoding="utf-8"?>
<svg version="1.1" xmlns:xlink="http://www.w3.org/1999/xlink" width="37px" height="10px" preserveAspectRatio="xMinYMid meet" viewBox="5645 1781  37 8" xmlns="http://www.w3.org/2000/svg">
  <path d="M 5681 1785.5  L 5655 1785.5  A 5 5 0 0 1 5650.5 1780 L 5650.5 1530  A 3 3 0 0 0 5653.5 1527 A 3 3 0 0 0 5650.5 1524 L 5650.5 885  A 5 5 0 0 0 5645.5 880.5 L 5594.5 892.5  " stroke-width="1" stroke="#ff3399" fill="none" />
  <path d="M 5679 1782.5  A 3 3 0 0 0 5676 1785.5 A 3 3 0 0 0 5679 1788.5 A 3 3 0 0 0 5682 1785.5 A 3 3 0 0 0 5679 1782.5 Z " fill-rule="nonzero" fill="#ff3399" stroke="none" />
</svg>