<?xml version="1.0" encoding="utf-8"?>
<svg version="1.1" xmlns:xlink="http://www.w3.org/1999/xlink" width="67px" height="10px" preserveAspectRatio="xMinYMid meet" viewBox="6195 1006  67 8" xmlns="http://www.w3.org/2000/svg">
  <path d="M 6216 1370.5  L 6201 1370.5  A 1 1 0 0 1 6200.5 1369 A 3 3 0 0 0 6203.5 1366 A 3 3 0 0 0 6200.5 1363 L 6200.5 1015  A 5 5 0 0 1 6205.5 1010.5 L 6258.5 1021.5  " stroke-width="1" stroke="#ff3399" fill="none" />
  <path d="M 6214 1367.5  A 3 3 0 0 0 6211 1370.5 A 3 3 0 0 0 6214 1373.5 A 3 3 0 0 0 6217 1370.5 A 3 3 0 0 0 6214 1367.5 Z " fill-rule="nonzero" fill="#ff3399" stroke="none" />
</svg>