<?xml version="1.0" encoding="utf-8"?>
<svg version="1.1" xmlns:xlink="http://www.w3.org/1999/xlink" width="349px" height="447px" xmlns="http://www.w3.org/2000/svg">
  <g transform="matrix(1 0 0 1 -8186 -1329 )">
    <path d="M 8187 1333  A 3 3 0 0 1 8190 1330 L 8531 1330  A 3 3 0 0 1 8534 1333 L 8534 1772  A 3 3 0 0 1 8531 1775 L 8190 1775  A 3 3 0 0 1 8187 1772 L 8187 1333  Z " fill-rule="nonzero" fill="#ff3399" stroke="none" fill-opacity="0.0980392156862745" />
    <path d="M 8186.5 1333  A 3.5 3.5 0 0 1 8190 1329.5 L 8531 1329.5  A 3.5 3.5 0 0 1 8534.5 1333 L 8534.5 1772  A 3.5 3.5 0 0 1 8531 1775.5 L 8190 1775.5  A 3.5 3.5 0 0 1 8186.5 1772 L 8186.5 1333  Z " stroke-width="1" stroke-dasharray="9,4" stroke="#ff3399" fill="none" stroke-dashoffset="0.5" />
  </g>
</svg>