<?xml version="1.0" encoding="utf-8"?>
<svg version="1.1" xmlns:xlink="http://www.w3.org/1999/xlink" width="10px" height="25px" preserveAspectRatio="xMidYMin meet" viewBox="8349 1082  8 25" xmlns="http://www.w3.org/2000/svg">
  <path d="M 8054 1385.5  L 8115 1385.5  A 5 5 0 0 0 8120.5 1380.5 L 8120.5 1186  A 5 5 0 0 1 8125.5 1181.5 L 8274 1181.5  A 5 5 0 0 0 8279.5 1176.5 L 8279.5 1092  A 5 5 0 0 1 8284.5 1087.5 L 8348 1087.5  A 5 5 0 0 1 8353.5 1092.5 L 8353.5 1107  " stroke-width="1" stroke="#ff3399" fill="none" />
  <path d="M 8056 1382.5  A 3 3 0 0 0 8053 1385.5 A 3 3 0 0 0 8056 1388.5 A 3 3 0 0 0 8059 1385.5 A 3 3 0 0 0 8056 1382.5 Z " fill-rule="nonzero" fill="#ff3399" stroke="none" />
</svg>