<?xml version="1.0" encoding="utf-8"?>
<svg version="1.1" xmlns:xlink="http://www.w3.org/1999/xlink" width="373px" height="403px" xmlns="http://www.w3.org/2000/svg">
  <g transform="matrix(1 0 0 1 -7678 -1276 )">
    <path d="M 7679 1280  A 3 3 0 0 1 7682 1277 L 8047 1277  A 3 3 0 0 1 8050 1280 L 8050 1675  A 3 3 0 0 1 8047 1678 L 7682 1678  A 3 3 0 0 1 7679 1675 L 7679 1280  Z " fill-rule="nonzero" fill="#ff3399" stroke="none" fill-opacity="0.0980392156862745" />
    <path d="M 7678.5 1280  A 3.5 3.5 0 0 1 7682 1276.5 L 8047 1276.5  A 3.5 3.5 0 0 1 8050.5 1280 L 8050.5 1675  A 3.5 3.5 0 0 1 8047 1678.5 L 7682 1678.5  A 3.5 3.5 0 0 1 7678.5 1675 L 7678.5 1280  Z " stroke-width="1" stroke-dasharray="9,4" stroke="#ff3399" fill="none" stroke-dashoffset="0.5" />
  </g>
</svg>