<?xml version="1.0" encoding="utf-8"?>
<svg version="1.1" xmlns:xlink="http://www.w3.org/1999/xlink" width="370px" height="624px" xmlns="http://www.w3.org/2000/svg">
  <g transform="matrix(1 0 0 1 -8886 -1280 )">
    <path d="M 8887 1284  A 3 3 0 0 1 8890 1281 L 9252 1281  A 3 3 0 0 1 9255 1284 L 9255 1900  A 3 3 0 0 1 9252 1903 L 8890 1903  A 3 3 0 0 1 8887 1900 L 8887 1284  Z " fill-rule="nonzero" fill="#ff3399" stroke="none" fill-opacity="0.0980392156862745" />
    <path d="M 8886.5 1284  A 3.5 3.5 0 0 1 8890 1280.5 L 9252 1280.5  A 3.5 3.5 0 0 1 9255.5 1284 L 9255.5 1900  A 3.5 3.5 0 0 1 9252 1903.5 L 8890 1903.5  A 3.5 3.5 0 0 1 8886.5 1900 L 8886.5 1284  Z " stroke-width="1" stroke-dasharray="9,4" stroke="#ff3399" fill="none" stroke-dashoffset="0.5" />
  </g>
</svg>