<?xml version="1.0" encoding="utf-8"?>
<svg version="1.1" xmlns:xlink="http://www.w3.org/1999/xlink" width="57px" height="57px" xmlns="http://www.w3.org/2000/svg">
  <g transform="matrix(1 0 0 1 -1925 -564 )">
    <path d="M 1953.5 564  C 1969.46 564  1982 576.54  1982 592.5  C 1982 608.46  1969.46 621  1953.5 621  C 1937.54 621  1925 608.46  1925 592.5  C 1925 576.54  1937.54 564  1953.5 564  Z " fill-rule="nonzero" fill="#ffffff" stroke="none" />
    <path d="M 1953.5 564.5  C 1969.18 564.5  1981.5 576.82  1981.5 592.5  C 1981.5 608.18  1969.18 620.5  1953.5 620.5  C 1937.82 620.5  1925.5 608.18  1925.5 592.5  C 1925.5 576.82  1937.82 564.5  1953.5 564.5  Z " stroke-width="1" stroke="#dbd9d9" fill="none" />
  </g>
</svg>