<?xml version="1.0" encoding="utf-8"?>
<svg version="1.1" xmlns:xlink="http://www.w3.org/1999/xlink" width="14px" height="14px" xmlns="http://www.w3.org/2000/svg">
  <g transform="matrix(1 0 0 1 -260 -347 )">
    <path d="M 267 347  C 270.92 347  274 350.08  274 354  C 274 357.92  270.92 361  267 361  C 263.08 361  260 357.92  260 354  C 260 350.08  263.08 347  267 347  Z " fill-rule="nonzero" fill="#ffffff" stroke="none" fill-opacity="0" />
    <path d="M 267 347.5  C 270.64 347.5  273.5 350.36  273.5 354  C 273.5 357.64  270.64 360.5  267 360.5  C 263.36 360.5  260.5 357.64  260.5 354  C 260.5 350.36  263.36 347.5  267 347.5  Z " stroke-width="1" stroke="#1890ff" fill="none" />
  </g>
</svg>