<?xml version="1.0" encoding="utf-8"?>
<svg version="1.1" xmlns:xlink="http://www.w3.org/1999/xlink" width="626px" height="93px" xmlns="http://www.w3.org/2000/svg">
  <g transform="matrix(1 0 0 1 -107 -185 )">
    <path d="M 107 185  L 733 185  L 733 278  L 107 278  L 107 185  " fill-rule="nonzero" fill="#cccccc" stroke="none" />
    <path d="M 114 192  L 726 192  L 726 271  L 114 271  L 114 192  " fill-rule="nonzero" fill="#ffffff" stroke="none" />
    <path d="M 439.495 212.9  C 435.589 212.9  432.52 209.831  432.52 205.925  C 432.52 202.019  435.589 198.95  439.495 198.95  C 443.401 198.95  446.47 202.019  446.47 205.925  C 446.47 209.831  443.401 212.9  439.495 212.9  " fill-rule="nonzero" fill="#cccccc" stroke="none" />
    <path d="M 117 269  L 117 228.3  L 268.75 209.8  L 481.2 262.403833865815  L 602.6 220.9  L 724 262.403833865815  L 724 269  L 117 269  " fill-rule="nonzero" fill="#169bd5" stroke="none" />
  </g>
</svg>