<?xml version="1.0" encoding="utf-8"?>
<svg version="1.1" xmlns:xlink="http://www.w3.org/1999/xlink" width="652px" height="494px" xmlns="http://www.w3.org/2000/svg">
  <g transform="matrix(1 0 0 1 -100 -113 )">
    <path d="M 101 117  A 3 3 0 0 1 104 114 L 748 114  A 3 3 0 0 1 751 117 L 751 603  A 3 3 0 0 1 748 606 L 104 606  A 3 3 0 0 1 101 603 L 101 117  Z " fill-rule="nonzero" fill="#ff3399" stroke="none" fill-opacity="0.0980392156862745" />
    <path d="M 100.5 117  A 3.5 3.5 0 0 1 104 113.5 L 748 113.5  A 3.5 3.5 0 0 1 751.5 117 L 751.5 603  A 3.5 3.5 0 0 1 748 606.5 L 104 606.5  A 3.5 3.5 0 0 1 100.5 603 L 100.5 117  Z " stroke-width="1" stroke-dasharray="9,4" stroke="#ff3399" fill="none" stroke-dashoffset="0.5" />
  </g>
</svg>