<?xml version="1.0" encoding="utf-8"?>
<svg version="1.1" xmlns:xlink="http://www.w3.org/1999/xlink" width="135px" height="84px" xmlns="http://www.w3.org/2000/svg">
  <defs>
    <mask fill="white" id="clip728">
      <path d="M 271 411  C 268.78 411  267 409.22  267 407  L 267 331  C 267 328.78  268.78 327  271 327  L 398 327  C 400.22 327  402 328.78  402 331  L 402 407  C 402 409.22  400.22 411  398 411  " fill-rule="evenodd" />
    </mask>
  </defs>
  <g transform="matrix(1 0 0 1 -267 -327 )">
    <path d="M 267 327  L 402 327  L 402 411  L 267 411  L 267 327  " fill-rule="nonzero" fill="#cccccc" stroke="none" mask="url(#clip728)" />
    <path d="M 273 333  L 396 333  L 396 405  L 273 405  L 273 333  " fill-rule="nonzero" fill="#ffffff" stroke="none" mask="url(#clip728)" />
    <path d="M 343.5 352.2  C 339.972 352.2  337.2 349.428  337.2 345.9  C 337.2 342.372  339.972 339.6  343.5 339.6  C 347.028 339.6  349.8 342.372  349.8 345.9  C 349.8 349.428  347.028 352.2  343.5 352.2  " fill-rule="nonzero" fill="#cccccc" stroke="none" mask="url(#clip728)" />
    <path d="M 275 403  L 275 365.6  L 304.75 348.6  L 346.4 377.613333333333  L 370.2 358.8  L 394 377.613333333333  L 394 403  L 275 403  " fill-rule="nonzero" fill="#169bd5" stroke="none" mask="url(#clip728)" />
  </g>
</svg>