<?xml version="1.0" encoding="utf-8"?>
<svg version="1.1" xmlns:xlink="http://www.w3.org/1999/xlink" width="135px" height="84px" xmlns="http://www.w3.org/2000/svg">
  <defs>
    <mask fill="white" id="clip173">
      <path d="M 159 371  C 156.78 371  155 369.22  155 367  L 155 291  C 155 288.78  156.78 287  159 287  L 286 287  C 288.22 287  290 288.78  290 291  L 290 367  C 290 369.22  288.22 371  286 371  " fill-rule="evenodd" />
    </mask>
  </defs>
  <g transform="matrix(1 0 0 1 -155 -287 )">
    <path d="M 155 287  L 290 287  L 290 371  L 155 371  L 155 287  " fill-rule="nonzero" fill="#cccccc" stroke="none" mask="url(#clip173)" />
    <path d="M 161 293  L 284 293  L 284 365  L 161 365  L 161 293  " fill-rule="nonzero" fill="#ffffff" stroke="none" mask="url(#clip173)" />
    <path d="M 231.5 312.2  C 227.972 312.2  225.2 309.428  225.2 305.9  C 225.2 302.372  227.972 299.6  231.5 299.6  C 235.028 299.6  237.8 302.372  237.8 305.9  C 237.8 309.428  235.028 312.2  231.5 312.2  " fill-rule="nonzero" fill="#cccccc" stroke="none" mask="url(#clip173)" />
    <path d="M 163 363  L 163 325.6  L 192.75 308.6  L 234.4 337.613333333333  L 258.2 318.8  L 282 337.613333333333  L 282 363  L 163 363  " fill-rule="nonzero" fill="#169bd5" stroke="none" mask="url(#clip173)" />
  </g>
</svg>