<?xml version="1.0" encoding="utf-8"?>
<svg version="1.1" xmlns:xlink="http://www.w3.org/1999/xlink" width="27px" height="10px" preserveAspectRatio="xMinYMid meet" viewBox="287 856  27 8" xmlns="http://www.w3.org/2000/svg">
  <path d="M 326 518.5  L 314 518.5  A 5 5 0 0 0 309.5 523.5 L 309.5 855  A 5 5 0 0 1 304.5 860.5 L 297 860.5  A 5 5 0 0 0 292.5 865.5 L 292.5 928  " stroke-width="1" stroke="#ff3399" fill="none" />
  <path d="M 324 515.5  A 3 3 0 0 0 321 518.5 A 3 3 0 0 0 324 521.5 A 3 3 0 0 0 327 518.5 A 3 3 0 0 0 324 515.5 Z " fill-rule="nonzero" fill="#ff3399" stroke="none" />
</svg>