<?xml version="1.0" encoding="utf-8"?>
<svg version="1.1" xmlns:xlink="http://www.w3.org/1999/xlink" width="281px" height="100px" xmlns="http://www.w3.org/2000/svg">
  <g transform="matrix(1 0 0 1 -1917 -394 )">
    <path d="M 1917 394  L 2198 394  L 2198 494  L 1917 494  L 1917 394  " fill-rule="nonzero" fill="#cccccc" stroke="none" />
    <path d="M 1924 401  L 2191 401  L 2191 487  L 1924 487  L 1924 401  " fill-rule="nonzero" fill="#ffffff" stroke="none" />
    <path d="M 2070.62 424  C 2066.42 424  2063.12 420.7  2063.12 416.5  C 2063.12 412.3  2066.42 409  2070.62 409  C 2074.82 409  2078.12 412.3  2078.12 416.5  C 2078.12 420.7  2074.82 424  2070.62 424  " fill-rule="nonzero" fill="#cccccc" stroke="none" />
    <path d="M 1927 485  L 1927 440.45  L 1992.5 420.2  L 2084.2 467.70462633452  L 2136.6 432.35  L 2189 467.70462633452  L 2189 485  L 1927 485  " fill-rule="nonzero" fill="#169bd5" stroke="none" />
  </g>
</svg>