<?xml version="1.0" encoding="utf-8"?>
<svg version="1.1" xmlns:xlink="http://www.w3.org/1999/xlink" width="281px" height="100px" xmlns="http://www.w3.org/2000/svg">
  <g transform="matrix(1 0 0 1 -602 -1586 )">
    <path d="M 602 1586  L 883 1586  L 883 1686  L 602 1686  L 602 1586  " fill-rule="nonzero" fill="#cccccc" stroke="none" />
    <path d="M 609 1593  L 876 1593  L 876 1679  L 609 1679  L 609 1593  " fill-rule="nonzero" fill="#ffffff" stroke="none" />
    <path d="M 755.62 1616  C 751.42 1616  748.12 1612.7  748.12 1608.5  C 748.12 1604.3  751.42 1601  755.62 1601  C 759.82 1601  763.12 1604.3  763.12 1608.5  C 763.12 1612.7  759.82 1616  755.62 1616  " fill-rule="nonzero" fill="#cccccc" stroke="none" />
    <path d="M 612 1677  L 612 1632.45  L 677.5 1612.2  L 769.2 1659.70462633452  L 821.6 1624.35  L 874 1659.70462633452  L 874 1677  L 612 1677  " fill-rule="nonzero" fill="#169bd5" stroke="none" />
  </g>
</svg>