<?xml version="1.0" encoding="utf-8"?>
<svg version="1.1" xmlns:xlink="http://www.w3.org/1999/xlink" width="133px" height="42px" xmlns="http://www.w3.org/2000/svg">
  <g transform="matrix(1 0 0 1 -336 -362 )">
    <path d="M 337 364  A 1 1 0 0 1 338 363 L 467 363  A 1 1 0 0 1 468 364 L 468 402  A 1 1 0 0 1 467 403 L 338 403  A 1 1 0 0 1 337 402 L 337 364  Z " fill-rule="nonzero" fill="#ff3399" stroke="none" fill-opacity="0" />
    <path d="M 336.5 364  A 1.5 1.5 0 0 1 338 362.5 L 467 362.5  A 1.5 1.5 0 0 1 468.5 364 L 468.5 402  A 1.5 1.5 0 0 1 467 403.5 L 338 403.5  A 1.5 1.5 0 0 1 336.5 402 L 336.5 364  Z " stroke-width="1" stroke-dasharray="9,4" stroke="#ff3399" fill="none" stroke-dashoffset="0.5" />
  </g>
</svg>