<?xml version="1.0" encoding="utf-8"?>
<svg version="1.1" xmlns:xlink="http://www.w3.org/1999/xlink" width="833px" height="29px" xmlns="http://www.w3.org/2000/svg">
  <g transform="matrix(1 0 0 1 -336 -416 )">
    <path d="M 337 418  A 1 1 0 0 1 338 417 L 1167 417  A 1 1 0 0 1 1168 418 L 1168 443  A 1 1 0 0 1 1167 444 L 338 444  A 1 1 0 0 1 337 443 L 337 418  Z " fill-rule="nonzero" fill="#ff3399" stroke="none" fill-opacity="0" />
    <path d="M 336.5 418  A 1.5 1.5 0 0 1 338 416.5 L 1167 416.5  A 1.5 1.5 0 0 1 1168.5 418 L 1168.5 443  A 1.5 1.5 0 0 1 1167 444.5 L 338 444.5  A 1.5 1.5 0 0 1 336.5 443 L 336.5 418  Z " stroke-width="1" stroke-dasharray="9,4" stroke="#ff3399" fill="none" stroke-dashoffset="0.5" />
  </g>
</svg>