<?xml version="1.0" encoding="utf-8"?>
<svg version="1.1" xmlns:xlink="http://www.w3.org/1999/xlink" width="213px" height="42px" xmlns="http://www.w3.org/2000/svg">
  <g transform="matrix(1 0 0 1 -336 -256 )">
    <path d="M 337 258  A 1 1 0 0 1 338 257 L 547 257  A 1 1 0 0 1 548 258 L 548 296  A 1 1 0 0 1 547 297 L 338 297  A 1 1 0 0 1 337 296 L 337 258  Z " fill-rule="nonzero" fill="#ff3399" stroke="none" fill-opacity="0" />
    <path d="M 336.5 258  A 1.5 1.5 0 0 1 338 256.5 L 547 256.5  A 1.5 1.5 0 0 1 548.5 258 L 548.5 296  A 1.5 1.5 0 0 1 547 297.5 L 338 297.5  A 1.5 1.5 0 0 1 336.5 296 L 336.5 258  Z " stroke-width="1" stroke-dasharray="9,4" stroke="#ff3399" fill="none" stroke-dashoffset="0.5" />
  </g>
</svg>