<?xml version="1.0" encoding="utf-8"?>
<svg version="1.1" xmlns:xlink="http://www.w3.org/1999/xlink" width="213px" height="68px" xmlns="http://www.w3.org/2000/svg">
  <g transform="matrix(1 0 0 1 -435 -172 )">
    <path d="M 436 174  A 1 1 0 0 1 437 173 L 646 173  A 1 1 0 0 1 647 174 L 647 238  A 1 1 0 0 1 646 239 L 437 239  A 1 1 0 0 1 436 238 L 436 174  Z " fill-rule="nonzero" fill="#ff3399" stroke="none" fill-opacity="0" />
    <path d="M 435.5 174  A 1.5 1.5 0 0 1 437 172.5 L 646 172.5  A 1.5 1.5 0 0 1 647.5 174 L 647.5 238  A 1.5 1.5 0 0 1 646 239.5 L 437 239.5  A 1.5 1.5 0 0 1 435.5 238 L 435.5 174  Z " stroke-width="1" stroke-dasharray="9,4" stroke="#ff3399" fill="none" stroke-dashoffset="0.5" />
  </g>
</svg>