<?xml version="1.0" encoding="utf-8"?>
<svg version="1.1" xmlns:xlink="http://www.w3.org/1999/xlink" width="99px" height="25px" xmlns="http://www.w3.org/2000/svg">
  <g transform="matrix(1 0 0 1 -1101 -166 )">
    <path d="M 1102 168  A 1 1 0 0 1 1103 167 L 1198 167  A 1 1 0 0 1 1199 168 L 1199 189  A 1 1 0 0 1 1198 190 L 1103 190  A 1 1 0 0 1 1102 189 L 1102 168  Z " fill-rule="nonzero" fill="#ff3399" stroke="none" fill-opacity="0" />
    <path d="M 1101.5 168  A 1.5 1.5 0 0 1 1103 166.5 L 1198 166.5  A 1.5 1.5 0 0 1 1199.5 168 L 1199.5 189  A 1.5 1.5 0 0 1 1198 190.5 L 1103 190.5  A 1.5 1.5 0 0 1 1101.5 189 L 1101.5 168  Z " stroke-width="1" stroke-dasharray="9,4" stroke="#ff3399" fill="none" stroke-dashoffset="0.5" />
  </g>
</svg>