<?xml version="1.0" encoding="utf-8"?>
<svg version="1.1" xmlns:xlink="http://www.w3.org/1999/xlink" width="288px" height="10px" preserveAspectRatio="xMinYMid meet" viewBox="275 606  288 8" xmlns="http://www.w3.org/2000/svg">
  <path d="M 296 519.5  L 285 519.5  A 5 5 0 0 0 280.5 524.5 L 280.5 605  A 5 5 0 0 0 285.5 610.5 L 553 610.5  A 5 5 0 0 1 558.5 615.5 L 558.5 620  " stroke-width="1" stroke="#ff3399" fill="none" />
  <path d="M 294 516.5  A 3 3 0 0 0 291 519.5 A 3 3 0 0 0 294 522.5 A 3 3 0 0 0 297 519.5 A 3 3 0 0 0 294 516.5 Z " fill-rule="nonzero" fill="#ff3399" stroke="none" />
</svg>