<?xml version="1.0" encoding="utf-8"?>
<svg version="1.1" xmlns:xlink="http://www.w3.org/1999/xlink" width="1645px" height="132px" xmlns="http://www.w3.org/2000/svg">
  <g transform="matrix(1 0 0 1 -327 -125 )">
    <path d="M 328 129  A 3 3 0 0 1 331 126 L 1968 126  A 3 3 0 0 1 1971 129 L 1971 253  A 3 3 0 0 1 1968 256 L 331 256  A 3 3 0 0 1 328 253 L 328 129  Z " fill-rule="nonzero" fill="#ff3399" stroke="none" fill-opacity="0.0980392156862745" />
    <path d="M 327.5 129  A 3.5 3.5 0 0 1 331 125.5 L 1968 125.5  A 3.5 3.5 0 0 1 1971.5 129 L 1971.5 253  A 3.5 3.5 0 0 1 1968 256.5 L 331 256.5  A 3.5 3.5 0 0 1 327.5 253 L 327.5 129  Z " stroke-width="1" stroke-dasharray="9,4" stroke="#ff3399" fill="none" stroke-dashoffset="0.5" />
  </g>
</svg>