<?xml version="1.0" encoding="utf-8"?>
<svg version="1.1" xmlns:xlink="http://www.w3.org/1999/xlink" width="1645px" height="35px" xmlns="http://www.w3.org/2000/svg">
  <g transform="matrix(1 0 0 1 -327 -329 )">
    <path d="M 328 333  A 3 3 0 0 1 331 330 L 1968 330  A 3 3 0 0 1 1971 333 L 1971 360  A 3 3 0 0 1 1968 363 L 331 363  A 3 3 0 0 1 328 360 L 328 333  Z " fill-rule="nonzero" fill="#ff3399" stroke="none" fill-opacity="0.0980392156862745" />
    <path d="M 327.5 333  A 3.5 3.5 0 0 1 331 329.5 L 1968 329.5  A 3.5 3.5 0 0 1 1971.5 333 L 1971.5 360  A 3.5 3.5 0 0 1 1968 363.5 L 331 363.5  A 3.5 3.5 0 0 1 327.5 360 L 327.5 333  Z " stroke-width="1" stroke-dasharray="9,4" stroke="#ff3399" fill="none" stroke-dashoffset="0.5" />
  </g>
</svg>