<?xml version="1.0" encoding="utf-8"?>
<svg version="1.1" xmlns:xlink="http://www.w3.org/1999/xlink" width="432px" height="45px" xmlns="http://www.w3.org/2000/svg">
  <g transform="matrix(1 0 0 1 -327 -80 )">
    <path d="M 328 84  A 3 3 0 0 1 331 81 L 755 81  A 3 3 0 0 1 758 84 L 758 121  A 3 3 0 0 1 755 124 L 331 124  A 3 3 0 0 1 328 121 L 328 84  Z " fill-rule="nonzero" fill="#ff3399" stroke="none" fill-opacity="0.0980392156862745" />
    <path d="M 327.5 84  A 3.5 3.5 0 0 1 331 80.5 L 755 80.5  A 3.5 3.5 0 0 1 758.5 84 L 758.5 121  A 3.5 3.5 0 0 1 755 124.5 L 331 124.5  A 3.5 3.5 0 0 1 327.5 121 L 327.5 84  Z " stroke-width="1" stroke-dasharray="9,4" stroke="#ff3399" fill="none" stroke-dashoffset="0.5" />
  </g>
</svg>