<?xml version="1.0" encoding="utf-8"?>
<svg version="1.1" xmlns:xlink="http://www.w3.org/1999/xlink" width="86px" height="10px" preserveAspectRatio="xMinYMid meet" viewBox="1979 309  86 8" xmlns="http://www.w3.org/2000/svg">
  <path d="M 1980 313.5  L 2055 313.5  A 5 5 0 0 1 2060.5 318.5 L 2060.5 615  A 5 5 0 0 0 2065.5 620.5 L 2118 620.5  A 5 5 0 0 1 2123.5 625.5 L 2123.5 633  " stroke-width="1" stroke="#ff3399" fill="none" />
  <path d="M 1982 310.5  A 3 3 0 0 0 1979 313.5 A 3 3 0 0 0 1982 316.5 A 3 3 0 0 0 1985 313.5 A 3 3 0 0 0 1982 310.5 Z " fill-rule="nonzero" fill="#ff3399" stroke="none" />
</svg>