<?xml version="1.0" encoding="utf-8"?>
<svg version="1.1" xmlns:xlink="http://www.w3.org/1999/xlink" width="1645px" height="35px" xmlns="http://www.w3.org/2000/svg">
  <g transform="matrix(1 0 0 1 -327 -384 )">
    <path d="M 328 388  A 3 3 0 0 1 331 385 L 1968 385  A 3 3 0 0 1 1971 388 L 1971 415  A 3 3 0 0 1 1968 418 L 331 418  A 3 3 0 0 1 328 415 L 328 388  Z " fill-rule="nonzero" fill="#ff3399" stroke="none" fill-opacity="0.0980392156862745" />
    <path d="M 327.5 388  A 3.5 3.5 0 0 1 331 384.5 L 1968 384.5  A 3.5 3.5 0 0 1 1971.5 388 L 1971.5 415  A 3.5 3.5 0 0 1 1968 418.5 L 331 418.5  A 3.5 3.5 0 0 1 327.5 415 L 327.5 388  Z " stroke-width="1" stroke-dasharray="9,4" stroke="#ff3399" fill="none" stroke-dashoffset="0.5" />
  </g>
</svg>