<?xml version="1.0" encoding="utf-8"?>
<svg version="1.1" xmlns:xlink="http://www.w3.org/1999/xlink" width="14px" height="10px" preserveAspectRatio="xMinYMid meet" viewBox="1980 400  14 8" xmlns="http://www.w3.org/2000/svg">
  <path d="M 1981 404.5  L 1987.5 404.5  A 1.5 1.5 0 0 0 1989.5 403 A 1.5 1.5 0 0 1 1991 401.5 L 2055 401.5  A 5 5 0 0 1 2060.5 406.5 L 2060.5 615  A 5 5 0 0 0 2065.5 620.5 L 2118 620.5  A 5 5 0 0 1 2123.5 625.5 L 2123.5 633  " stroke-width="1" stroke="#ff3399" fill="none" />
  <path d="M 1983 401.5  A 3 3 0 0 0 1980 404.5 A 3 3 0 0 0 1983 407.5 A 3 3 0 0 0 1986 404.5 A 3 3 0 0 0 1983 401.5 Z " fill-rule="nonzero" fill="#ff3399" stroke="none" />
</svg>