<?xml version="1.0" encoding="utf-8"?>
<svg version="1.1" xmlns:xlink="http://www.w3.org/1999/xlink" width="196px" height="122px" xmlns="http://www.w3.org/2000/svg">
  <g transform="matrix(1 0 0 1 -415 -1743 )">
    <path d="M 415 1743  L 611 1743  L 611 1865  L 415 1865  L 415 1743  " fill-rule="nonzero" fill="#cccccc" stroke="none" />
    <path d="M 424 1752  L 602 1752  L 602 1856  L 424 1856  L 424 1752  " fill-rule="nonzero" fill="#ffffff" stroke="none" />
    <path d="M 526.07 1779.6  C 520.946 1779.6  516.92 1775.574  516.92 1770.45  C 516.92 1765.326  520.946 1761.3  526.07 1761.3  C 531.194 1761.3  535.22 1765.326  535.22 1770.45  C 535.22 1775.574  531.194 1779.6  526.07 1779.6  " fill-rule="nonzero" fill="#cccccc" stroke="none" />
    <path d="M 427 1853  L 427 1799.1  L 470 1774.6  L 530.2 1816.4  L 564.6 1789.3  L 599 1816.4  L 599 1853  L 427 1853  " fill-rule="nonzero" fill="#169bd5" stroke="none" />
  </g>
</svg>