<?xml version="1.0" encoding="utf-8"?>
<svg version="1.1" xmlns:xlink="http://www.w3.org/1999/xlink" width="1435px" height="100px" xmlns="http://www.w3.org/2000/svg">
  <g transform="matrix(1 0 0 1 -405 -2082 )">
    <path d="M 406 2086  A 3 3 0 0 1 409 2083 L 1836 2083  A 3 3 0 0 1 1839 2086 L 1839 2178  A 3 3 0 0 1 1836 2181 L 409 2181  A 3 3 0 0 1 406 2178 L 406 2086  Z " fill-rule="nonzero" fill="#ff3399" stroke="none" fill-opacity="0.0980392156862745" />
    <path d="M 405.5 2086  A 3.5 3.5 0 0 1 409 2082.5 L 1836 2082.5  A 3.5 3.5 0 0 1 1839.5 2086 L 1839.5 2178  A 3.5 3.5 0 0 1 1836 2181.5 L 409 2181.5  A 3.5 3.5 0 0 1 405.5 2178 L 405.5 2086  Z " stroke-width="1" stroke-dasharray="9,4" stroke="#ff3399" fill="none" stroke-dashoffset="0.5" />
  </g>
</svg>