<?xml version="1.0" encoding="utf-8"?>
<svg version="1.1" xmlns:xlink="http://www.w3.org/1999/xlink" width="53px" height="10px" preserveAspectRatio="xMinYMid meet" viewBox="1505 2646  53 8" xmlns="http://www.w3.org/2000/svg">
  <path d="M 1473 2652.5  L 1509 2652.5  A 1 1 0 0 0 1510.5 2651.5 A 1 1 0 0 1 1511.5 2650.5 L 1548 2650.5  A 5 5 0 0 1 1553.5 2655.5 L 1553.5 2661  " stroke-width="1" stroke="#ff3399" fill="none" />
  <path d="M 1475 2649.5  A 3 3 0 0 0 1472 2652.5 A 3 3 0 0 0 1475 2655.5 A 3 3 0 0 0 1478 2652.5 A 3 3 0 0 0 1475 2649.5 Z " fill-rule="nonzero" fill="#ff3399" stroke="none" />
</svg>