<?xml version="1.0" encoding="utf-8"?>
<svg version="1.1" xmlns:xlink="http://www.w3.org/1999/xlink" width="287px" height="10px" preserveAspectRatio="xMinYMid meet" viewBox="1848 2131  287 8" xmlns="http://www.w3.org/2000/svg">
  <path d="M 1849 2135.5  L 2125 2135.5  A 5 5 0 0 0 2130.5 2130.5 L 2130.5 2115  A 5 5 0 0 1 2135.5 2110.5 L 2183 2110.5  A 5 5 0 0 1 2188.5 2115.5 L 2188.5 2125  " stroke-width="1" stroke="#ff3399" fill="none" />
  <path d="M 1851 2132.5  A 3 3 0 0 0 1848 2135.5 A 3 3 0 0 0 1851 2138.5 A 3 3 0 0 0 1854 2135.5 A 3 3 0 0 0 1851 2132.5 Z " fill-rule="nonzero" fill="#ff3399" stroke="none" />
</svg>