<?xml version="1.0" encoding="utf-8"?>
<svg version="1.1" xmlns:xlink="http://www.w3.org/1999/xlink" width="1645px" height="132px" xmlns="http://www.w3.org/2000/svg">
  <g transform="matrix(1 0 0 1 -327 -48 )">
    <path d="M 328 52  A 3 3 0 0 1 331 49 L 1968 49  A 3 3 0 0 1 1971 52 L 1971 176  A 3 3 0 0 1 1968 179 L 331 179  A 3 3 0 0 1 328 176 L 328 52  Z " fill-rule="nonzero" fill="#ff3399" stroke="none" fill-opacity="0.0980392156862745" />
    <path d="M 327.5 52  A 3.5 3.5 0 0 1 331 48.5 L 1968 48.5  A 3.5 3.5 0 0 1 1971.5 52 L 1971.5 176  A 3.5 3.5 0 0 1 1968 179.5 L 331 179.5  A 3.5 3.5 0 0 1 327.5 176 L 327.5 52  Z " stroke-width="1" stroke-dasharray="9,4" stroke="#ff3399" fill="none" stroke-dashoffset="0.5" />
  </g>
</svg>