<?xml version="1.0" encoding="utf-8"?>
<svg version="1.1" xmlns:xlink="http://www.w3.org/1999/xlink" width="1081px" height="132px" xmlns="http://www.w3.org/2000/svg">
  <g transform="matrix(1 0 0 1 -327 -1733 )">
    <path d="M 328 1737  A 3 3 0 0 1 331 1734 L 1404 1734  A 3 3 0 0 1 1407 1737 L 1407 1861  A 3 3 0 0 1 1404 1864 L 331 1864  A 3 3 0 0 1 328 1861 L 328 1737  Z " fill-rule="nonzero" fill="#ff3399" stroke="none" fill-opacity="0.0980392156862745" />
    <path d="M 327.5 1737  A 3.5 3.5 0 0 1 331 1733.5 L 1404 1733.5  A 3.5 3.5 0 0 1 1407.5 1737 L 1407.5 1861  A 3.5 3.5 0 0 1 1404 1864.5 L 331 1864.5  A 3.5 3.5 0 0 1 327.5 1861 L 327.5 1737  Z " stroke-width="1" stroke-dasharray="9,4" stroke="#ff3399" fill="none" stroke-dashoffset="0.5" />
  </g>
</svg>