<?xml version="1.0" encoding="utf-8"?>
<svg version="1.1" xmlns:xlink="http://www.w3.org/1999/xlink" width="1099px" height="75px" xmlns="http://www.w3.org/2000/svg">
  <g transform="matrix(1 0 0 1 -336 -1401 )">
    <path d="M 337 1405  A 3 3 0 0 1 340 1402 L 1431 1402  A 3 3 0 0 1 1434 1405 L 1434 1472  A 3 3 0 0 1 1431 1475 L 340 1475  A 3 3 0 0 1 337 1472 L 337 1405  Z " fill-rule="nonzero" fill="#ff3399" stroke="none" fill-opacity="0.0980392156862745" />
    <path d="M 336.5 1405  A 3.5 3.5 0 0 1 340 1401.5 L 1431 1401.5  A 3.5 3.5 0 0 1 1434.5 1405 L 1434.5 1472  A 3.5 3.5 0 0 1 1431 1475.5 L 340 1475.5  A 3.5 3.5 0 0 1 336.5 1472 L 336.5 1405  Z " stroke-width="1" stroke-dasharray="9,4" stroke="#ff3399" fill="none" stroke-dashoffset="0.5" />
  </g>
</svg>