<?xml version="1.0" encoding="utf-8"?>
<svg version="1.1" xmlns:xlink="http://www.w3.org/1999/xlink" width="58px" height="58px" xmlns="http://www.w3.org/2000/svg">
  <g transform="matrix(1 0 0 1 -210 -580 )">
    <path d="M 239 580  C 255.24 580  268 592.76  268 609  C 268 625.24  255.24 638  239 638  C 222.76 638  210 625.24  210 609  C 210 592.76  222.76 580  239 580  Z " fill-rule="nonzero" fill="#ffffff" stroke="none" />
    <path d="M 239 580.5  C 254.96 580.5  267.5 593.04  267.5 609  C 267.5 624.96  254.96 637.5  239 637.5  C 223.04 637.5  210.5 624.96  210.5 609  C 210.5 593.04  223.04 580.5  239 580.5  Z " stroke-width="1" stroke="#797979" fill="none" />
  </g>
</svg>