<?xml version="1.0" encoding="utf-8"?>
<svg version="1.1" xmlns:xlink="http://www.w3.org/1999/xlink" width="125px" height="23px" xmlns="http://www.w3.org/2000/svg">
  <g transform="matrix(1 0 0 1 -647 -232 )">
    <path d="M 648 234  A 1 1 0 0 1 649 233 L 770 233  A 1 1 0 0 1 771 234 L 771 253  A 1 1 0 0 1 770 254 L 649 254  A 1 1 0 0 1 648 253 L 648 234  Z " fill-rule="nonzero" fill="#ffffff" stroke="none" fill-opacity="0.996078431372549" />
    <path d="M 647.5 234  A 1.5 1.5 0 0 1 649 232.5 L 770 232.5  A 1.5 1.5 0 0 1 771.5 234 L 771.5 253  A 1.5 1.5 0 0 1 770 254.5 L 649 254.5  A 1.5 1.5 0 0 1 647.5 253 L 647.5 234  Z " stroke-width="1" stroke="#797979" fill="none" stroke-opacity="0.392156862745098" />
  </g>
</svg>