<?xml version="1.0" encoding="utf-8"?>
<svg version="1.1" xmlns:xlink="http://www.w3.org/1999/xlink" width="150px" height="69px" xmlns="http://www.w3.org/2000/svg">
  <g transform="matrix(1 0 0 1 -282 -116 )">
    <path d="M 282 116  L 432 116  L 432 185  L 282 185  L 282 116  " fill-rule="nonzero" fill="#cccccc" stroke="none" />
    <path d="M 287 121  L 427 121  L 427 180  L 287 180  L 287 121  " fill-rule="nonzero" fill="#ffffff" stroke="none" />
    <path d="M 365.175 136.7  C 362.277 136.7  360 134.423  360 131.525  C 360 128.627  362.277 126.35  365.175 126.35  C 368.073 126.35  370.35 128.627  370.35 131.525  C 370.35 134.423  368.073 136.7  365.175 136.7  " fill-rule="nonzero" fill="#cccccc" stroke="none" />
    <path d="M 289 179  L 289 148.2  L 323.25 134.2  L 371.2 163.544  L 398.6 142.6  L 426 163.544  L 426 179  L 289 179  " fill-rule="nonzero" fill="#169bd5" stroke="none" />
  </g>
</svg>