<?xml version="1.0" encoding="utf-8"?>
<svg version="1.1" xmlns:xlink="http://www.w3.org/1999/xlink" width="59px" height="18px" xmlns="http://www.w3.org/2000/svg">
  <g transform="matrix(1 0 0 1 -450 -250 )">
    <path d="M 451 254  A 3 3 0 0 1 454 251 L 505 251  A 3 3 0 0 1 508 254 L 508 264  A 3 3 0 0 1 505 267 L 454 267  A 3 3 0 0 1 451 264 L 451 254  Z " fill-rule="nonzero" fill="#ff3399" stroke="none" fill-opacity="0.0980392156862745" />
    <path d="M 450.5 254  A 3.5 3.5 0 0 1 454 250.5 L 505 250.5  A 3.5 3.5 0 0 1 508.5 254 L 508.5 264  A 3.5 3.5 0 0 1 505 267.5 L 454 267.5  A 3.5 3.5 0 0 1 450.5 264 L 450.5 254  Z " stroke-width="1" stroke-dasharray="9,4" stroke="#ff3399" fill="none" stroke-dashoffset="0.5" />
  </g>
</svg>