<?xml version="1.0" encoding="utf-8"?>
<svg version="1.1" xmlns:xlink="http://www.w3.org/1999/xlink" width="59px" height="18px" xmlns="http://www.w3.org/2000/svg">
  <g transform="matrix(1 0 0 1 -554 -266 )">
    <path d="M 555 270  A 3 3 0 0 1 558 267 L 609 267  A 3 3 0 0 1 612 270 L 612 280  A 3 3 0 0 1 609 283 L 558 283  A 3 3 0 0 1 555 280 L 555 270  Z " fill-rule="nonzero" fill="#ff3399" stroke="none" fill-opacity="0.0980392156862745" />
    <path d="M 554.5 270  A 3.5 3.5 0 0 1 558 266.5 L 609 266.5  A 3.5 3.5 0 0 1 612.5 270 L 612.5 280  A 3.5 3.5 0 0 1 609 283.5 L 558 283.5  A 3.5 3.5 0 0 1 554.5 280 L 554.5 270  Z " stroke-width="1" stroke-dasharray="9,4" stroke="#ff3399" fill="none" stroke-dashoffset="0.5" />
  </g>
</svg>