<?xml version="1.0" encoding="utf-8"?>
<svg version="1.1" xmlns:xlink="http://www.w3.org/1999/xlink" width="565px" height="489px" xmlns="http://www.w3.org/2000/svg">
  <g transform="matrix(1 0 0 1 -282 -119 )">
    <path d="M 283 123  A 3 3 0 0 1 286 120 L 843 120  A 3 3 0 0 1 846 123 L 846 604  A 3 3 0 0 1 843 607 L 286 607  A 3 3 0 0 1 283 604 L 283 123  Z " fill-rule="nonzero" fill="#ff3399" stroke="none" fill-opacity="0.0980392156862745" />
    <path d="M 282.5 123  A 3.5 3.5 0 0 1 286 119.5 L 843 119.5  A 3.5 3.5 0 0 1 846.5 123 L 846.5 604  A 3.5 3.5 0 0 1 843 607.5 L 286 607.5  A 3.5 3.5 0 0 1 282.5 604 L 282.5 123  Z " stroke-width="1" stroke-dasharray="9,4" stroke="#ff3399" fill="none" stroke-dashoffset="0.5" />
  </g>
</svg>