<?xml version="1.0" encoding="utf-8"?>
<svg version="1.1" xmlns:xlink="http://www.w3.org/1999/xlink" width="111px" height="450px" xmlns="http://www.w3.org/2000/svg">
  <g transform="matrix(1 0 0 1 -102 -114 )">
    <path d="M 103 118  A 3 3 0 0 1 106 115 L 209 115  A 3 3 0 0 1 212 118 L 212 560  A 3 3 0 0 1 209 563 L 106 563  A 3 3 0 0 1 103 560 L 103 118  Z " fill-rule="nonzero" fill="#ff3399" stroke="none" fill-opacity="0.0980392156862745" />
    <path d="M 102.5 118  A 3.5 3.5 0 0 1 106 114.5 L 209 114.5  A 3.5 3.5 0 0 1 212.5 118 L 212.5 560  A 3.5 3.5 0 0 1 209 563.5 L 106 563.5  A 3.5 3.5 0 0 1 102.5 560 L 102.5 118  Z " stroke-width="1" stroke-dasharray="9,4" stroke="#ff3399" fill="none" stroke-dashoffset="0.5" />
  </g>
</svg>