<?xml version="1.0" encoding="utf-8"?>
<svg version="1.1" xmlns:xlink="http://www.w3.org/1999/xlink" width="17px" height="594px" xmlns="http://www.w3.org/2000/svg">
  <g transform="matrix(1 0 0 1 -514 -1015 )">
    <path d="M 515 1019  A 3 3 0 0 1 518 1016 L 527 1016  A 3 3 0 0 1 530 1019 L 530 1605  A 3 3 0 0 1 527 1608 L 518 1608  A 3 3 0 0 1 515 1605 L 515 1019  Z " fill-rule="nonzero" fill="#ff3399" stroke="none" fill-opacity="0.0980392156862745" />
    <path d="M 514.5 1019  A 3.5 3.5 0 0 1 518 1015.5 L 527 1015.5  A 3.5 3.5 0 0 1 530.5 1019 L 530.5 1605  A 3.5 3.5 0 0 1 527 1608.5 L 518 1608.5  A 3.5 3.5 0 0 1 514.5 1605 L 514.5 1019  Z " stroke-width="1" stroke-dasharray="9,4" stroke="#ff3399" fill="none" stroke-dashoffset="0.5" />
  </g>
</svg>