<?xml version="1.0" encoding="utf-8"?>
<svg version="1.1" xmlns:xlink="http://www.w3.org/1999/xlink" width="106px" height="89px" xmlns="http://www.w3.org/2000/svg">
  <g transform="matrix(1 0 0 1 -386 -585 )">
    <path d="M 386 585  L 492 585  L 492 674  L 386 674  L 386 585  " fill-rule="nonzero" fill="#cccccc" stroke="none" />
    <path d="M 392 591  L 486 591  L 486 668  L 392 668  L 392 591  " fill-rule="nonzero" fill="#ffffff" stroke="none" />
    <path d="M 447.795 611.7  C 444.057 611.7  441.12 608.763  441.12 605.025  C 441.12 601.287  444.057 598.35  447.795 598.35  C 451.533 598.35  454.47 601.287  454.47 605.025  C 454.47 608.763  451.533 611.7  447.795 611.7  " fill-rule="nonzero" fill="#cccccc" stroke="none" />
    <path d="M 394 666  L 394 625.85  L 416.5 607.6  L 448 629.224528301887  L 466 618.55  L 484 629.224528301887  L 484 666  L 394 666  " fill-rule="nonzero" fill="#169bd5" stroke="none" />
  </g>
</svg>