<?xml version="1.0" encoding="utf-8"?>
<svg version="1.1" xmlns:xlink="http://www.w3.org/1999/xlink" width="10px" height="22px" preserveAspectRatio="xMidYMin meet" viewBox="670 285  8 22" xmlns="http://www.w3.org/2000/svg">
  <path d="M 546 297.5  L 626.5 297.5  A 3.5 3.5 0 0 0 630.5 294 A 3.5 3.5 0 0 1 634 290.5 L 669 290.5  A 5 5 0 0 1 674.5 295.5 L 674.5 307  " stroke-width="1" stroke="#ff3399" fill="none" />
  <path d="M 548 294.5  A 3 3 0 0 0 545 297.5 A 3 3 0 0 0 548 300.5 A 3 3 0 0 0 551 297.5 A 3 3 0 0 0 548 294.5 Z " fill-rule="nonzero" fill="#ff3399" stroke="none" />
</svg>