<?xml version="1.0" encoding="utf-8"?>
<svg version="1.1" xmlns:xlink="http://www.w3.org/1999/xlink" width="106px" height="89px" xmlns="http://www.w3.org/2000/svg">
  <g transform="matrix(1 0 0 1 -475 -579 )">
    <path d="M 475 579  L 581 579  L 581 668  L 475 668  L 475 579  " fill-rule="nonzero" fill="#cccccc" stroke="none" />
    <path d="M 481 585  L 575 585  L 575 662  L 481 662  L 481 585  " fill-rule="nonzero" fill="#ffffff" stroke="none" />
    <path d="M 536.795 605.7  C 533.057 605.7  530.12 602.763  530.12 599.025  C 530.12 595.287  533.057 592.35  536.795 592.35  C 540.533 592.35  543.47 595.287  543.47 599.025  C 543.47 602.763  540.533 605.7  536.795 605.7  " fill-rule="nonzero" fill="#cccccc" stroke="none" />
    <path d="M 483 660  L 483 619.85  L 505.5 601.6  L 537 623.224528301887  L 555 612.55  L 573 623.224528301887  L 573 660  L 483 660  " fill-rule="nonzero" fill="#169bd5" stroke="none" />
  </g>
</svg>