<?xml version="1.0" encoding="utf-8"?>
<svg version="1.1" xmlns:xlink="http://www.w3.org/1999/xlink" width="72px" height="67px" xmlns="http://www.w3.org/2000/svg">
  <g transform="matrix(1 0 0 1 -1140 -409 )">
    <path d="M 1140 409  L 1212 409  L 1212 476  L 1140 476  L 1140 409  " fill-rule="nonzero" fill="#cccccc" stroke="none" />
    <path d="M 1145 414  L 1207 414  L 1207 471  L 1145 471  L 1145 414  " fill-rule="nonzero" fill="#ffffff" stroke="none" />
    <path d="M 1182.465 429.1  C 1179.651 429.1  1177.44 426.889  1177.44 424.075  C 1177.44 421.261  1179.651 419.05  1182.465 419.05  C 1185.279 419.05  1187.49 421.261  1187.49 424.075  C 1187.49 426.889  1185.279 429.1  1182.465 429.1  " fill-rule="nonzero" fill="#cccccc" stroke="none" />
    <path d="M 1147 470  L 1147 440.3  L 1161.75 426.8  L 1182.4 439.85  L 1194.2 434.9  L 1206 439.85  L 1206 470  L 1147 470  " fill-rule="nonzero" fill="#169bd5" stroke="none" />
  </g>
</svg>