<?xml version="1.0" encoding="utf-8"?>
<svg version="1.1" xmlns:xlink="http://www.w3.org/1999/xlink" width="58px" height="58px" xmlns="http://www.w3.org/2000/svg">
  <g transform="matrix(1 0 0 1 -988 -662 )">
    <path d="M 1017 662  C 1033.24 662  1046 674.76  1046 691  C 1046 707.24  1033.24 720  1017 720  C 1000.76 720  988 707.24  988 691  C 988 674.76  1000.76 662  1017 662  Z " fill-rule="nonzero" fill="#ffffff" stroke="none" />
    <path d="M 1017 662.5  C 1032.96 662.5  1045.5 675.04  1045.5 691  C 1045.5 706.96  1032.96 719.5  1017 719.5  C 1001.04 719.5  988.5 706.96  988.5 691  C 988.5 675.04  1001.04 662.5  1017 662.5  Z " stroke-width="1" stroke="#797979" fill="none" />
  </g>
</svg>