<?xml version="1.0" encoding="utf-8"?>
<svg version="1.1" xmlns:xlink="http://www.w3.org/1999/xlink" width="37px" height="37px" xmlns="http://www.w3.org/2000/svg">
  <g transform="matrix(1 0 0 1 -1140 -287 )">
    <path d="M 1158.5 287  C 1168.86 287  1177 295.14  1177 305.5  C 1177 315.86  1168.86 324  1158.5 324  C 1148.14 324  1140 315.86  1140 305.5  C 1140 295.14  1148.14 287  1158.5 287  Z " fill-rule="nonzero" fill="#eeeeee" stroke="none" />
    <path d="M 1158.5 287.5  C 1168.58 287.5  1176.5 295.42  1176.5 305.5  C 1176.5 315.58  1168.58 323.5  1158.5 323.5  C 1148.42 323.5  1140.5 315.58  1140.5 305.5  C 1140.5 295.42  1148.42 287.5  1158.5 287.5  Z " stroke-width="1" stroke="#f2f2f2" fill="none" />
  </g>
</svg>