<?xml version="1.0" encoding="utf-8"?>
<svg version="1.1" xmlns:xlink="http://www.w3.org/1999/xlink" width="104px" height="104px" xmlns="http://www.w3.org/2000/svg">
  <g transform="matrix(1 0 0 1 -530 -556 )">
    <path d="M 531 560  A 3 3 0 0 1 534 557 L 630 557  A 3 3 0 0 1 633 560 L 633 656  A 3 3 0 0 1 630 659 L 534 659  A 3 3 0 0 1 531 656 L 531 560  Z " fill-rule="nonzero" fill="#000000" stroke="none" fill-opacity="0.0196078431372549" />
    <path d="M 530.5 560  A 3.5 3.5 0 0 1 534 556.5 L 630 556.5  A 3.5 3.5 0 0 1 633.5 560 L 633.5 656  A 3.5 3.5 0 0 1 630 659.5 L 534 659.5  A 3.5 3.5 0 0 1 530.5 656 L 530.5 560  Z " stroke-width="1" stroke-dasharray="9,4" stroke="#d9d9d9" fill="none" stroke-dashoffset="0.5" />
  </g>
</svg>