<?xml version="1.0" encoding="utf-8"?>
<svg version="1.1" xmlns:xlink="http://www.w3.org/1999/xlink" width="48px" height="48px" xmlns="http://www.w3.org/2000/svg">
  <defs>
    <mask fill="white" id="clip429">
      <path d="M 493 235  C 479.68 235  469 224.32  469 211  L 469 211  C 469 197.68  479.68 187  493 187  L 493 187  C 506.32 187  517 197.68  517 211  L 517 211  C 517 224.32  506.32 235  493 235  " fill-rule="evenodd" />
    </mask>
  </defs>
  <g transform="matrix(1 0 0 1 -469 -187 )">
    <path d="M 469 187  L 517 187  L 517 235  L 469 235  L 469 187  " fill-rule="nonzero" fill="#cccccc" stroke="none" mask="url(#clip429)" />
    <path d="M 472 190  L 514 190  L 514 232  L 472 232  L 472 190  " fill-rule="nonzero" fill="#ffffff" stroke="none" mask="url(#clip429)" />
    <path d="M 497.56 201.4  C 495.544 201.4  493.96 199.816  493.96 197.8  C 493.96 195.784  495.544 194.2  497.56 194.2  C 499.576 194.2  501.16 195.784  501.16 197.8  C 501.16 199.816  499.576 201.4  497.56 201.4  " fill-rule="nonzero" fill="#cccccc" stroke="none" mask="url(#clip429)" />
    <path d="M 473 231  L 473 209  L 483 199  L 497 207  L 505 205  L 513 207  L 513 231  L 473 231  " fill-rule="nonzero" fill="#169bd5" stroke="none" mask="url(#clip429)" />
  </g>
</svg>