<?xml version="1.0" encoding="utf-8"?>
<svg version="1.1" xmlns:xlink="http://www.w3.org/1999/xlink" width="23px" height="17px" xmlns="http://www.w3.org/2000/svg">
  <g transform="matrix(1 0 0 1 -1849 -194 )">
    <path d="M 22.5845161290323 2.34680134680135  C 22.8615053763441 2.61391694725028  23 2.93827160493827  23 3.31986531986532  C 23 3.70145903479237  22.8615053763441 4.02581369248036  22.5845161290323 4.29292929292929  L 11.8412903225806 14.6531986531987  L 9.82322580645161 16.5993265993266  C 9.54623655913979 16.8664421997755  9.20989247311828 17  8.8141935483871 17  C 8.41849462365591 17  8.08215053763441 16.8664421997755  7.80516129032258 16.5993265993266  L 5.78709677419355 14.6531986531987  L 0.415483870967742 9.47306397306397  C 0.138494623655914 9.20594837261504  0 8.88159371492705  0 8.5  C 0 8.11840628507295  0.138494623655914 7.79405162738496  0.415483870967742 7.52693602693603  L 2.43354838709677 5.58080808080808  C 2.7105376344086 5.31369248035915  3.04688172043011 5.18013468013468  3.44258064516129 5.18013468013468  C 3.83827956989247 5.18013468013468  4.17462365591398 5.31369248035915  4.45161290322581 5.58080808080808  L 8.8141935483871 9.80218855218855  L 18.5483870967742 0.400673400673401  C 18.825376344086 0.133557800224466  19.1617204301075 0  19.5574193548387 0  C 19.9531182795699 0  20.2894623655914 0.133557800224466  20.5664516129032 0.400673400673401  L 22.5845161290323 2.34680134680135  Z " fill-rule="nonzero" fill="#1890ff" stroke="none" transform="matrix(1 0 0 1 1849 194 )" />
  </g>
</svg>