<?xml version="1.0" encoding="utf-8"?>
<svg version="1.1" xmlns:xlink="http://www.w3.org/1999/xlink" width="601px" height="181px" xmlns="http://www.w3.org/2000/svg">
  <g transform="matrix(1 0 0 1 -429 -1223 )">
    <path d="M 430 1227  A 3 3 0 0 1 433 1224 L 1026 1224  A 3 3 0 0 1 1029 1227 L 1029 1400  A 3 3 0 0 1 1026 1403 L 433 1403  A 3 3 0 0 1 430 1400 L 430 1227  Z " fill-rule="nonzero" fill="#000000" stroke="none" fill-opacity="0.0196078431372549" />
    <path d="M 429.5 1227  A 3.5 3.5 0 0 1 433 1223.5 L 1026 1223.5  A 3.5 3.5 0 0 1 1029.5 1227 L 1029.5 1400  A 3.5 3.5 0 0 1 1026 1403.5 L 433 1403.5  A 3.5 3.5 0 0 1 429.5 1400 L 429.5 1227  Z " stroke-width="1" stroke-dasharray="9,4" stroke="#d9d9d9" fill="none" stroke-dashoffset="0.5" />
  </g>
</svg>