<?xml version="1.0" encoding="utf-8"?>
<svg version="1.1" xmlns:xlink="http://www.w3.org/1999/xlink" width="1204px" height="59px" xmlns="http://www.w3.org/2000/svg">
  <g transform="matrix(1 0 0 1 -497 -257 )">
    <path d="M 498 261  A 3 3 0 0 1 501 258 L 1697 258  A 3 3 0 0 1 1700 261 L 1700 312  A 3 3 0 0 1 1697 315 L 501 315  A 3 3 0 0 1 498 312 L 498 261  Z " fill-rule="nonzero" fill="#ff3399" stroke="none" fill-opacity="0.0980392156862745" />
    <path d="M 497.5 261  A 3.5 3.5 0 0 1 501 257.5 L 1697 257.5  A 3.5 3.5 0 0 1 1700.5 261 L 1700.5 312  A 3.5 3.5 0 0 1 1697 315.5 L 501 315.5  A 3.5 3.5 0 0 1 497.5 312 L 497.5 261  Z " stroke-width="1" stroke-dasharray="9,4" stroke="#ff3399" fill="none" stroke-dashoffset="0.5" />
  </g>
</svg>