<?xml version="1.0" encoding="utf-8"?>
<svg version="1.1" xmlns:xlink="http://www.w3.org/1999/xlink" width="454px" height="59px" xmlns="http://www.w3.org/2000/svg">
  <g transform="matrix(1 0 0 1 -475 -190 )">
    <path d="M 476 194  A 3 3 0 0 1 479 191 L 925 191  A 3 3 0 0 1 928 194 L 928 245  A 3 3 0 0 1 925 248 L 479 248  A 3 3 0 0 1 476 245 L 476 194  Z " fill-rule="nonzero" fill="#ff3399" stroke="none" fill-opacity="0.0980392156862745" />
    <path d="M 475.5 194  A 3.5 3.5 0 0 1 479 190.5 L 925 190.5  A 3.5 3.5 0 0 1 928.5 194 L 928.5 245  A 3.5 3.5 0 0 1 925 248.5 L 479 248.5  A 3.5 3.5 0 0 1 475.5 245 L 475.5 194  Z " stroke-width="1" stroke-dasharray="9,4" stroke="#ff3399" fill="none" stroke-dashoffset="0.5" />
  </g>
</svg>