<?xml version="1.0" encoding="utf-8"?>
<svg version="1.1" xmlns:xlink="http://www.w3.org/1999/xlink" width="135px" height="10px" preserveAspectRatio="xMinYMid meet" viewBox="1710 423  135 8" xmlns="http://www.w3.org/2000/svg">
  <path d="M 1711 427.5  L 1835 427.5  A 5 5 0 0 1 1840.5 432.5 L 1840.5 555  A 5 5 0 0 0 1845.5 560.5 L 1890 560.5  A 5 5 0 0 1 1895.5 565.5 L 1895.5 572  " stroke-width="1" stroke="#ff3399" fill="none" />
  <path d="M 1713 424.5  A 3 3 0 0 0 1710 427.5 A 3 3 0 0 0 1713 430.5 A 3 3 0 0 0 1716 427.5 A 3 3 0 0 0 1713 424.5 Z " fill-rule="nonzero" fill="#ff3399" stroke="none" />
</svg>