<?xml version="1.0" encoding="utf-8"?>
<svg version="1.1" xmlns:xlink="http://www.w3.org/1999/xlink" width="131px" height="187px" xmlns="http://www.w3.org/2000/svg">
  <g transform="matrix(1 0 0 1 -1564 -445 )">
    <path d="M 1565 449  A 3 3 0 0 1 1568 446 L 1691 446  A 3 3 0 0 1 1694 449 L 1694 628  A 3 3 0 0 1 1691 631 L 1568 631  A 3 3 0 0 1 1565 628 L 1565 449  Z " fill-rule="nonzero" fill="#ff3399" stroke="none" fill-opacity="0.0980392156862745" />
    <path d="M 1564.5 449  A 3.5 3.5 0 0 1 1568 445.5 L 1691 445.5  A 3.5 3.5 0 0 1 1694.5 449 L 1694.5 628  A 3.5 3.5 0 0 1 1691 631.5 L 1568 631.5  A 3.5 3.5 0 0 1 1564.5 628 L 1564.5 449  Z " stroke-width="1" stroke-dasharray="9,4" stroke="#ff3399" fill="none" stroke-dashoffset="0.5" />
  </g>
</svg>