<?xml version="1.0" encoding="utf-8"?>
<svg version="1.1" xmlns:xlink="http://www.w3.org/1999/xlink" width="1089px" height="143px" xmlns="http://www.w3.org/2000/svg">
  <g transform="matrix(1 0 0 1 -565 -5187 )">
    <path d="M 566 5191  A 3 3 0 0 1 569 5188 L 1650 5188  A 3 3 0 0 1 1653 5191 L 1653 5326  A 3 3 0 0 1 1650 5329 L 569 5329  A 3 3 0 0 1 566 5326 L 566 5191  Z " fill-rule="nonzero" fill="#ff3399" stroke="none" fill-opacity="0.0980392156862745" />
    <path d="M 565.5 5191  A 3.5 3.5 0 0 1 569 5187.5 L 1650 5187.5  A 3.5 3.5 0 0 1 1653.5 5191 L 1653.5 5326  A 3.5 3.5 0 0 1 1650 5329.5 L 569 5329.5  A 3.5 3.5 0 0 1 565.5 5326 L 565.5 5191  Z " stroke-width="1" stroke-dasharray="9,4" stroke="#ff3399" fill="none" stroke-dashoffset="0.5" />
  </g>
</svg>