<?xml version="1.0" encoding="utf-8"?>
<svg version="1.1" xmlns:xlink="http://www.w3.org/1999/xlink" width="10px" height="63px" preserveAspectRatio="xMidYMin meet" viewBox="1899 225  8 63" xmlns="http://www.w3.org/2000/svg">
  <path d="M 1711 240.5  L 1715 240.5  A 5 5 0 0 0 1720.5 235.5 A 5 5 0 0 1 1725.5 230.5 L 1898 230.5  A 5 5 0 0 1 1903.5 235.5 L 1903.5 288  " stroke-width="1" stroke="#ff3399" fill="none" />
  <path d="M 1713 237.5  A 3 3 0 0 0 1710 240.5 A 3 3 0 0 0 1713 243.5 A 3 3 0 0 0 1716 240.5 A 3 3 0 0 0 1713 237.5 Z " fill-rule="nonzero" fill="#ff3399" stroke="none" />
</svg>