<?xml version="1.0" encoding="utf-8"?>
<svg version="1.1" xmlns:xlink="http://www.w3.org/1999/xlink" width="10px" height="17px" preserveAspectRatio="xMidYMin meet" viewBox="1891 555  8 17" xmlns="http://www.w3.org/2000/svg">
  <path d="M 1696 499.5  L 1835 499.5  A 5 5 0 0 1 1840.5 504.5 L 1840.5 555  A 5 5 0 0 0 1845.5 560.5 L 1890 560.5  A 5 5 0 0 1 1895.5 565.5 L 1895.5 572  " stroke-width="1" stroke="#ff3399" fill="none" />
  <path d="M 1698 496.5  A 3 3 0 0 0 1695 499.5 A 3 3 0 0 0 1698 502.5 A 3 3 0 0 0 1701 499.5 A 3 3 0 0 0 1698 496.5 Z " fill-rule="nonzero" fill="#ff3399" stroke="none" />
</svg>