<?xml version="1.0" encoding="utf-8"?>
<svg version="1.1" xmlns:xlink="http://www.w3.org/1999/xlink" width="10px" height="21px" preserveAspectRatio="xMidYMin meet" viewBox="1826 4185  8 21" xmlns="http://www.w3.org/2000/svg">
  <path d="M 1817 4201.5  L 1825 4201.5  A 5 5 0 0 0 1830.5 4196.5 L 1830.5 4195  A 5 5 0 0 1 1835.5 4190.5 L 1876 4190.5  A 5 5 0 0 1 1881.5 4195.5 L 1881.5 4209  " stroke-width="1" stroke="#ff3399" fill="none" />
  <path d="M 1819 4198.5  A 3 3 0 0 0 1816 4201.5 A 3 3 0 0 0 1819 4204.5 A 3 3 0 0 0 1822 4201.5 A 3 3 0 0 0 1819 4198.5 Z " fill-rule="nonzero" fill="#ff3399" stroke="none" />
</svg>