<?xml version="1.0" encoding="utf-8"?>
<svg version="1.1" xmlns:xlink="http://www.w3.org/1999/xlink" width="1187px" height="32px" xmlns="http://www.w3.org/2000/svg">
  <g transform="matrix(1 0 0 1 -508 -483 )">
    <path d="M 509 487  A 3 3 0 0 1 512 484 L 1691 484  A 3 3 0 0 1 1694 487 L 1694 511  A 3 3 0 0 1 1691 514 L 512 514  A 3 3 0 0 1 509 511 L 509 487  Z " fill-rule="nonzero" fill="#ff3399" stroke="none" fill-opacity="0.0980392156862745" />
    <path d="M 508.5 487  A 3.5 3.5 0 0 1 512 483.5 L 1691 483.5  A 3.5 3.5 0 0 1 1694.5 487 L 1694.5 511  A 3.5 3.5 0 0 1 1691 514.5 L 512 514.5  A 3.5 3.5 0 0 1 508.5 511 L 508.5 487  Z " stroke-width="1" stroke-dasharray="9,4" stroke="#ff3399" fill="none" stroke-dashoffset="0.5" />
  </g>
</svg>