<?xml version="1.0" encoding="utf-8"?>
<svg version="1.1" xmlns:xlink="http://www.w3.org/1999/xlink" width="1187px" height="32px" xmlns="http://www.w3.org/2000/svg">
  <g transform="matrix(1 0 0 1 -508 -487 )">
    <path d="M 509 491  A 3 3 0 0 1 512 488 L 1691 488  A 3 3 0 0 1 1694 491 L 1694 515  A 3 3 0 0 1 1691 518 L 512 518  A 3 3 0 0 1 509 515 L 509 491  Z " fill-rule="nonzero" fill="#ff3399" stroke="none" fill-opacity="0.0980392156862745" />
    <path d="M 508.5 491  A 3.5 3.5 0 0 1 512 487.5 L 1691 487.5  A 3.5 3.5 0 0 1 1694.5 491 L 1694.5 515  A 3.5 3.5 0 0 1 1691 518.5 L 512 518.5  A 3.5 3.5 0 0 1 508.5 515 L 508.5 491  Z " stroke-width="1" stroke-dasharray="9,4" stroke="#ff3399" fill="none" stroke-dashoffset="0.5" />
  </g>
</svg>