<?xml version="1.0" encoding="utf-8"?>
<svg version="1.1" xmlns:xlink="http://www.w3.org/1999/xlink" width="131px" height="158px" xmlns="http://www.w3.org/2000/svg">
  <g transform="matrix(1 0 0 1 -1564 -515 )">
    <path d="M 1565 519  A 3 3 0 0 1 1568 516 L 1691 516  A 3 3 0 0 1 1694 519 L 1694 669  A 3 3 0 0 1 1691 672 L 1568 672  A 3 3 0 0 1 1565 669 L 1565 519  Z " fill-rule="nonzero" fill="#ff3399" stroke="none" fill-opacity="0.0980392156862745" />
    <path d="M 1564.5 519  A 3.5 3.5 0 0 1 1568 515.5 L 1691 515.5  A 3.5 3.5 0 0 1 1694.5 519 L 1694.5 669  A 3.5 3.5 0 0 1 1691 672.5 L 1568 672.5  A 3.5 3.5 0 0 1 1564.5 669 L 1564.5 519  Z " stroke-width="1" stroke-dasharray="9,4" stroke="#ff3399" fill="none" stroke-dashoffset="0.5" />
  </g>
</svg>