<?xml version="1.0" encoding="utf-8"?>
<svg version="1.1" xmlns:xlink="http://www.w3.org/1999/xlink" width="10px" height="501px" preserveAspectRatio="xMidYMin meet" viewBox="536 5254  8 501" xmlns="http://www.w3.org/2000/svg">
  <path d="M 564 5259.5  L 545 5259.5  A 5 5 0 0 0 540.5 5264.5 L 540.5 5745  A 5 5 0 0 0 545.5 5750.5 L 635 5750.5  A 5 5 0 0 1 640.5 5755.5 L 640.5 5769  " stroke-width="1" stroke="#ff3399" fill="none" />
  <path d="M 562 5256.5  A 3 3 0 0 0 559 5259.5 A 3 3 0 0 0 562 5262.5 A 3 3 0 0 0 565 5259.5 A 3 3 0 0 0 562 5256.5 Z " fill-rule="nonzero" fill="#ff3399" stroke="none" />
</svg>