<?xml version="1.0" encoding="utf-8"?>
<svg version="1.1" xmlns:xlink="http://www.w3.org/1999/xlink" width="683px" height="100px" xmlns="http://www.w3.org/2000/svg">
  <g transform="matrix(1 0 0 1 -758 -1064 )">
    <path d="M 759 1068  A 3 3 0 0 1 762 1065 L 1437 1065  A 3 3 0 0 1 1440 1068 L 1440 1160  A 3 3 0 0 1 1437 1163 L 762 1163  A 3 3 0 0 1 759 1160 L 759 1068  Z " fill-rule="nonzero" fill="#ff3399" stroke="none" fill-opacity="0.0980392156862745" />
    <path d="M 758.5 1068  A 3.5 3.5 0 0 1 762 1064.5 L 1437 1064.5  A 3.5 3.5 0 0 1 1440.5 1068 L 1440.5 1160  A 3.5 3.5 0 0 1 1437 1163.5 L 762 1163.5  A 3.5 3.5 0 0 1 758.5 1160 L 758.5 1068  Z " stroke-width="1" stroke-dasharray="9,4" stroke="#ff3399" fill="none" stroke-dashoffset="0.5" />
  </g>
</svg>