<?xml version="1.0" encoding="utf-8"?>
<svg version="1.1" xmlns:xlink="http://www.w3.org/1999/xlink" width="199px" height="101px" xmlns="http://www.w3.org/2000/svg">
  <g transform="matrix(1 0 0 1 -591 -2308 )">
    <path d="M 591 2308  L 790 2308  L 790 2409  L 591 2409  L 591 2308  " fill-rule="nonzero" fill="#cccccc" stroke="none" />
    <path d="M 598 2315  L 783 2315  L 783 2402  L 598 2402  L 598 2315  " fill-rule="nonzero" fill="#ffffff" stroke="none" />
    <path d="M 702.055 2338.3  C 697.813 2338.3  694.48 2334.967  694.48 2330.725  C 694.48 2326.483  697.813 2323.15  702.055 2323.15  C 706.297 2323.15  709.63 2326.483  709.63 2330.725  C 709.63 2334.967  706.297 2338.3  702.055 2338.3  " fill-rule="nonzero" fill="#cccccc" stroke="none" />
    <path d="M 601 2400  L 601 2354.9  L 646 2334.4  L 709 2375.02914572864  L 745 2346.7  L 781 2375.02914572864  L 781 2400  L 601 2400  " fill-rule="nonzero" fill="#169bd5" stroke="none" />
  </g>
</svg>