<?xml version="1.0" encoding="utf-8"?>
<svg version="1.1" xmlns:xlink="http://www.w3.org/1999/xlink" width="1219px" height="152px" xmlns="http://www.w3.org/2000/svg">
  <g transform="matrix(1 0 0 1 -488 -1526 )">
    <path d="M 489 1530  A 3 3 0 0 1 492 1527 L 1703 1527  A 3 3 0 0 1 1706 1530 L 1706 1674  A 3 3 0 0 1 1703 1677 L 492 1677  A 3 3 0 0 1 489 1674 L 489 1530  Z " fill-rule="nonzero" fill="#ff3399" stroke="none" fill-opacity="0.0980392156862745" />
    <path d="M 488.5 1530  A 3.5 3.5 0 0 1 492 1526.5 L 1703 1526.5  A 3.5 3.5 0 0 1 1706.5 1530 L 1706.5 1674  A 3.5 3.5 0 0 1 1703 1677.5 L 492 1677.5  A 3.5 3.5 0 0 1 488.5 1674 L 488.5 1530  Z " stroke-width="1" stroke-dasharray="9,4" stroke="#ff3399" fill="none" stroke-dashoffset="0.5" />
  </g>
</svg>