<?xml version="1.0" encoding="utf-8"?>
<svg version="1.1" xmlns:xlink="http://www.w3.org/1999/xlink" width="519px" height="125px" xmlns="http://www.w3.org/2000/svg">
  <g transform="matrix(1 0 0 1 -548 -2020 )">
    <path d="M 549 2024  A 3 3 0 0 1 552 2021 L 1063 2021  A 3 3 0 0 1 1066 2024 L 1066 2141  A 3 3 0 0 1 1063 2144 L 552 2144  A 3 3 0 0 1 549 2141 L 549 2024  Z " fill-rule="nonzero" fill="#ff3399" stroke="none" fill-opacity="0.0980392156862745" />
    <path d="M 548.5 2024  A 3.5 3.5 0 0 1 552 2020.5 L 1063 2020.5  A 3.5 3.5 0 0 1 1066.5 2024 L 1066.5 2141  A 3.5 3.5 0 0 1 1063 2144.5 L 552 2144.5  A 3.5 3.5 0 0 1 548.5 2141 L 548.5 2024  Z " stroke-width="1" stroke-dasharray="9,4" stroke="#ff3399" fill="none" stroke-dashoffset="0.5" />
  </g>
</svg>