<?xml version="1.0" encoding="utf-8"?>
<svg version="1.1" xmlns:xlink="http://www.w3.org/1999/xlink" width="1204px" height="127px" xmlns="http://www.w3.org/2000/svg">
  <g transform="matrix(1 0 0 1 -475 -192 )">
    <path d="M 476 196  A 3 3 0 0 1 479 193 L 1675 193  A 3 3 0 0 1 1678 196 L 1678 315  A 3 3 0 0 1 1675 318 L 479 318  A 3 3 0 0 1 476 315 L 476 196  Z " fill-rule="nonzero" fill="#ff3399" stroke="none" fill-opacity="0.0980392156862745" />
    <path d="M 475.5 196  A 3.5 3.5 0 0 1 479 192.5 L 1675 192.5  A 3.5 3.5 0 0 1 1678.5 196 L 1678.5 315  A 3.5 3.5 0 0 1 1675 318.5 L 479 318.5  A 3.5 3.5 0 0 1 475.5 315 L 475.5 196  Z " stroke-width="1" stroke-dasharray="9,4" stroke="#ff3399" fill="none" stroke-dashoffset="0.5" />
  </g>
</svg>