<?xml version="1.0" encoding="utf-8"?>
<svg version="1.1" xmlns:xlink="http://www.w3.org/1999/xlink" width="961px" height="134px" xmlns="http://www.w3.org/2000/svg">
  <g transform="matrix(1 0 0 1 -569 -5356 )">
    <path d="M 570 5360  A 3 3 0 0 1 573 5357 L 1526 5357  A 3 3 0 0 1 1529 5360 L 1529 5486  A 3 3 0 0 1 1526 5489 L 573 5489  A 3 3 0 0 1 570 5486 L 570 5360  Z " fill-rule="nonzero" fill="#ff3399" stroke="none" fill-opacity="0.0980392156862745" />
    <path d="M 569.5 5360  A 3.5 3.5 0 0 1 573 5356.5 L 1526 5356.5  A 3.5 3.5 0 0 1 1529.5 5360 L 1529.5 5486  A 3.5 3.5 0 0 1 1526 5489.5 L 573 5489.5  A 3.5 3.5 0 0 1 569.5 5486 L 569.5 5360  Z " stroke-width="1" stroke-dasharray="9,4" stroke="#ff3399" fill="none" stroke-dashoffset="0.5" />
  </g>
</svg>