<?xml version="1.0" encoding="utf-8"?>
<svg version="1.1" xmlns:xlink="http://www.w3.org/1999/xlink" width="1206px" height="427px" xmlns="http://www.w3.org/2000/svg">
  <g transform="matrix(1 0 0 1 -479 -4037 )">
    <path d="M 480 4041  A 3 3 0 0 1 483 4038 L 1681 4038  A 3 3 0 0 1 1684 4041 L 1684 4460  A 3 3 0 0 1 1681 4463 L 483 4463  A 3 3 0 0 1 480 4460 L 480 4041  Z " fill-rule="nonzero" fill="#ff3399" stroke="none" fill-opacity="0.0980392156862745" />
    <path d="M 479.5 4041  A 3.5 3.5 0 0 1 483 4037.5 L 1681 4037.5  A 3.5 3.5 0 0 1 1684.5 4041 L 1684.5 4460  A 3.5 3.5 0 0 1 1681 4463.5 L 483 4463.5  A 3.5 3.5 0 0 1 479.5 4460 L 479.5 4041  Z " stroke-width="1" stroke-dasharray="9,4" stroke="#ff3399" fill="none" stroke-dashoffset="0.5" />
  </g>
</svg>