<?xml version="1.0" encoding="utf-8"?>
<svg version="1.1" xmlns:xlink="http://www.w3.org/1999/xlink" width="169px" height="101px" xmlns="http://www.w3.org/2000/svg">
  <g transform="matrix(1 0 0 1 -841 -2308 )">
    <path d="M 841 2308  L 1010 2308  L 1010 2409  L 841 2409  L 841 2308  " fill-rule="nonzero" fill="#cccccc" stroke="none" />
    <path d="M 848 2315  L 1003 2315  L 1003 2402  L 848 2402  L 848 2315  " fill-rule="nonzero" fill="#ffffff" stroke="none" />
    <path d="M 936.455 2338.3  C 932.213 2338.3  928.88 2334.967  928.88 2330.725  C 928.88 2326.483  932.213 2323.15  936.455 2323.15  C 940.697 2323.15  944.03 2326.483  944.03 2330.725  C 944.03 2334.967  940.697 2338.3  936.455 2338.3  " fill-rule="nonzero" fill="#cccccc" stroke="none" />
    <path d="M 851 2400  L 851 2354.9  L 888.5 2334.4  L 941 2370.59644970414  L 971 2346.7  L 1001 2370.59644970414  L 1001 2400  L 851 2400  " fill-rule="nonzero" fill="#169bd5" stroke="none" />
  </g>
</svg>