<?xml version="1.0" encoding="utf-8"?>
<svg version="1.1" xmlns:xlink="http://www.w3.org/1999/xlink" width="55px" height="28px" xmlns="http://www.w3.org/2000/svg">
  <g transform="matrix(1 0 0 1 -2271 -3431 )">
    <path d="M 2272 3434  A 2 2 0 0 1 2274 3432 L 2323 3432  A 2 2 0 0 1 2325 3434 L 2325 3456  A 2 2 0 0 1 2323 3458 L 2274 3458  A 2 2 0 0 1 2272 3456 L 2272 3434  Z " fill-rule="nonzero" fill="#ffffff" stroke="none" />
    <path d="M 2271.5 3434  A 2.5 2.5 0 0 1 2274 3431.5 L 2323 3431.5  A 2.5 2.5 0 0 1 2325.5 3434 L 2325.5 3456  A 2.5 2.5 0 0 1 2323 3458.5 L 2274 3458.5  A 2.5 2.5 0 0 1 2271.5 3456 L 2271.5 3434  Z " stroke-width="1" stroke="#797979" fill="none" stroke-opacity="0.286274509803922" />
  </g>
</svg>