<?xml version="1.0" encoding="utf-8"?>
<svg version="1.1" xmlns:xlink="http://www.w3.org/1999/xlink" width="413px" height="48px" xmlns="http://www.w3.org/2000/svg">
  <g transform="matrix(1 0 0 1 -1992 -3371 )">
    <path d="M 1993 3375  A 3 3 0 0 1 1996 3372 L 2401 3372  A 3 3 0 0 1 2404 3375 L 2404 3415  A 3 3 0 0 1 2401 3418 L 1996 3418  A 3 3 0 0 1 1993 3415 L 1993 3375  Z " fill-rule="nonzero" fill="#ff3399" stroke="none" fill-opacity="0.0980392156862745" />
    <path d="M 1992.5 3375  A 3.5 3.5 0 0 1 1996 3371.5 L 2401 3371.5  A 3.5 3.5 0 0 1 2404.5 3375 L 2404.5 3415  A 3.5 3.5 0 0 1 2401 3418.5 L 1996 3418.5  A 3.5 3.5 0 0 1 1992.5 3415 L 1992.5 3375  Z " stroke-width="1" stroke-dasharray="9,4" stroke="#ff3399" fill="none" stroke-dashoffset="0.5" />
  </g>
</svg>