<?xml version="1.0" encoding="utf-8"?>
<svg version="1.1" xmlns:xlink="http://www.w3.org/1999/xlink" width="10px" height="25px" preserveAspectRatio="xMidYMin meet" viewBox="2596 3375  8 25" xmlns="http://www.w3.org/2000/svg">
  <path d="M 2406 3395.5  L 2595 3395.5  A 5 5 0 0 0 2600.5 3390.5 L 2600.5 3385  A 5 5 0 0 1 2605.5 3380.5 L 2646 3380.5  A 5 5 0 0 1 2651.5 3385.5 L 2651.5 3390  " stroke-width="1" stroke="#ff3399" fill="none" />
  <path d="M 2408 3392.5  A 3 3 0 0 0 2405 3395.5 A 3 3 0 0 0 2408 3398.5 A 3 3 0 0 0 2411 3395.5 A 3 3 0 0 0 2408 3392.5 Z " fill-rule="nonzero" fill="#ff3399" stroke="none" />
</svg>