<?xml version="1.0" encoding="utf-8"?>
<svg version="1.1" xmlns:xlink="http://www.w3.org/1999/xlink" width="1204px" height="127px" xmlns="http://www.w3.org/2000/svg">
  <g transform="matrix(1 0 0 1 -475 -251 )">
    <path d="M 476 255  A 3 3 0 0 1 479 252 L 1675 252  A 3 3 0 0 1 1678 255 L 1678 374  A 3 3 0 0 1 1675 377 L 479 377  A 3 3 0 0 1 476 374 L 476 255  Z " fill-rule="nonzero" fill="#ff3399" stroke="none" fill-opacity="0.0980392156862745" />
    <path d="M 475.5 255  A 3.5 3.5 0 0 1 479 251.5 L 1675 251.5  A 3.5 3.5 0 0 1 1678.5 255 L 1678.5 374  A 3.5 3.5 0 0 1 1675 377.5 L 479 377.5  A 3.5 3.5 0 0 1 475.5 374 L 475.5 255  Z " stroke-width="1" stroke-dasharray="9,4" stroke="#ff3399" fill="none" stroke-dashoffset="0.5" />
  </g>
</svg>