<?xml version="1.0" encoding="utf-8"?>
<svg version="1.1" xmlns:xlink="http://www.w3.org/1999/xlink" width="1215px" height="30px" xmlns="http://www.w3.org/2000/svg">
  <g transform="matrix(1 0 0 1 -482 -3234 )">
    <path d="M 483 3238  A 3 3 0 0 1 486 3235 L 1693 3235  A 3 3 0 0 1 1696 3238 L 1696 3260  A 3 3 0 0 1 1693 3263 L 486 3263  A 3 3 0 0 1 483 3260 L 483 3238  Z " fill-rule="nonzero" fill="#ff3399" stroke="none" fill-opacity="0.0980392156862745" />
    <path d="M 482.5 3238  A 3.5 3.5 0 0 1 486 3234.5 L 1693 3234.5  A 3.5 3.5 0 0 1 1696.5 3238 L 1696.5 3260  A 3.5 3.5 0 0 1 1693 3263.5 L 486 3263.5  A 3.5 3.5 0 0 1 482.5 3260 L 482.5 3238  Z " stroke-width="1" stroke-dasharray="9,4" stroke="#ff3399" fill="none" stroke-dashoffset="0.5" />
  </g>
</svg>