<?xml version="1.0" encoding="utf-8"?>
<svg version="1.1" xmlns:xlink="http://www.w3.org/1999/xlink" width="1219px" height="152px" xmlns="http://www.w3.org/2000/svg">
  <g transform="matrix(1 0 0 1 -488 -1484 )">
    <path d="M 489 1488  A 3 3 0 0 1 492 1485 L 1703 1485  A 3 3 0 0 1 1706 1488 L 1706 1632  A 3 3 0 0 1 1703 1635 L 492 1635  A 3 3 0 0 1 489 1632 L 489 1488  Z " fill-rule="nonzero" fill="#ff3399" stroke="none" fill-opacity="0.0980392156862745" />
    <path d="M 488.5 1488  A 3.5 3.5 0 0 1 492 1484.5 L 1703 1484.5  A 3.5 3.5 0 0 1 1706.5 1488 L 1706.5 1632  A 3.5 3.5 0 0 1 1703 1635.5 L 492 1635.5  A 3.5 3.5 0 0 1 488.5 1632 L 488.5 1488  Z " stroke-width="1" stroke-dasharray="9,4" stroke="#ff3399" fill="none" stroke-dashoffset="0.5" />
  </g>
</svg>