<?xml version="1.0" encoding="utf-8"?>
<svg version="1.1" xmlns:xlink="http://www.w3.org/1999/xlink" width="116px" height="202px" xmlns="http://www.w3.org/2000/svg">
  <g transform="matrix(1 0 0 1 -1579 -515 )">
    <path d="M 1580 519  A 3 3 0 0 1 1583 516 L 1691 516  A 3 3 0 0 1 1694 519 L 1694 713  A 3 3 0 0 1 1691 716 L 1583 716  A 3 3 0 0 1 1580 713 L 1580 519  Z " fill-rule="nonzero" fill="#ff3399" stroke="none" fill-opacity="0.0980392156862745" />
    <path d="M 1579.5 519  A 3.5 3.5 0 0 1 1583 515.5 L 1691 515.5  A 3.5 3.5 0 0 1 1694.5 519 L 1694.5 713  A 3.5 3.5 0 0 1 1691 716.5 L 1583 716.5  A 3.5 3.5 0 0 1 1579.5 713 L 1579.5 519  Z " stroke-width="1" stroke-dasharray="9,4" stroke="#ff3399" fill="none" stroke-dashoffset="0.5" />
  </g>
</svg>