<?xml version="1.0" encoding="utf-8"?>
<svg version="1.1" xmlns:xlink="http://www.w3.org/1999/xlink" width="1204px" height="127px" xmlns="http://www.w3.org/2000/svg">
  <g transform="matrix(1 0 0 1 -475 -115 )">
    <path d="M 476 119  A 3 3 0 0 1 479 116 L 1675 116  A 3 3 0 0 1 1678 119 L 1678 238  A 3 3 0 0 1 1675 241 L 479 241  A 3 3 0 0 1 476 238 L 476 119  Z " fill-rule="nonzero" fill="#ff3399" stroke="none" fill-opacity="0.0980392156862745" />
    <path d="M 475.5 119  A 3.5 3.5 0 0 1 479 115.5 L 1675 115.5  A 3.5 3.5 0 0 1 1678.5 119 L 1678.5 238  A 3.5 3.5 0 0 1 1675 241.5 L 479 241.5  A 3.5 3.5 0 0 1 475.5 238 L 475.5 119  Z " stroke-width="1" stroke-dasharray="9,4" stroke="#ff3399" fill="none" stroke-dashoffset="0.5" />
  </g>
</svg>