<?xml version="1.0" encoding="utf-8"?>
<svg version="1.1" xmlns:xlink="http://www.w3.org/1999/xlink" width="542px" height="59px" xmlns="http://www.w3.org/2000/svg">
  <g transform="matrix(1 0 0 1 -475 -183 )">
    <path d="M 476 187  A 3 3 0 0 1 479 184 L 1013 184  A 3 3 0 0 1 1016 187 L 1016 238  A 3 3 0 0 1 1013 241 L 479 241  A 3 3 0 0 1 476 238 L 476 187  Z " fill-rule="nonzero" fill="#ff3399" stroke="none" fill-opacity="0.0980392156862745" />
    <path d="M 475.5 187  A 3.5 3.5 0 0 1 479 183.5 L 1013 183.5  A 3.5 3.5 0 0 1 1016.5 187 L 1016.5 238  A 3.5 3.5 0 0 1 1013 241.5 L 479 241.5  A 3.5 3.5 0 0 1 475.5 238 L 475.5 187  Z " stroke-width="1" stroke-dasharray="9,4" stroke="#ff3399" fill="none" stroke-dashoffset="0.5" />
  </g>
</svg>