<?xml version="1.0" encoding="utf-8"?>
<svg version="1.1" xmlns:xlink="http://www.w3.org/1999/xlink" width="1088px" height="100px" xmlns="http://www.w3.org/2000/svg">
  <g transform="matrix(1 0 0 1 -1857 -3974 )">
    <path d="M 1858 3978  A 3 3 0 0 1 1861 3975 L 2941 3975  A 3 3 0 0 1 2944 3978 L 2944 4070  A 3 3 0 0 1 2941 4073 L 1861 4073  A 3 3 0 0 1 1858 4070 L 1858 3978  Z " fill-rule="nonzero" fill="#ff3399" stroke="none" fill-opacity="0.0980392156862745" />
    <path d="M 1857.5 3978  A 3.5 3.5 0 0 1 1861 3974.5 L 2941 3974.5  A 3.5 3.5 0 0 1 2944.5 3978 L 2944.5 4070  A 3.5 3.5 0 0 1 2941 4073.5 L 1861 4073.5  A 3.5 3.5 0 0 1 1857.5 4070 L 1857.5 3978  Z " stroke-width="1" stroke-dasharray="9,4" stroke="#ff3399" fill="none" stroke-dashoffset="0.5" />
  </g>
</svg>