<?xml version="1.0" encoding="utf-8"?>
<svg version="1.1" xmlns:xlink="http://www.w3.org/1999/xlink" width="960px" height="170px" xmlns="http://www.w3.org/2000/svg">
  <g transform="matrix(1 0 0 1 0 -94 )">
    <path d="M 0 94  L 960 94  L 960 264  L 0 264  L 0 94  " fill-rule="nonzero" fill="#cccccc" stroke="none" />
    <path d="M 12 106  L 948 106  L 948 252  L 12 252  L 12 106  " fill-rule="nonzero" fill="#ffffff" stroke="none" />
    <path d="M 511.95 145  C 504.81 145  499.2 139.39  499.2 132.25  C 499.2 125.11  504.81 119.5  511.95 119.5  C 519.09 119.5  524.7 125.11  524.7 132.25  C 524.7 139.39  519.09 145  511.95 145  " fill-rule="nonzero" fill="#cccccc" stroke="none" />
    <path d="M 17 248  L 17 172.65  L 248.75 138.4  L 573.2 233.44375  L 758.6 158.95  L 944 233.44375  L 944 248  L 17 248  " fill-rule="nonzero" fill="#169bd5" stroke="none" />
  </g>
</svg>