<?xml version="1.0" encoding="utf-8"?>
<svg version="1.1" xmlns:xlink="http://www.w3.org/1999/xlink" width="410px" height="100px" xmlns="http://www.w3.org/2000/svg">
  <g transform="matrix(1 0 0 1 -601 -1004 )">
    <path d="M 602 1008  A 3 3 0 0 1 605 1005 L 1007 1005  A 3 3 0 0 1 1010 1008 L 1010 1100  A 3 3 0 0 1 1007 1103 L 605 1103  A 3 3 0 0 1 602 1100 L 602 1008  Z " fill-rule="nonzero" fill="#ff3399" stroke="none" fill-opacity="0.0980392156862745" />
    <path d="M 601.5 1008  A 3.5 3.5 0 0 1 605 1004.5 L 1007 1004.5  A 3.5 3.5 0 0 1 1010.5 1008 L 1010.5 1100  A 3.5 3.5 0 0 1 1007 1103.5 L 605 1103.5  A 3.5 3.5 0 0 1 601.5 1100 L 601.5 1008  Z " stroke-width="1" stroke-dasharray="9,4" stroke="#ff3399" fill="none" stroke-dashoffset="0.5" />
  </g>
</svg>