<?xml version="1.0" encoding="utf-8"?>
<svg version="1.1" xmlns:xlink="http://www.w3.org/1999/xlink" width="505px" height="100px" xmlns="http://www.w3.org/2000/svg">
  <g transform="matrix(1 0 0 1 -1023 -1004 )">
    <path d="M 1024 1008  A 3 3 0 0 1 1027 1005 L 1524 1005  A 3 3 0 0 1 1527 1008 L 1527 1100  A 3 3 0 0 1 1524 1103 L 1027 1103  A 3 3 0 0 1 1024 1100 L 1024 1008  Z " fill-rule="nonzero" fill="#ff3399" stroke="none" fill-opacity="0.0980392156862745" />
    <path d="M 1023.5 1008  A 3.5 3.5 0 0 1 1027 1004.5 L 1524 1004.5  A 3.5 3.5 0 0 1 1527.5 1008 L 1527.5 1100  A 3.5 3.5 0 0 1 1524 1103.5 L 1027 1103.5  A 3.5 3.5 0 0 1 1023.5 1100 L 1023.5 1008  Z " stroke-width="1" stroke-dasharray="9,4" stroke="#ff3399" fill="none" stroke-dashoffset="0.5" />
  </g>
</svg>