<?xml version="1.0" encoding="utf-8"?>
<svg version="1.1" xmlns:xlink="http://www.w3.org/1999/xlink" width="35px" height="37px" xmlns="http://www.w3.org/2000/svg">
  <g transform="matrix(1 0 0 1 -106 -341 )">
    <path d="M 106 341  L 141 341  L 141 378  L 106 378  L 106 341  " fill-rule="nonzero" fill="#cccccc" stroke="none" />
    <path d="M 108 343  L 139 343  L 139 376  L 108 376  L 108 343  " fill-rule="nonzero" fill="#ffffff" stroke="none" />
    <path d="M 126.825 351.8  C 125.355 351.8  124.2 350.645  124.2 349.175  C 124.2 347.705  125.355 346.55  126.825 346.55  C 128.295 346.55  129.45 347.705  129.45 349.175  C 129.45 350.645  128.295 351.8  126.825 351.8  " fill-rule="nonzero" fill="#cccccc" stroke="none" />
    <path d="M 109 375  L 109 357.95  L 116.25 350.2  L 126.4 356.4  L 132.2 354.85  L 138 356.4  L 138 375  L 109 375  " fill-rule="nonzero" fill="#169bd5" stroke="none" />
  </g>
</svg>