<?xml version="1.0" encoding="utf-8"?>
<svg version="1.1" xmlns:xlink="http://www.w3.org/1999/xlink" width="35px" height="37px" xmlns="http://www.w3.org/2000/svg">
  <g transform="matrix(1 0 0 1 -106 -420 )">
    <path d="M 106 420  L 141 420  L 141 457  L 106 457  L 106 420  " fill-rule="nonzero" fill="#cccccc" stroke="none" />
    <path d="M 108 422  L 139 422  L 139 455  L 108 455  L 108 422  " fill-rule="nonzero" fill="#ffffff" stroke="none" />
    <path d="M 126.825 430.8  C 125.355 430.8  124.2 429.645  124.2 428.175  C 124.2 426.705  125.355 425.55  126.825 425.55  C 128.295 425.55  129.45 426.705  129.45 428.175  C 129.45 429.645  128.295 430.8  126.825 430.8  " fill-rule="nonzero" fill="#cccccc" stroke="none" />
    <path d="M 109 454  L 109 436.95  L 116.25 429.2  L 126.4 435.4  L 132.2 433.85  L 138 435.4  L 138 454  L 109 454  " fill-rule="nonzero" fill="#169bd5" stroke="none" />
  </g>
</svg>