<?xml version="1.0" encoding="utf-8"?>
<svg version="1.1" xmlns:xlink="http://www.w3.org/1999/xlink" width="47px" height="47px" xmlns="http://www.w3.org/2000/svg">
  <g transform="matrix(1 0 0 1 -2133 -170 )">
    <path d="M 2156.5 170  C 2169.66 170  2180 180.34  2180 193.5  C 2180 206.66  2169.66 217  2156.5 217  C 2143.34 217  2133 206.66  2133 193.5  C 2133 180.34  2143.34 170  2156.5 170  Z " fill-rule="nonzero" fill="#ffffff" stroke="none" />
    <path d="M 2156.5 170.5  C 2169.38 170.5  2179.5 180.62  2179.5 193.5  C 2179.5 206.38  2169.38 216.5  2156.5 216.5  C 2143.62 216.5  2133.5 206.38  2133.5 193.5  C 2133.5 180.62  2143.62 170.5  2156.5 170.5  Z " stroke-width="1" stroke="#797979" fill="none" />
  </g>
</svg>