<?xml version="1.0" encoding="utf-8"?>
<svg version="1.1" xmlns:xlink="http://www.w3.org/1999/xlink" width="47px" height="47px" xmlns="http://www.w3.org/2000/svg">
  <g transform="matrix(1 0 0 1 -2133 -249 )">
    <path d="M 2156.5 249  C 2169.66 249  2180 259.34  2180 272.5  C 2180 285.66  2169.66 296  2156.5 296  C 2143.34 296  2133 285.66  2133 272.5  C 2133 259.34  2143.34 249  2156.5 249  Z " fill-rule="nonzero" fill="#ffffff" stroke="none" />
    <path d="M 2156.5 249.5  C 2169.38 249.5  2179.5 259.62  2179.5 272.5  C 2179.5 285.38  2169.38 295.5  2156.5 295.5  C 2143.62 295.5  2133.5 285.38  2133.5 272.5  C 2133.5 259.62  2143.62 249.5  2156.5 249.5  Z " stroke-width="1" stroke="#797979" fill="none" />
  </g>
</svg>