<?xml version="1.0" encoding="utf-8"?>
<svg version="1.1" xmlns:xlink="http://www.w3.org/1999/xlink" width="35px" height="37px" xmlns="http://www.w3.org/2000/svg">
  <g transform="matrix(1 0 0 1 -165 -420 )">
    <path d="M 165 420  L 200 420  L 200 457  L 165 457  L 165 420  " fill-rule="nonzero" fill="#cccccc" stroke="none" />
    <path d="M 167 422  L 198 422  L 198 455  L 167 455  L 167 422  " fill-rule="nonzero" fill="#ffffff" stroke="none" />
    <path d="M 185.825 430.8  C 184.355 430.8  183.2 429.645  183.2 428.175  C 183.2 426.705  184.355 425.55  185.825 425.55  C 187.295 425.55  188.45 426.705  188.45 428.175  C 188.45 429.645  187.295 430.8  185.825 430.8  " fill-rule="nonzero" fill="#cccccc" stroke="none" />
    <path d="M 168 454  L 168 436.95  L 175.25 429.2  L 185.4 435.4  L 191.2 433.85  L 197 435.4  L 197 454  L 168 454  " fill-rule="nonzero" fill="#169bd5" stroke="none" />
  </g>
</svg>