<?xml version="1.0" encoding="utf-8"?>
<svg version="1.1" xmlns:xlink="http://www.w3.org/1999/xlink" width="404px" height="131px" xmlns="http://www.w3.org/2000/svg">
  <g transform="matrix(1 0 0 1 -579 -1400 )">
    <path d="M 580 1404  A 3 3 0 0 1 583 1401 L 979 1401  A 3 3 0 0 1 982 1404 L 982 1527  A 3 3 0 0 1 979 1530 L 583 1530  A 3 3 0 0 1 580 1527 L 580 1404  Z " fill-rule="nonzero" fill="#ff3399" stroke="none" fill-opacity="0.0980392156862745" />
    <path d="M 579.5 1404  A 3.5 3.5 0 0 1 583 1400.5 L 979 1400.5  A 3.5 3.5 0 0 1 982.5 1404 L 982.5 1527  A 3.5 3.5 0 0 1 979 1530.5 L 583 1530.5  A 3.5 3.5 0 0 1 579.5 1527 L 579.5 1404  Z " stroke-width="1" stroke-dasharray="9,4" stroke="#ff3399" fill="none" stroke-dashoffset="0.5" />
  </g>
</svg>