<?xml version="1.0" encoding="utf-8"?>
<svg version="1.1" xmlns:xlink="http://www.w3.org/1999/xlink" width="342px" height="10px" preserveAspectRatio="xMinYMid meet" viewBox="633 1556  342 8" xmlns="http://www.w3.org/2000/svg">
  <path d="M 578 1466.5  L 572.5 1466.5  A 2 2 0 0 0 570.5 1468.5 A 2 2 0 0 0 572.5 1470.5 L 965.5 1470.5  A 5 5 0 0 1 970.5 1475.5 L 970.5 1555.5  A 5 5 0 0 1 965.5 1560.5 L 643.5 1560.5  A 5 5 0 0 0 638.5 1565.5 L 638.5 1570  " stroke-width="1" stroke="#ff3399" fill="none" />
  <path d="M 576 1463.5  A 3 3 0 0 0 573 1466.5 A 3 3 0 0 0 576 1469.5 A 3 3 0 0 0 579 1466.5 A 3 3 0 0 0 576 1463.5 Z " fill-rule="nonzero" fill="#ff3399" stroke="none" />
</svg>