<?xml version="1.0" encoding="utf-8"?>
<svg version="1.1" xmlns:xlink="http://www.w3.org/1999/xlink" width="35px" height="37px" xmlns="http://www.w3.org/2000/svg">
  <g transform="matrix(1 0 0 1 -672 -577 )">
    <path d="M 672 577  L 707 577  L 707 614  L 672 614  L 672 577  " fill-rule="nonzero" fill="#cccccc" stroke="none" />
    <path d="M 674 579  L 705 579  L 705 612  L 674 612  L 674 579  " fill-rule="nonzero" fill="#ffffff" stroke="none" />
    <path d="M 692.825 587.8  C 691.355 587.8  690.2 586.645  690.2 585.175  C 690.2 583.705  691.355 582.55  692.825 582.55  C 694.295 582.55  695.45 583.705  695.45 585.175  C 695.45 586.645  694.295 587.8  692.825 587.8  " fill-rule="nonzero" fill="#cccccc" stroke="none" />
    <path d="M 675 611  L 675 593.95  L 682.25 586.2  L 692.4 592.4  L 698.2 590.85  L 704 592.4  L 704 611  L 675 611  " fill-rule="nonzero" fill="#169bd5" stroke="none" />
  </g>
</svg>