<?xml version="1.0" encoding="utf-8"?>
<svg version="1.1" xmlns:xlink="http://www.w3.org/1999/xlink" width="47px" height="47px" xmlns="http://www.w3.org/2000/svg">
  <g transform="matrix(1 0 0 1 -2192 -249 )">
    <path d="M 2215.5 249  C 2228.66 249  2239 259.34  2239 272.5  C 2239 285.66  2228.66 296  2215.5 296  C 2202.34 296  2192 285.66  2192 272.5  C 2192 259.34  2202.34 249  2215.5 249  Z " fill-rule="nonzero" fill="#ffffff" stroke="none" />
    <path d="M 2215.5 249.5  C 2228.38 249.5  2238.5 259.62  2238.5 272.5  C 2238.5 285.38  2228.38 295.5  2215.5 295.5  C 2202.62 295.5  2192.5 285.38  2192.5 272.5  C 2192.5 259.62  2202.62 249.5  2215.5 249.5  Z " stroke-width="1" stroke="#797979" fill="none" />
  </g>
</svg>