<?xml version="1.0" encoding="utf-8"?>
<svg version="1.1" xmlns:xlink="http://www.w3.org/1999/xlink" width="12px" height="12px" viewBox="1380 1582  12 12" xmlns="http://www.w3.org/2000/svg">
  <path d="M 1386 1582  C 1389.36 1582  1392 1584.64  1392 1588  C 1392 1591.36  1389.36 1594  1386 1594  C 1382.64 1594  1380 1591.36  1380 1588  C 1380 1584.64  1382.64 1582  1386 1582  Z " fill-rule="nonzero" fill="#ffffff" stroke="none" />
  <path d="M 1386 1582.5  C 1389.08 1582.5  1391.5 1584.92  1391.5 1588  C 1391.5 1591.08  1389.08 1593.5  1386 1593.5  C 1382.92 1593.5  1380.5 1591.08  1380.5 1588  C 1380.5 1584.92  1382.92 1582.5  1386 1582.5  Z " stroke-width="1" stroke="#797979" fill="none" />
  <path d="M 1386 1591  C 1384.32 1591  1383 1589.68  1383 1588  C 1383 1586.32  1384.32 1585  1386 1585  C 1387.68 1585  1389 1586.32  1389 1588  C 1389 1589.68  1387.68 1591  1386 1591  " fill-rule="nonzero" fill="#797979" stroke="none" />
</svg>