<?xml version="1.0" encoding="utf-8"?>
<svg version="1.1" xmlns:xlink="http://www.w3.org/1999/xlink" width="212px" height="10px" preserveAspectRatio="xMinYMid meet" viewBox="3038 364  212 8" xmlns="http://www.w3.org/2000/svg">
  <path d="M 3039 368.5  L 3127 368.5  A 3 3 0 0 1 3130 365.5 A 3 3 0 0 1 3133 368.5 L 3159 368.5  A 3 3 0 0 1 3162 365.5 A 3 3 0 0 1 3165 368.5 L 3246.5 423.5  " stroke-width="1" stroke="#ff3399" fill="none" />
  <path d="M 3041 365.5  A 3 3 0 0 0 3038 368.5 A 3 3 0 0 0 3041 371.5 A 3 3 0 0 0 3044 368.5 A 3 3 0 0 0 3041 365.5 Z " fill-rule="nonzero" fill="#ff3399" stroke="none" />
</svg>