<?xml version="1.0" encoding="utf-8"?>
<svg version="1.1" xmlns:xlink="http://www.w3.org/1999/xlink" width="363px" height="95px" xmlns="http://www.w3.org/2000/svg">
  <g transform="matrix(1 0 0 1 -152 -224 )">
    <path d="M 152 224  L 515 224  L 515 319  L 152 319  L 152 224  " fill-rule="nonzero" fill="#cccccc" stroke="none" />
    <path d="M 159 231  L 508 231  L 508 312  L 159 312  L 159 231  " fill-rule="nonzero" fill="#ffffff" stroke="none" />
    <path d="M 347.885 252.5  C 343.895 252.5  340.76 249.365  340.76 245.375  C 340.76 241.385  343.895 238.25  347.885 238.25  C 351.875 238.25  355.01 241.385  355.01 245.375  C 355.01 249.365  351.875 252.5  347.885 252.5  " fill-rule="nonzero" fill="#cccccc" stroke="none" />
    <path d="M 162 310  L 162 268.2  L 248 249.2  L 368.4 298.066115702479  L 437.2 260.6  L 506 298.066115702479  L 506 310  L 162 310  " fill-rule="nonzero" fill="#169bd5" stroke="none" />
  </g>
</svg>