<?xml version="1.0" encoding="utf-8"?>
<svg version="1.1" xmlns:xlink="http://www.w3.org/1999/xlink" width="10px" height="10px" xmlns="http://www.w3.org/2000/svg">
  <g transform="matrix(1 0 0 1 -565 -529 )">
    <path d="M 570 530  C 572.24 530  574 531.76  574 534  C 574 536.24  572.24 538  570 538  C 567.76 538  566 536.24  566 534  C 566 531.76  567.76 530  570 530  Z " fill-rule="nonzero" fill="#ffffff" stroke="none" />
    <path d="M 570 530  C 572.24 530  574 531.76  574 534  C 574 536.24  572.24 538  570 538  C 567.76 538  566 536.24  566 534  C 566 531.76  567.76 530  570 530  Z " stroke-width="2" stroke="#1890ff" fill="none" />
  </g>
</svg>