<?xml version="1.0" encoding="utf-8"?>
<svg version="1.1" xmlns:xlink="http://www.w3.org/1999/xlink" width="10px" height="10px" xmlns="http://www.w3.org/2000/svg">
  <g transform="matrix(1 0 0 1 -565 -654 )">
    <path d="M 570 655  C 572.24 655  574 656.76  574 659  C 574 661.24  572.24 663  570 663  C 567.76 663  566 661.24  566 659  C 566 656.76  567.76 655  570 655  Z " fill-rule="nonzero" fill="#ffffff" stroke="none" />
    <path d="M 570 655  C 572.24 655  574 656.76  574 659  C 574 661.24  572.24 663  570 663  C 567.76 663  566 661.24  566 659  C 566 656.76  567.76 655  570 655  Z " stroke-width="2" stroke="#d9d9d9" fill="none" />
  </g>
</svg>